<mxfile host="app.diagrams.net" modified="2023-09-13T10:54:11.910Z" agent="Mozilla/5.0 (Windows NT 10.0; Win64; x64) AppleWebKit/537.36 (KHTML, like Gecko) Chrome/116.0.0.0 Safari/537.36 Edg/116.0.1938.69" etag="JRYnKxNWnGxLPhuUsNKB" version="21.7.2" type="github">
  <diagram name="Page-1" id="1mpeWrXKGAYtaM5iwfXW">
    <mxGraphModel dx="794" dy="462" grid="1" gridSize="10" guides="1" tooltips="1" connect="1" arrows="1" fold="1" page="1" pageScale="1" pageWidth="1100" pageHeight="850" math="0" shadow="0">
      <root>
        <mxCell id="0" />
        <mxCell id="1" parent="0" />
        <mxCell id="marmxEQQUY65Z1BmpgRf-3" style="edgeStyle=orthogonalEdgeStyle;rounded=0;orthogonalLoop=1;jettySize=auto;html=1;entryX=0.413;entryY=0.044;entryDx=0;entryDy=0;entryPerimeter=0;" parent="1" source="marmxEQQUY65Z1BmpgRf-1" target="marmxEQQUY65Z1BmpgRf-6" edge="1">
          <mxGeometry relative="1" as="geometry">
            <mxPoint x="452" y="138.29272727272726" as="targetPoint" />
            <Array as="points">
              <mxPoint x="600" y="118.27000000000001" />
              <mxPoint x="430" y="118.27000000000001" />
              <mxPoint x="430" y="138.27" />
            </Array>
          </mxGeometry>
        </mxCell>
        <mxCell id="nXCKUCmh7iTcp1doCHGK-7" style="edgeStyle=orthogonalEdgeStyle;rounded=0;orthogonalLoop=1;jettySize=auto;html=1;" edge="1" parent="1" source="marmxEQQUY65Z1BmpgRf-1" target="nXCKUCmh7iTcp1doCHGK-6">
          <mxGeometry relative="1" as="geometry">
            <Array as="points">
              <mxPoint x="600" y="118.27000000000001" />
              <mxPoint x="735" y="118.27000000000001" />
            </Array>
          </mxGeometry>
        </mxCell>
        <mxCell id="marmxEQQUY65Z1BmpgRf-1" value="example.com" style="rounded=0;whiteSpace=wrap;html=1;" parent="1" vertex="1">
          <mxGeometry x="560" y="68.27" width="80" height="30" as="geometry" />
        </mxCell>
        <mxCell id="marmxEQQUY65Z1BmpgRf-5" value="" style="shape=image;verticalLabelPosition=bottom;labelBackgroundColor=default;verticalAlign=top;aspect=fixed;imageAspect=0;image=data:image/png,iVBORw0KGgoAAAANSUhEUgAAAU8AAAEyCAYAAAB6cVLtAAAgAElEQVR4Aey9h3sbZdrvf/6+c87ves+7L4SEFNuqli25JoSll6XuLiUsSaxiNdsJHZaFpbOU0FsgpMdVzbZsy+r987vuZ2ZsOXFLYnZNIsE3jzSakaWZ5/nO3e//RfPRPAPNM9A8A80zcNVn4H9d9RHNA5pnoHkGmmegeQa4ucizDhi4zotfp05t6T95JR/c8DD+Tr0OAmqrYGmnhgObT5tn4GrOQMMcanh6+TxffkvmrTZ3r5izl/3Z5WMue6P5Up2Bm4c8DRKrCZk1kKg81x+XbzZeq7eNF/r+VWqUKFGmQoWqhlqFWrUK1ZrOlXWoyfMK1MpQLwFlHRWgSp0qtbqM2lRu/DPX89z4TdtxvJ7f9Xs7VqabmgIyDdaD7LcJVCpVqtUq9brcjGUuy4dWdcgHXHmPll2qdahQo0xVzdkyJZl52vQwTqo+WYyXxkcZr2Vc8Vh6QxcQlJCwYo8b+sXNRZ4rZmcDgTY8XZoPDdtWI9siJTJkyVOgREVNyqqayMYKEG6sQ7UC1RLUilDLQz0PFICiItGamtKbJ09NajCkh9VHRcT1OvUtgSY4G/eerRpXXArjlDXHjQlUuNK4CEJ+dSFOuTkLdJasqvuy3JuXyFSelqkryixQJEdO3foVuzVMeuOpQZwNH6GWwRIbLu3YcNGa5Ll0em6sJ3Kxl1asPqmMCdBAlMYmY7x8chlEWq7XyFOhSB1NhmzQzoU0y1UoC2mKxClEKYQpxJmnTlGXAURiFdlTm+PG37zu8bo/4PITIpJFdWugK42apH3j/ytEV6vXNoR2Jq5Uii6/lDJX1Hyr16nWRWspU1cajWg1Ff0a1aAiN26dRIVjheP0l2WlNVVQN3uZ4A1/xHi6afJUBxiS541FGRv9mptI8ly+C6tZZMwS/QwZLy8f1duXb9RfK9KTSalrTopfZP6W69RKZarFPNSWSVOIs0aBilL45V+RBLTFIJN1yx5rfN/GRXJVz9UqlBvAVkH75fLr1wPq7MgZ+v2iRpFqvbAh1jsPxns1pXLrV6Feo1gvU6qL3iM3Y7mNG+ezTKVSplqpqXteI4mue90beHRD8pTJuto827JJvP0/6OYkz8aLrl+jxk3G86XLZ2xoHI3Zdflo7KMOFqlSLKJiadJso0IDBgUJrRoKvGwvi8C6RRDBY0uhk7xIPdcLsfpuhg4N6/DvfdzM+drM+Vipv2h6zPL8ERu8Zs8U22ajNrMkchqSqDHK3DXmq4z6w9i07tS+fOeG4423bvTx5iJPY1ascqEb3xIVasWsMmxMxiizSlaErGoZGybjSvWoUVmHLJABFuuQqmtjWt8m720VcksGAsNQsH1G+W6CrfqtN9PnyNwRyJxZBBZ0yPPGeSTnV4hWpqdMTZmTKwhU3ijWoaQMqMtG7YZ5bxhUNBv7itWg9rrRiXEzv+/mIU85G6uQpnGSlunSmGmX3XfFGWTgcvLURQtR25W5U5+8YuFUZAnM1mAyB2dm6vwwUeGr8xVOnKnz+a9w4jScOFvlxLnixjhb5MSGKPDF2fwWQj6vuAmU+PLs+vjibIkTCmVOnP394vOzZT4/U9oQJ85V+OJ8dUNs7vMqfPprjU9P1/n0bIXPL5T4ZqLEL7MVLuUgXod5nVjlpiJSqUi0MieXyNO46ZeqUBFnU8O8Vjstz/tld+QV4sR6S8lYUjf8eHORZ8PlXCZL465qmOxl8hiipDE2TLAlAhWm1MOSxM6p2+hlssqdPyWEWYdTM3W+nSrz2aUi7/6S4fWvFzj+yQLDHy4Sfj/L0Hslwh8UCHy4iP+jufXx4RyDHyY3Bf+HSfwfbBXm8X+Q2iIsMvjBIr6N8P4i3u2M91J4NgHveyk2A897C2wE77uLeP+ZxvfPNN535vG9N0vw4xmOf5nkzZ9TfHQxz4mpIj/N1IjXNCKVm7dIocsEKh75MlTFHl9adjDJBF4iT23ei9FJg8ifxn/GerlybFheN8XTm4Y8ryTLlRdfe7UaccpE0ieWQZx1YcsC1DNa+FFN/JfaXT5dg3gBzs3Dt1F46csZBj+McPSdCIfejPDUq3H++nKSv76U5umXCzzzcpWnXi3zxKtZHn09tSEeeS3Fxljgkde2CikeeTXNI6/ktgh5Hn5lYzz0Sp6HXs5tWzz4UpYHXtwY97+Q5r7jixvi/hcyPPDi+njwhSx/OpbjkZEsD48s8NDILA8di/GnFyd54rVJnn5rksPvTxA+EefzSTg1B5GCZh6Sm7qsAS1kTubtAtRyIHPZmN9L4+XkKSRqEOjKdXP5uropWFP/kU3yVJNKpoBx55WJ02jINMjTCMfQw3bU/Tytwo5kD5mcizUYT8EXF6u8eCLJc38f49BbcZ76xyxPvJ7kTy8leeBYkvuGFrgnsMgffYscdC+y37NAv3+e3uDctSEwR28DegJJ1oU/Sc9VoNs/R/egYP660TU4j2sTcA7O4/TN/Sbo9M3R6b0+dHiSONyzG0L22yw2+rzOgSTOw0m6D8/TMzBHrzdJ/+AsB4LT3Dk8zX0vTvPwqwkeey3CE69cIvTJLJ+erzGa0uamzFGhQBVvXEvpMccyexspcFmAWJY8DfJcJlBjtTSOipxvIvZskqeaOMsTRuLmBIbqXqtVlrM5ZGKoGSL3YfFt5lTgsdiWFqpwcqrGm98s4H0nytOvx3nytTnuHU5wMDzLgdAc+0Mp+oNp+gNZ9vvz7PcX2D9YpM9fpCdQpCt49XAFC6yKQAHXGnAG8mweOZyBLM5A5gp0BtJ0+q8OHf40AkdgY7T7F/lNMLiIfTC1CmS7IL0xfIvYvGshhdWrweZNYZN9NwP1ecvHGp9hjHb3Io6BDB1HczgGsjjcGdo9ado9izi8C3R45WYzQ58/wYMvzfPoi3GefW2Slz5N8sMEpGqaCq9kzXqOaq2oxZ9K/LN6SGJFDTXnlwQILRJ5mUglKVnm/7K4YTw3PkX/sBt+uOnJU2NDgzxlomjQyLNGXU+dlJkgk0PFdOqezAI15fWMZOHLCxle+iyB++0Ez7yR5JGXFjkYnKM/kKYnWKA7WMQVLCt0BcsIugNlegJluoMVXMEaziBXjc5gnc7A1aEjUKPDv0kEqnQESnQEC3QE8yvgCORxBHJXhfZADoF9E7D5s/wWsPqzWAcza0Dey20MXw6LL7smzN4MgvX2Wes949jLR4snh9VdwOYuYXWXsHhKmD1lTDrMnhIWd4l2T45uX4Y7QykeOZ7k0GvTDH84zYlzeaI5TQqVG/6SiCDKlE51mmXToEOROJfXRKP901gxIrc26GY3PGE2/sCbmjy1E6EocUnSNCROTcFZNpKrySJJG+IY0kOBxCF0IQWfnisw9FGcp1+e5LHj0zx8PM09w0W6PBm6/CWNGENVOkMVOsNlOsNFnOE8znAOVziLK5TXybRKd+Dq0BWo0uWvrIDLX8EVWBtOfwWnv3wVKOL0XymtdvrzdPpzV40Of57NwDGY47dAuy/L2sjR7s1vAjnsnrVhc2cR2D2Ctfe78j3tOOP4xtHqyWIReLOYvTlM3gJt3hJt3gqtnhptHjC5wTxQw/J8gV5/hYP+NPcGpnnieITA+zN8eKrIuTmYrWqOzSUC1SVJWQ0aZO6L8GCQ5+XOo6bkedOS5/IdZDXy1BSTRvWkMeBcbEcSY3cmDe+fqTP4/ix/fSXOg0PT3BVIcUegQF8AXIPgDEBHEBwhcIRrOIZKOIZzOIYXcQwv0DEyh3Noke5gnl5/+ZrQM1hiBfwlutdB12CRq0OBrsH8qnD5clw98rh8hQ3h9Ob5LdDpybE28nR6BIV10eHOszZErdbQ4c6ts98qn6EfZxzfONrdGSzeFG2DC7QNpmn15Wj1FWnxVmnxQosHWtzQNgCmI9A+AB1HivQcTXOXP8kjx6Z5/h+zvP0znE5pc1g88SIMGFi2gBrkqZFmo1Ah9GqQrCGjGq+X19WN/+ymIc8Vl3LFlb6cPOVuW6NSrVKV/GF9YhmZP4bUOVWEj8bA+1GGR45FefjYHPcPZzkYKNDrK9E9CL1hcAWhIwQd4TqOcBnHUAHHcAbHcArHyLxOnil6glll+xT759WhQO/gZfAX6FkH3YN5rg4FugeLV8JXoOuaUKTLV1oXLm8Jl7f4m8DpKbAm3AWc7uKG6HQX6RworIqOgQIdR/Ma1thnU8can6GPdndW2VJNvnlMvhRtPiHQPK2+Ei3emkaeIn16wD4ILYdq2A5X6PKU6feluWNwmvuGYhx6O8W752GypCUriPQpAoHEzMs8NwhRFSBZenWlgm4sI2NcscZughc3F3kaV3nFKAafpemilBaDPI3aCkKYMsGMSSbOoc8vge8zePL1LPeEk9wZSHEwkOeOYI39IegV+6UueXaG6kpd7xjK0zGUpWN4kQ6ROofn6RiewzW0QI9yJOXoD1wl/EK6K9Hrz9Lrz62KHn+OnsHsVUD2L9DjK1+Bbl+Zbm/pqtDlLdHlLdPlrawLl7eCy1P+TeB0l1gbZZxuQWVddA6UWQsdAyU6ji5jrf1W29543OXP2wdy2DyLWHzzmH0LmH0pTL4MbUKg3hKt3hqtHmgdgH3Pg2MQrEfr2I+WcXkLuDzzOJ6f4MGXMxz5FD66AHNVzYkk5ClJR0XdLKWoUq/KpVv7G1xEsoCaj5uHPFcQ5pJhR09N04Pg1V22Tr1Wp1LV8oNlEhmkKSpOrgajc/DSVwUe+3uFe1/IczCcZX8gR5/ynNfoF/IMQ+egOIIquEIl3caZpXMoTefQ4gq4wov0BDP0BbLXgAy9/ivR48/SE1gd3f4Mm8Zglu7BAooohSwb0OUTEhQy3Dxc3jIuXxmnr7IhOr1lfhN4SnSsiTId7somUMYxsDbaj5YQOAYEa+935XvaccbxK8aBPKK62zzLHnmLN60cUyZlAy1i8lQwuau0Ha1hGgC7D2yeGuYjWWxHU3T6UnQHF7jnlQLDXxa4MKfZPmVuK+i1FRR5yrJQuZ2yeFYKGEvU2biuljbeHE+a5LkU+K5mirrqMl9U5pruRhLyNIhzOi3plAu4301y9wt59ofT9Acz7A+JnVPUZS3sqDdUpidUpDuUpzuUpSuUwRVO4wpncIVyyknkChVxhcqKXLtC4pHPXwNydAVWwhXM4Qrmca6FQJ7OQG6TkH0FhSuxScfP5c4hhz/PZtA+mKd9MLflsA/msPuyq0C257H7ChvC5i1g8+bXhFU84x6RFNfeZ9XjPXl1nHF842hzC3kWaB8oYFdEmsXmyWD1pBEStSgPv+ZMMnsLWLxFzO68gjib7L40Fs8cNl+SruEUz76d4JNTSaazkK0vF6mR+a5JnnpevLYqNAJdWi+NAoj+/ObgzKVfeZOTp66yL00ILWZDXjaSZ6kOeSnmUYIL0SyvfHyBv7waYf+IeMnTdIvUOFSgN5TXpb0MvaEMveE0vaEUPaF5ekIpukOLikglbEm86l0BFFwBcCpPfFF54sUbfzXoCBVYiSKOkKC0KtqDRTaPAu2hHO2hzBWwhzLYg+mrhi2UZiNYQ2mswcXfBJZAijXhT2PxZ7D4s+vC7M9gHlwdpsG0skeKTVKer7Xfatsbj5XjGyGhSvaBCo4jdRxHKjiOFhFV3u5OY/MsYPPOY/XOKYhqbx1M0eaep00kVX8GWyBDi3uWVu8s1tA8Dxy/yNA7v3A+kiFVWa7SZJCnmK1E3tQeq6+VJc/RTajJ3zTkqQUdyVTQCHI9LUQcRZWaeBm1YGCJiZPsock0fPRLmUOvTnHfyDS9YZEUs3QHc/QIccoYzNEbEmTpDog6vkhPSJCmO5RR+2rkKXGeNY1AgzUlgTpDBa5EEWdoAwSLdF6GjlCRteAIFrg65HAEs6sgQ3vgKhEUwt0YtqAs9vRvAqs/jdW/uApkewYVByqxoOvAMpjFMphZFWZfBrMvrWP1fVYc2xAvavaJ5KjFiF4+WkSKHRC1vkr7QJn2gSJ2dx6bUuXTWL2LyqEkHnmzR4eu1ptFMvVlMHkXaXHPYfIt0Dc4yWND53n/xwKRjFbERjQskTrFaCVtOoz/lsLiRS1r1OLVS90zr94wyPbGH28S8pRLL3U1pWisVES/LANTKnMthWtoYcGyf11VfS8plT1ZhW8jcOjvWe4fKXJHWCfMUIGeKyCkmmuARrDaNnlPC5rvDpYwoLKLQgVEfb8CwcI62UcluoIlXAFBUcEZKOAMFtfEqir4amq52mao7Veq+R2BHB3+7FXB4c/iCGRp3xA57P4sdr+MW4zBLLY1kcPmy28COazetaHiMT3iHResvd/ye3msXg0iYa4Gq6j07mIDCqhtuonA+Jsrx4bP8uZUfKhZxYlmcXkz3B3M8+fj83w7DnMVzeteq+eoVFOqcHdjLVohUvWQQSAsqwrWS61aWVviWr15RNCbijzLFFRR4iXyNILbdPIUdUULCZa7rtyDsyp3XUrLXUzBa9/DY6/B/rB406urkOYykV6b/XI1m6cQrUG2RZWppCRXUf0VSnQHSnQJ/IIiLr+emrlG6ubmUzOvDIxvPPZaguQ7/EK4ORwbwrB3yrjF8Iltcy2IzXMTds917J02ncw0m2duTbvoCpunp4BNh9UtJLkKPHlE+twqtLvLdHvgweEKr35ZV45QmfUiNEjF0BpZtQ6kQ5eU8xZdTK2dRvJUa0a6Iuhrq0meN57ILRKnTALNh97gPNR0lKUbqaamlFRbA8lfF0KdLcMXl6oc+ecc979QpE+IM1hqkuc1ZBg1yXMNB9J/gDxtA0UcR8r80Z/nudfmOHG2RrKgBcxrtRu0tjGa1qYp7ivIUxdEhVRFr1uSTG88+lj1F90kkqfcMCXgXaNGpXM02m7khrp0U5Ueg1lFnnK3ldqcZ2fh1a8yPPZClDvDKfrCJXpDxSZ5NslzdanydyJ52sRrf6RAr3uRBwMxXvwky9n4cvGQKiJE5JQ6Lsq4rJEl8jSer9TgVyWZG3XjTUSe2nXXrrl2r1QX1ZgE+livlajVM0pJEeUlUYCPfq1w5O157h+O0+efpX84T294WUW/0uZ5rWFHTbV9WZ1vqu1XqO5bqLKL6i+fbx/I0Xl0gYPeaZ55ZYEPTsJsSSNQZdKsF6hLX/jL1ommnctG/S3t6Y3Kk6v+rpuGPJcu/pInUe6quqIhF96w46jq2hll+pZWBicjEP54kUdfTHHPyAI9gVn6htP0DonDaG0Cbdo8Vy8Y0lTbt4/armyyUtZuIEWfd5F7/Cl87+Y4GdU872KyQsozSsk63bwl68jgUVk9ijONtXOTEejNRZ5ykdU8EB9iUdlpxGekHvKe9CpQlbWLqv+LeNjf/DbPU6/Ncc9QloNDaXrDc/SE5+kJZ5rk2VTbf9dqu8WTwexO0e7N4PTk6PHkefR4ite+rqmqS4VlltSj5rX1o5aKcrY3kKcsJHnjJnrclOQpHnWhTq1Vq147Sbq3KfWkTq1aI5mDn6bA/U6Kh44vcEe4RF8oS+9Qiu4meapiyk1v+1pSpJZdtN297VpGkqR6ppHsJYenzEH/Aof+nub7SUhKmyND4jRGPUJJXso6UsKm9qJJnjfsjcO4XUrqpeosWKOImMTFjVSGeglqoqJApQQTs/D6l2X+/Gqau4dzKle9W1Iowyl6hxeakqekbDYlz9+35OmTAH4Jml+g1VPE7AWnN6PaxLz4eY2JeSgZ6UZKKxNfgfjetShoWUdN8rxhGbPhh8lVljvkEnmKUVyTQCX+U5nIa2VVYGkxA99fgCN/X+ChF7LcMVTAFa7hChfplpTLoTQ94WxTbW+S5++cPCUFNc3egXlavFLarkq7N0u/P8VfX17gm/OwkNGaxKoq4CraU8L3JOivrsL4lAe+KXk2EM2N+FSusrp7GpKnVgghR5FsRRq55anXyhQrMBaFV/+V4/Fj89w9UqQ3XFS1OJ1DRXpHJABdihc3ybMpef6+1XbJNDL5FmnxLrLXl2PvYAmrL0+XP8/d/lnC76S5MAUF6VRc0YxdxbqsmCIl6lpPeCFO1YK7ovWouRG5Y43fdBPZPKXKQZVqRUsik/qFuTpk6gUVCl+sF5Q6n0jBl7+A98009wUXOBAu0yVFNqR1hiJPSanMqmpJTW/71bfhaHrb1yLcf3+GkbTyMA9maR3M0OLPscefp82bo92Tp3dglmdfmuOzkyCVxER7L9YKlCmRrWXJ1yQlU4+PLua0PvDK2aoU+TXo5sbafPOQpxgza2XKpYoSQGUy5KqQrsp9tE6uLslo8MsEvPhhnidH5jggxRNCFbqHikghY9dQgb7hikqXXI845b1mqFIzVGm7O4zM3rzWC2kwR2sgx15/hlYpcTeQp/Nwkvv8CYbey3FyUqv5mVNmrhrpSo58RXKKNPKslaQPfEavfNskzxvrFqF+jXiMysqTLmFrlRoUaiJ9aqQpl34iDe/+WORvry5yX2CePl+G3qEaPcNlnMNZXOE8PWHpdqnV6lyPQJvk2STPbU+enjwmgS+HKZClxZ+i1ZPGPFCg/cgifQPT/PmFOd76ochEVov9lIy7fL2ClGlUHYuFK2tZqKf1qrdN8rxByVPulZrTSMw00q9FCiEs1iFZhxOXygQ+WuCR4/McDC7QJy0xRmr0jZTpHsrRFZKSc0U9r72Zntm0ea6lgv8+QpXMngJmnUAtfiHRNG1uif0s0O7O4Tw6y12BGdzvzfP5aA3pFisUKSYv1aJGlpOKZZJVJLQq+lyTPG848pR2AjWpcqyTp4R1ivQplztVh/OL8OLXaf78xgx3HVugX7zq4Tz9IxX6h0ta7c6ARp59oTK9oWZhkCZ5/r7J0+IpYJEQJakJ6pPnWUwDWSxCnr4i9oEFurxJHnohwfCJDGcWtLUia6Ys66dUol5VreOUQq+5Ym846ljzB900Nk+VYWbcFPXK8eKAF6N3sgwf/Frl8Lvz3P/SNH3HFugZTtM9lKVH7JzhAv3BAr2BPL2BAv1hIc+m5Nkkz983eVo9RWzeMpaBIu3eMnZ3EfPRHKYBIVMhValQP09/IM6fX0/y1o9VlfeuOmyKHCKpzEr8EE+8JJsYC2xNvrmh3ripyFNUDe3ylkAVPIBcES7NQvijBR57dY47j8/iOraAa2QR19AiXaE0faE8B4Jl+oNFRaD9YS18qWnzbHrbV9TkNGp8/k6qKlm9JezeCuYjRRzuGo6jNaxHipiOSNHkPK3uNK2eBTp9s9wzPIf77RTnE5ArgGhusoY0w5dWI+Lmok64achTQjzljqkucE3yzjLUapBMwScnS/zt70nuPbZA38gcnS+kcB5fxDm0QFcwRX8wz8FgVRGoSJ8iiW6rqkpBvRiyKojcLIa8YfHkNQshGw3gbo5iyFZPCZu3gun5Ih0D4DwC9iMVRZ4mb559ngx7fdJgLkWvb5E/vzjPB99VmZ3XTZ3VHNTySuIs6mawG0q03ODHbFvyFJJTmsEKE7Swn0DvdKmeL//CxmOMYzVloka9XqVe1QzatXpd9aeer8DPUfC9l+TRV+Y5MJSiJ5yiayRDz7AEwafpDUh3zAIHghX6gxXNWRQWb/vaNk+VxtnQCbMrlGc9aJXijYrxq41G1fg1xkCRLgNSST7QrCS/OoFqnTjXriK/ReQpEqjqnClV5LdvJXmLp4TZU6HtaBGbNJYbqGI7WsByNKPsn22eLK1eaeORoUNadgyleP7NBX6YhLmy1uO9qlzuVWoVKV0nRjBNQJG1eDmW3zTWsKxjKXenPE/6iteKLsv6leO382Nbk6ecUuO0qpMoZCnionj41CgnXzvLMsgJl8tnQDteVIqKpmJUMupCiaVGnERnF+H1U/CnV2c4eGyeXrFxqrTLPH2hHPuDWQ4EpCd7gf5Aid5gha5QFVe4SrdqLayVpFsvLGk90lx+zyDMNchxqeXG6u93BQpcDkWgv3EbDmnJcbV2z/9kkPz6pGm05RCp8zolT0N9v5rxP1BJ3uQp0SaSp6esPOzWgRzWgQy2o4tYB9JY3DlMbvHIF7B6i3QOLnLXyBwv/QSnU9oakrWk1YVYhLpETC8LPcsCjE6E+lpVMU5qDUtWktSUEDOarFrJnZei5UuZ1NuZO7ev2i7n2TiJchHUQ0maevUjRZ66Hq4PjeRpHCtlP6RJgFxYqnl1FbM1mKnBv0bhuQ/SPPRGms7BBD1DefokiyhU1KTNQI4DgZxOnhKiJOQpOe6134A8VyfGlf2KVt/ncuKU103yvLLvUZM8V/Y/MsizzSvkmcfilgD5RWxHU9iEPAdyilTNnhImT5F9f5vl4PEcf3m7wIcXYLoKWVloIjlW09oa091GjcQpz2U9G4KO0h5XkKcU5mmSp85y1z8YdzB1bTTm1O5puqdcu3tdSZ4GaWoXT4hT7mairguBVlV2kUSknZuDl77J8fCrcf74QhJnIEnvSIm+4TK9QYM888vkKc6ioKRq/laS5+rE2CTPK0lwdZV84/2a5LmSPIUUleS5RJ7pNcmzzVOm9fACXYEF7h6ZYfhEgTOzWnSnFiwvXiRZZxpVGkKmsY4VeS4RqK62GwQqxLmkujfV9utmT+OkL921DAvo5fZO/So17m9cPk0BkDuaZuuUQwsVWKjBJ2fLuN+f4f6X4vQG4/SKjXOkrDKIeoMl5Vk/EChwIJBnfyCvhSpJq+BQha5whe4Gm+fWqO1N8lxuwSHdNbe+DUeTPC8nzyImj6jtJczuHBb3auRZpM1dos1TweotYDs6w4FggkP/mOGjU2WVYFJSkophu9QkSF3WXBY2GxlBrVkxuTXYPOW5WuPLAmrjIdvx+ba2eYr9w/jPuKOtOLVyEfSHzqGaeqD+FRlULqQWxCt3x3IN0hU4Ow0vfj7HX1+Pcs/xaXqCM/RIBlFYyFEkzzJ9waJS1xV5BoU880qdl/e7JEWzSZ7XVBC5afNcKzb0P1AYxCPkKU4jielcJk/r0ZSyfVrceUxuIc8yrfZwPjoAACAASURBVJ4qFm8Ry9E5un0JHhqZZOjjWbWWMpKtJzyo1qOsOYNADTFmxapduWIVgWr7GYQrOzQsbWOJb7tx25KndvrkpAoJGnelZSptJMvG59oZlv0N4pTUsZKmrle15lbv/JDl8D+meOj4JAeHZ+gbSuEMZHCFhBTFk16hT0mfBSV17l8iT3EQCcGKp305SL4pea6ex97pv3J7kzy3E3mKM6ioHEJmt2QWaZKn2D2tA1llB9WkziotnhqtA0VsnjSOgQQHfKM89fI4b3+XVa258zWt4qNS3aWwuGEq09evtnKXSfT3QI4bsfU2J09DetQIVC6AQaOXj8sXQ57px4kNRi5kvaJiPCU06fw8+N+N8+ixS9wdnuTAUJI+KfoRzNMlXvRwVZGnSJ8SomQQpyZ5CnkW6VbE2STPprd9DSK8Gi+7se9/wNuu5bZr5GnRydMysIiCO6s87SJ1tglxeqB1oIQUO7EPJOk6OsY9/nO434oq/8GCSJ/CNir0SNad7mdokELXWr+G8LMRWW2397cxeRrSo6YCCG3KFqHFyyHbNfI0iFPsL2KENgC5Gowtwj9/gmdfj3FvaJQ7Q3EOSBqm9CYartI9BN3Kk16lR1fdhUCFOCXLqDeU16vHC3E2ybNJnr9v8jRy29VokKd7JXm2uiu06uRp8tYxHc3j8GZwDUTpH7jA48fGeePbCqOLUm3J8Kjr604R57Iar63h5VCkxnW8vIaNz9huVHnl9/kdkKfcwbTeKbo8edklMayhcuUa6NWwpeiB9HMl+HYKjrw1z8MjEe4ZinEgNEtPUFpqSHuNKl1h6ArV6Q7VVqjufVeQ58qWw021/Ur1fDWVXbY11fY1CPc/IHmuTp5Skm4RUePb3EWEPFvcNfYN1Gk5WsXkLmGTikueJL3uKQ56LvLUKzG+ngBZY0qKUWtOdwap1apJoUKbWvyLZlQzaFUTj3QBaImAlySiK1lrm2zZ5uQpJ12uiFZ4wCBP2WpAtskFqUnYg25fkQD6mt5yo1wB8QZeSMLLX8MTLye5JxTlzuA0+4ML9EiZOVUtXiPP7rBBnlWkelJ/qEhfqNAgeUq/dpFANSlUyw7Kr1n8eDkQfr0sIwmS36S3PVCkuwGrxXg2xnk6AwWuRF45e0RyvB5cbYD8WuTZEciz0tMu3nYtG+haw5JWO257e9slK0lzGlndeVaFZ6W33HLdr6WSUgGrfI6SPDPK7mkeSCsHUpu7QKunTIu7yj53nZYBIc8KUlDE4U7hHEjQMzDO/cNRRk6UOTeDqvMpa04e0oVWC0EqU6+XqdZKSn+UlWqsXxmvIE9DDBUi3caP7U2eym6ykjzlZMsWgXHipdRcTVLDdGlThkpFqzmYr2gtVD8/B397K8vDLy5yMDDLfv8c/aEMfeESPWEt+F0kTyHPnnCd3rCQZ4W+kLQcLiiVvVcRrWQh5egO5dYkzEZJdKvJcy2yvHy7ESR/PeS40bFbQZ5KEr2MPNsHs7QP3nzkuSphNhLpdZPlleRrdRcUUUs2kRCo2Z3BNJDB5M7R5hHyLClPe4uQp7tGm7uKxVPB5s5gP5rE6U5wZzjJk6/N8fHpumrZLeGAUoRH1mBdklnqFY08q0WV7Sei0OXrWAhVcaWhQBoE2iTPazkDctJ1h09D2pac9EaIIlCTlsFK6pTgW6nbqRNnDdVa43QUXvoix+OvZbhnJMP+wAL9gUX2S73OoQq9ErupZw8plT1cU+Qp26VuZ28DefZK+qZK4WySZ5M811DBDSfQ1YyeNaTN35Q8hTg1LJOnOIoymDzL5NniLrNvoMK+oxXa3BVFnorojy5gPzpDt1+K6iQZ/jTNrxHpCwbifReJUgugN8xpFSV9SuvixjXcsHo1BpXdm+R5LaSpH6OkSLl1aadWPHWN4r4m6osJWpxDy6df1PVSVZNMJZMoWYX3T2Z59o0E94ws0h/M0ONfpC+YY3+4xH6dPKW1hhBoT6i6RJw9KmzJKAAiDqMcveJcCknRkCZ5NsnzRiDPoiJQiemUWE+TsnVmaFPkmVf93FvcJfYNlGg5WqZtQNT2KjZPUeW/m4/MYXMn6fZP88QrUd75MUuiBOm61p1WVTJTIqWwYYVqtUBVRi1peolEm5LndXDlFYca5Kmr43L+G8lTnmv+d6FRCUcSKVVsn1BQjd0gBXw3AeGPk/zpxQT7Q4t0+XN0+3NaCma4rBU2DpboCZSUh10jTCFRifdsqJ4k/YtEbQ9l6JG2w8EmeTbJ80Yhz6KqHi/57Updd2vk2eoR8hTVvYikZ0rYklnZPKuqiLLYSk0Di5gGFmj3znL3UATf+7N8OQrz0t5G1qKmDGoR9EpDlKbFIntqXWwNCbRJnlcw4HVsEI+dyn0VyVLdupQkL1Sp1AFlIZFnQppFjTxrdcRGLRdsvgYTeXES5Xj6zWnuOT5LT0jiObUKRlL8Q9kzVYFjqRIvTiEpCiKS5jJxSkB8t3jjQ3nNzqnIM0N3kzyvuqLSag6jps1TJ+D/iNouUmdJQfoWmdx52tw5WkX69ORo1WHyFjB7SyrbyKz2LyO1QMXZJJJqq/Q98izQG4jz2Msxjp3IM5aHuRrkRehRS1n+EarUvBVCoIb0Kau4SZ7XwZVXHKrIU064XvxDN4PISdZOtKgBOnFKceN6mXq1pshTLli8DJ+NwvPvzvHAyzMcGEnhCpdwKeeQ1oNIedGDOdXoTdT4fuVVl/hNIVAtk0h6tmsoqAZwEhPaHWqSpziTmpLn71zydBvkKRKlpGEWaHNLBfmcquPZ6pV6nllMqqZnQWUcmQfyWAbkuaR2ikRaoMWTp82TweGb5UA4xtP/mOOTSxAraz4HSd2sqDYOYobTMv5k7Yr0KWu5SZ5XsN91blBetwby1DnUIE+NQkXiLEBNKlpLM6q6auqWrsG5BfB/PMdjr01zx7FZeobSuIYqdA3V6A6LWi71OfP0BbL0BzL0B7P0h3K6Z10jUJE6l4lTQo3Eyy7kmW1Knk3yZNUWHFfjJGrc9z8heSryLGNV6nhJi+v05GkRidMryNLmFedRFrNH0jdzmKVM3VFR10VK1W2i3iItXlH5k3T64tz/wjTeDxY5Mw+pmhYqKJ53lbRSM1p3SO3PqiJPWdNL/iG17hs3XCeP/IaHb99QpcaTqJ/Zxk3a/UouhLTUyEFFRk1FiOfgX2clpnOUe19M0D08jzOcxTlcwzVU11IwVYm5HP1SKT6QZn8wo0hUJFDxrksGUVewUerU4jRViJJyFjVtnk3J80aQPIU8K4g6roLilSRpkKfYPtOY3BI4L8WRlwm0kTz3eUvs8xbZN7CAxTPLgVCCh49N8OFpiGb19jfKXySFj0UvlHUrENunJgY1yXMrWd5gyobbknGiJTxJC1jSL0StQDmXQ3qxF2twOgahD2d59JUY+4en6RxK0zlUwDlU1SVPsWkWkcwh8b4rBNL0+hfpDYg3Xc9hD4qqLgQqYwN5btLeKfGexnHrjsoOuxwkr0hbiPsySCC9xHN2C/wajPYbroC03yjiDBYUjFYcKkDen8f5G6FzMMdVoSHLSMs2ytMZyNPhF2jB8Y7BLI7BnI48jsHrhwqa9+Vo3xB52r2FDWH3FrB78hui3ZPD4ckio11vyWH3GsfJZxSwSbUi1UNdzzNXgesFbO48dmkLLOFKIpkuxXlqwe1ahtD1PC9hcZexuCsqc6jNU6LFU2CfJ0dLg+RpEKhFGtt5JVa0gMlT0OJAhTh9Zfb65FgJc1rA6Ytz77EYA+8lORnVwpbE71vLFqEsBKprjJRVtQpZzQZk2f9eHttX8pSzKbZlIc8GlV2LERNjs2QrFFTwbb1SQ9oTSS/paBI+/LHKodemuW9kmv6RRTqPFXEOi71T1HCxZUpV+AI9UmZOJM1gVqEnoHnRtfeM1hjGuHYWUWNQ/LU9l+9SVB7/rmAJV6iEM1SiM1SkM1RQcIbyuCQjyCvmhQo9/iJd3jxdMgbLdASKdIbL2EMF7P6cyipy+QtsBZz+As7B/IboHMzT6cutj8EcHYMGWeqjvFYEaRCmMW6SNH0FHBsir8hLCGw9aMQprXhLDShi91w9HO4CnUczuJ5foOPoIp3+Ah2BkqpYZD2So91dosNXwzQgam+ZvYNlWnxlWr3ijJG+6Xk6juawu7NYRW325DB78loVJEW2WosMrcDH1T/XbJYSBC+Q71Bkn7fAPmn+5s0rAhUSFTVeiFFzIImqLqq9QPYtsNdbZK9XCFXaeCxicyfoCkW5/5UIf/+xwoQ0jBO1XWIHRd6RlL+qEKjmPKpSVgq8CEXii5ddciqgaXvT6PYmTyN8U9oWST1OqhTVfwVK6KjXkHSwSg1SOfjpHBz/oMDjx+e5M7xA93Ce9uNVOoelCrwQ4W9Jgtf22YqsJVQqILGmZTpDZTrCJdrDRdrDBRzhPB2hHE6RZAfF1FCi11eg1yutkCu4AhXs/gLtwxXMwyWswQKdIolKM7itwKCQ5ybgK+D05ddFpy9P52BhBRSZ6gSqnvvydGwaBTp8guK6cIg06clvAkUcnvIKtHvKrIC7pIhPyG89dAwU6B3IceD5eVyHF5Cbi5Cn3V2gfaBIh6dGpxcsXtg7WOe2YJ3bA1X2DVaUd9sxUMB1JIdD2mN401i8WSw+zfMt3u/rRZvYKn1F9m0BWrwiAedpP5rFPJCk1R/FeSzCkY/SfH0Bcmk079GiTqKlElRF+MlRIUeZAmVKijQXqLOg1vr2lkO3L3leprZLCFK5LncmOcVFSuQpkUUSvkRVL9ZhbBre+xKOvLrIw8OLHAxn6AylsY/k6RzWVO/tSJ6SH6/iTHXydIYqikAdoSKOcEERZ4eEWUllp3AZl0icviL9gTr9oTrOwSLtviwd4SyO4TSyr6jCSmIUqfE6IRKTkipFstwCaCr6ZdKnX/LbDUnTkDw3M8oxhQ3R7ivQ7stvAqKyN0qdVz63ezcnhQpZdw8W6PYs0nF0gQ53mg53li5PgR5PGZe7TPtAiY4AtA1W2DNYUmQmoUHSfbNjIIvrSJrOgUWVS273pJdU/3WdVUrFz6nycVJCbi1okmxOSYwiNa4Hs1d6ua8DXSK2KI99it3uKPbgFI++muCNL4qMTekt3pXkqWVS1+pVKvUSlXpRyxKsSfi8JnlqFtGm5HltZ0DIU6BXl1Mhn+J8Vz66ChUKVMgqq4kEP2Rq8O05CP0jy2PBWe4LZTk4JGrSAvbhFM6hrLI/blfy7JYWH4o8K7iCFZyhMp1BUdvzdIZydIYyuMJ5+kaqtLuzuAYl7x4Fp0+6Z2ZxBubpDMbp8Cfp8KdXLbaxWgGODbepXHPJN98a2AezrAbbYAab72qRxeYT5DZAFqt3M5DPETukdIzMr4Rud9Rsj9KSdyPI9xJv9Tzmw0k6jqRwHJqj6/AifUdzOI9kMD83j8NXVPnkLQNp2o4uYj6SwnZ4gfbn53E8P4fj+SSO52dpP5zEfmQBm7y/AayHF9gQRxawbAaHFzAflt+wNkyHF2g5kmHP0QJ7Bha57fkoJs8kdwyOcuTVGJ/9WCdf1PLdZb2KBi8EKcqlki/FPCdafEVz+urWumvjjn/TUdtX8pQTILGeEmHb4DRSm5WFRMT8DHIhRCMYnYM3vyjxzLEU93qT/NFf4EBYbIcpHMNzOIfSWqjRNlTbtcpM4jDSUkS7AlWVKuoKlDQHkEiSoTTOUA5XuIxIUa4AdAXA5asq6eaAFCvxRenyncflPo/tudPYD53ZMtgOnWFTePY0tnVglfcOncH63Bmsh85gOXT6OiGfcQbLs2c3wBnMz2wWZzE/cyVMT5/hatD2zGlaD53m9md/xvyXnznwzAX6Hz1F/8Mn+eNjv3LgydN0PvoTrj+fwvnkL3Q++TOuJ36m6/GTdCv8RPfjP9Hz2E/06uh54me6n/hlXXQ98Qtdj8vnbA7dj//Meuh67CQu+Z7roPOxn7E9cRbTX8aw/PUC5id/xvHktxx4/FP+fOgEr7x+jkujNbIFTXuX7D8hUOFL9RCb6HIIaEPskrHD9hu3MXkaYqcYPBviGVTb9gplXW3P6gHx/zpTxPvWAo+Es9wldsHBiupF1D2cpnN4BqfYPzeZj/7vl07FpCAQ50+F7kCN7kCVbn9ZedddQSHPRaWOtwcLOEJVnGHo9EOnt0K/v8jBwDz7PRd4aOQcR/45xfDHcY59HPn34qMpRjaBxu818vHmjtnM5663z/BHUwx/OLkxZL+PIsv4UI7TMPThFFeD8EdTDLw3yuOvnuSpwS8Je7/nhcPfcOyZz3jl0AlePPIFoaOf4T/8L0JHPmHo8CcMH/6Ekedl/JTwkU8JHfmU4cOfcexvnzHy/GcMH/6coQ0QPvw54ec/2xBD8nl/2xhDz31K+NAn6yL43Gd4nv+aw0dP4h74Ce/Rb/Ad+hdDz77H68+/y4fHPuXMl+co58T0JqnTVbJUpEGOJiQJeYooqkufas0rkXT7kabxjbYxeYqCrnuM5CTKyRWoTZKZIJbPPHN1ODVbZeiTOI+/MM29oTIHA3W6feDyl+kZyeAcjuMMzenB7dfm1PktCVXCmMSe6VIOLfGkQ6+/Ru9gWfOqB7OaBB3OYA3msQ/VcQyBQyTPwRoH/HnucEd4wH+WwPtTfP7rAr9cTHD6wsTvC+cn+PX8+LbGqXNjCH49t/H3/OXCBN+cG+P1L77jleE3ef9vL/HNoZf57qnj/PTXEb47NMIXh4f49Dk/Xx4K8O2zfr59VsYgXx8KceK5EJ/9LcyXh4b55pkRvnl2hK+eHeaLQ0Mb49khvtgAXz4zxNdPh/lmA3z9VJivnwqtiy+eGuLjZ17knUN/58Pn3uSzQ2/wyZPH+OIvw3z71zAnng/x9QuvkBq/SKmSIk2OPHlFnyoNW9a1bg81lr2mzxtUtf3GbUueqt+JtNGQW5BBnnKCZZOuyeepM5GD935d5Ok3xrk7nOCOUJX+EDgHoWOwRPdwBtfQNK7Q/BZLnkYI0/WPInUKeTrD8lkVev11+gZr9PnK9A1K8eMG8gwXsA7XsIehPQg9gSp3DC5w18Al/vbKJT7+eYGxmTpTsUViseS2RDSWZFVEZ4lcM5JEoluB9b/DVGQGwWa+51RshrF4jK9+/YEPX3qZdx97hq8eepqfH3yKM/c+wc8PPMpPjzzC9w8/wE8PPcAvD97PqQceUPj5gYf48aGH+f7hR/jxwcf46YEn+OmBx/nxgUf58YFHtgQ/3f8nTt73J07euxV4hB/ueYTv7nmck/c+wem7H+fXOx7i3F1/4vxdD/Hdvfdx4omHiXzwOtXpM8AMsCDeCqjnoVLSKinL+hYz3e/A6LmtybNSFd+bHuRpSJ2iwkvYUh2k6dTJWA3/xxEeenGC/aFZukI11U5DPJiOgMR2pukOz9IdSm06pXJjKdMgzOXA9k1Xgl+lYryQpzMs5JlXTqO+wTr7fTX2e8v0+8QTL509F3AMZbCNlDAPV7GEoD0EvYESBz0JHguO8sanM5ydyDAzV2E6vsBsbG57Ij7HzFqIJZm+aswxHdsazMSWv9v632OW6dj6SMQSxOKjnB/9llP/fJmPH7yXz7pcnOrp5kKHg9MdZk53t3Gqay+nu/ZwxrWbc849nHfu5ZyzhdMuec/CKZeNU652TrnsnHJaOOU0bQl+7TRx2tG2JTjb3sZ56z5GLXuIWPYxtW8XsX27mba0ELO0cLp9Lz/eYePckYcon3wXcuegFpWikVJ/SSLoUcHa4ueQ/5vkee2itpzDcqWmFVRS5k+pLlBdKhSSKsLF2RrvnMzw5Ktj3PvCND3hFI5QhY5wjc4hVNC4U/UoStETzmyh5Pnbkmd/A3nu9xXp9UuYUgpHWMiziHmojCVYUZJnn3+ROwfGcL8e4buzBaaiKSKRJLHoDPFoYkuQiE6TiG2MeHR6c38vNk1cRyya4PowrX6r/N6tgXzeld8pGolzOSJTMdZFZIpI9DyzybOkfjnB94ee5JOudk51ORhvNzFq38OYYxeX2m9hrOMWxjr/h4mOW4i038pU+21Mtu9i3LGH0Y59XOho42JHK5ccexlt3701sN/OqHXXlmDcupOo6VZmTbew0HoriVv/Lwu3/4H5vbcys+d/uNR2K5f6LZx6wEXqLT+MnoD0hRUSaF0ZPMVcB7WaEpuunUD+DUduY8lT50k5k+psStUkKecvxaxgsQpfX6gy8HaUe8KT7A8ncYUz2IfKtA+VcQxJoHlRqcNSf1OcReumSOrpl5vaRy9rtxlps0dqhUqVJglFWkXqVCmXKotIQpLydAVK9A1W6fdVlOS5TJ6Lijyt4Swdxyu0h/LYfWn6vTEeGxrnvW8LXJisMBMXVX2aSCLO1PT2xGQihoGJRIzrQ5yJhCCxRZDPut7vpB0/mYgwHr1IIjlKfuIMkbdf57N7/8h33U4u2C2M2VuJtO9hzHILY+23KgKdaL+ViP1WorbbiFlvJ2rdw7i9hQuONi62tzJm38eEbY8G+14m7XuXX9v2ML4ZWHczbt3NmPV2xqy7NsS49XYMrLX/uGUXU6adxFp3Mt2yk+k9O5jZu5PpfbtI7NvFmGkP59rb+LHLysVnH6H0+VswPwrVWeU+qqtA+bIqVKe1ifs3sN91/ontS55i19QdcXW5C9ULqni/KPIS0XBxFt74Ms8TL8S4IyBqeYaOoTzWkSL2Ycm2yavX4sHukYZpqsiHFii/KYJcl0w3L3ka5e3WJc+leE4hzyJ9g6Kul9nvLSHk2ePP4Qpm6AxncAznaB/K0hFM0eGb4a7ABP53k3x3rspUtMBCPEFCFv9MlLHZ7YnRmSijM5EtgnxWbAshn7c1329sJsJEYpLY7BSLU6PMff8Vv3oH+PbgHZx1iPRpIWrZw5RpBxP2HYw5bmXSvoOodQcJy05mTLcz27aHKWsLF9tNXGpvY8LWQsS6bwlR2/LzKcteNoNJ8x4EE+bdTFhuZ3wDyD4T1t0Ka+0r+0yadjPZtodI6x6iLYK9CpGWfYy3tXLBbOIXu5XT9/6RuZEAnPkBynMq2LBKnqzKG5QY7jrVelPyvGZuV+U8hTwlDVaKHKugeM0hN1eBj34pMfDmAg8OJVU1JCFJIU/bSBb7iJCMFAPJIrni4lSRIHQtHGiTxTq2ijzl768jdUonzC5VzCOvpV8GCvT6hUCL9Pu0sccvQfDijc/RNZKn3Z/E6Y/SH5zgL69O8v7JAmcmqsRiGVKxGLPxONFEnEgisS0xFY+z9UgwFb9eGN8rxlT8+hGJR4knYsTjUeYmRlk8f5qZj9/npycf42RPF+c6bExa9hEx72LStpPx9h1M2XcQs+5g2ryTpOl25tr2ELXsY9QuUmcLU9Z9xCx7l9HwOmrew2YQMe1GMGW+nUnzLiYsO9fFpGUXk1Yda+67izHL7Vyy7GbUvIcx8x7GTYK9jLftZczUyiWTiTNWK7/29DDxxBPk3nkLFqahIgGHZbLU9VpLWrq1cMB2fmxbyVNT1XXyVKdWstmVaZmzc1I1aY5HR+a5W/oK+au4gjUcQ3nsx1K0jyzQMTKvBcYLefmhOyBN3qRC0r+XPNdS1dV2Ic6AEGNBVbiXKvdCkj1+Db2DBXoHRfIs0uUv0RXM0zOUw+lP0O07zwMvXGDk8xl+jsBYvKicRKlolGQkxrSyU86QiG1DyHeLbFckSETiW4LpSJyZWILEVIyZ8XFSk6Pkz53iYtjP93cd5CeHlQmbSRHelG2Xkjojth3ErbcxY97JXNsu5lt3Excisom6vo+oZa96LdsSFsHya9kWM+3eBG4n2nY7EdMupsy3bQzLbUQsOxXW2n/CchsXrbs4Y9/NWdtuztl2c8G6mwuWPVy07OWSuYVRk4mLJitnbJ2c7/sjMfcgnDsPuZxISKpZo2iVUjdZdS1ukuc13juUnVPrxCE2TmkbJVkJiTq8eyrHU68luDec4c5whW4/OIN1JXk6hDglo2hYbKCLSuLUyFOydraSPMUUIHbMa4NRSs4YtZJyQp45FZrUrcY83f6iFizvl6B58byn2B+MccB3kufevsBnl/JcTJaZEO96Yo75qRjTkxFmogmmY9PbE5EE09sScYTwpuXmsyWIk5gS8pxRBBqfmiA9OcrMpx/x/VNP8pmrgwvODsZtJkWMk7bdTNluJ2K9nZhlNwnzHqZNe5XkOW5rUSq7SJ4iiQpiAmvL0uuoeS+RTWDKJKYCUd1FbRfJc2NMWm9HsNa+YvO8aLuNs/YdnLft4KJ1B6MWwW0KY+bblRQqEuhFs42L7V1ceuhxsm+9CzNzkCup+hQqGlEvBLTNuZNtL3lKTrskHahMogr8MA1H34vywLEEB4IF+oJVlaYo5KnCfaTw8dAcrqEkXTp5CrkqyVPV5twqyfMayDNQUjZNgzCvHAt0BcXUsKhsnK6glJaTykhVugahRyRR7yz97gs8cvwUr3wzyanpPJdm5phKJJiJzzA3Nc30VIxETNTFbYpYlHh0myIWIb5ViMaITkkEwiLx6RQT8QTRyASpi+c498arfP7QA3zV0cE5ZyeX2q1MWNsYt7UqB5E4idRzWytjtjbG7G1qHLeJ3VPDpK2NSUW8+jZrK+ObwJilBQ37GLXu5ZJ1z7qQfUZtOtbcdzeXbLdyyfb/GLf+FxHTfxEz/RcR838xqfAHJk23MmnaxYSphUmTlXO9+xl7+hD88DPMSbiSpmlKhTTJym6S5zUKnurMVevK5inquoTTXsjCaydz/OmVCQ4OzarybUIskuftCtY1m2B4nu7wHN3hJN0hkTwlyLyu92XfSoeRkGdZxWVKQY/NQDzpSv0WFXw1CFEGtZhOp0rHzNEhtT0DNUWefb4CBzzTHDhyCv/745y4lODcTJKxGc0pkYjFmZuS2M4ZZWeLJSJsS8SniMVuBsSYmpwhOpUhMpNhNDnPxViE2dgUUz99x4+DJ6lD3gAAIABJREFUXt7tdHLS1cP59g4mLTbGbBYutZu54DBxzmHibIeJCyqsycSYzcSYXUKcNMjzsXbz0utRWxuXNgNrKxcVWrhobeGCbd+6uGhr4aJdw1r7XrTtYdR6C+PW/4+o+f8w0/p/SLb8HxJt/5uo+X8TMf9fpsz/xZTpD0TbdhFr2cc5m43TB+8i88rrMBGBYkVlEEoHXFHdJaR7Oz+2seQpsrsI8XVyNYgV4asIHH4/wd3HIvSFpYJQhc5AFWdQyLOiCn/0hOZZRlrzsqtCG1o9z62zeV4NeYrEuQZh6vbMbn9JqeiuYBpneI6O8IIKTZKydJ1C/oMoB9JB9zSPhEf550/z/Do9y4WZKSZmJRxmjISyd6aYjc8Tj8eJJaLbDuI8iW2VZLf0OVHiIs1uN0TjRCeniU3ME4nPMZGc5VJ8klh8jJnJ00y893c+l9AlZycX7XYSJjMRi0iZEpq0l7Odeznt3MNFh3jcNUzY9jJuX8ZE+76l12O2PWwGo9bdaJBQpc2EK93OuE3DWqFKsn3UupNLlp1MmnYws+9Wknv/h0TrfyvSHLf8F6O2/8eo9Q9MmncQa9nFBbMkAnQy+czT8PWXMBuHgpQL0ZqKNyXPa751SIqBMh+TrsKZmRqvfpfi4ZcnOTAyQ5eE7YRrdIRqOEM1XMqrLRXhF+gNpugLpugNSpdLUYWlWtFWe9s3R55rk6aQqVasuEucQiqPvYSQZ+fQLI6hOexDaezhoqr32OWDfm+ROwdihD7I8s1YkUvzccaTl4gmT5OYOUciFmVmKsNMbF4LQo/HFYkKkW4riEkhupWIE49uPyTE7jw1zczELNFogonpGGPT44zHzxFLnGbh5GeMB4/ytdPOJauF+ZZWEua9TNpu52LHLk67buOX7h1c6pDQJcFtRGy3MWnfuYSpdnE0aa8nbLexGYxbdyCYsN7KpOWWDTFlvRUDa+0/YdnBJcsezlvMjLeZmN7bQnLPHuItO5k038Il6/9wtv2/Odf+34xZ/odY6y2IHfSCw8zZu/Yz80KQ6pnvIZvQUjbV2hcO2L6PLZU85U6xdLdQaVZiuFjeKmJ4I9S+xtv6gTIY+8ipE3vndAk+PV/g0D8muGtokt6QOINyOIbqWjZRqIIrJL3VM/SGNPLsDS4q8pQq7SpMSZxFqieRUcHoOkZFyJuzeSryVF518ayvhFblvYBGniUVoiTk2SHkObyAfSiDPVzAGSjRO1jhTs8MD3nO8cUZOB8tEJmZYmZukpnZS8RiF0gk4kSj80Qi08Tjie1FmI0EftOQZ5zZ6DRzkRmmo3GmolNMTU8xnrjEePwsmfFTFL/5hM/+2MepznaiJhMRSwsRkSDbd3Guc6ci0FHHbcQsO4lbdxKxLROnIs0V5Lnz6sjTsoNJixDoeriFKcvmyHPMvJuL5jYm2lqJ79vH9N49RFt3MWHeoVT6C/Y/cMH2B8bNtxBr3aHiTC/aWjnpsvHzEw+w8K9/QFIC57XYTxGeRAbVIj51gjByZhpS4LWcJJ1rROeXthNCIvohBp8sf8LWEPKWk6d8UfWl1Q+QQE0N8sWN9HQhRFHI1b7yj5HHqv9meU/snBlgHvhuCoY/S/LYy5McDCfoCszTNVTEEarRHihpaZjhgpJGu8ML9IRE6jTIM6+qtK8bMrRG5s96x2jN2SR8aH0YjdnWG8WLLmFJ+xXBL9IeStJ5LINjpIAtIG2OF+n3zvDg4Hn++VWKUxfSxKILLMQjJCOTJCYnmI7FiM0kGJ9OMBGPEWskq//g85h8r5sUIl0nJiMkp6LMxRLMihofiTCViDCZjDAbucjMz98QffMVvrvrDk5ZzIzaTCQcJiZFtbbfzqXO3YyKymzeRdzRwqR9NxP22zUoVXoX47aVmLDtYsK6OsQrPm7ZqbB+fOdtSPjR6tjBhOVWRYJChBpuZcK0kwkVKL+bSOsuIm2iwt/GuFn2vZVxyy1MmG8latpJvHUX4217OGdp4VRXOz/cd4CLwcNUf/wUitNQlZWfo4RUmi9rniSdDSs1SZRRHcxUzyPpayaR4Ko6k/Q4ljRuFe+kkaTy4C9z6dYwJ2ydt13I0eDBJfKUFCHp/FSvqk1CmqKICzHKqMhTiFNYVV7o1ZLkPSFOuf+cz8I/fqny3FvT3DscoT84iyuQVkWBtfz1Kp1S9DicV+mZXeGUKgLSE1qkJ5hRTd60Fhdrp0euR5JrvaeFPRmtidceJXZzI3QH8vQO5ujzi6c9gyOUoj2UxnVcehOlcHkj3BUY48jrF/jh7AKT4zPMR2fJRaKkJmIkx6eZiSaJziS4ODvJWGKSqArO/s+r6zcrccrvFhtsIjLFbGSSuWiMuak4sYkok9EY4zPTypkXHztL8oev+P7pJ/mpv4fTDivjpn3MOMxMWLQUygn7PibbW1XRjXHbXibsexS0VMzdjNsug54NZGQFNY5rZQhduV1IdploDcJdHm9jzLKDMcutCuPmHcrWGWm7jam225gw7UC2CWnKPkKakbZbibbuUCmcUUnZbN3DBUsrpzptfNXj4Mcn7iP55ghMnYLiDNQWVeHJmohaIoTVatSqNcWLWgROnawqTin8Iu05xeEknSBlFK+TxpPCJ0vC2pZR5xaTp8GD6vvJCwOqqpxU59S648kPV7/LEEflhUClY8qpqijylKJVn0+C/18pHnlhioOBCH2BeYRsVKuKMLiGUC0rnFLWLZylW8KTQml6QhpxqjhMyTASj/h6mT5XKX1uJXlKYHzXYIZufwZnIIcjUKRDSFdUdn+SHs95Hjl+jte/nOZ8pKCkzvnoHOmpaRYmpklOzjIbmyU6E2d0doJxSQlskuc2kHglHGuK6dgkM2KPjsSJTUaZnIoxKWm08Siz0XFyl85w6ZURvv/TvXznsnPe1kLMYUKlXlp2M2nfx3hHKxfEuaMTpxDodiNPIUwhTk3aFGI1oJHnlE6e8dadxPbuZKJFUkPbONtu5uv2Nr462MWlgafgq/dhMQJlKZmss4WQZ7VKrVJTWrnQhQhh0mVTeEUq/CIlLKsC2VfinTSBTKcWXW7dOvbcMrVd7BJV9UMkM7WBOOUHKPIUUpTWGVIAVULepX+zaomp3RaWZGtpK5yXIlWMFuDlb0v85bUYd4cm2O+Pq1TMPrFx+jUve1dYyFOzeXZJpfiQVE8SVTenedpVHGhdq8y+TclT4jld/kUlUTv9RVUh3hWQzoqL9Awm+GPgNEfeOc+Xl3JMzJZJxBeZjSywMJFkbmKWZGSW2fgMsZkYE7PjTE03yXN7SLxRorFJYrFxFTuaEKeWXp0pEkmQiMZIxiPkomPMf/cZP7qf5os7nKpU3ah1H9P2NmYs4kDSPO6XOvYy1q5JnduSPJX0KVLnbYyZteB4LVBeU9unTLcqW+d02y4Se3cytXcXUYuEV5n40drKN112fv3T3Sy8FICxXyAv5ep0uVGkSoMQdV6Ud4qqZLpwj673CoHqUqriF0VGW0eYjZ+0peSpdVOX+0CDDr9EntIZT4hTBO0sNelgIncJubEYkFuEqppUZKYMn4/Dc2/Pcd/QFAf9MfYH5ukPFdk/LFXia3QOavGd0rpCbI9Sh1NVUFJ9ijQvu4r/lH4/QS2/fS01/Gq3azZPcUKtj41UdnnfGczRKY6iQBpnoIrLD13eCl3uJPu9o/z5lbO88d0EZ2cKRJI5YrEF4pPzzI4vMDs5x2xklul4gth0hEhygtisxHdKgHxTbf9Pkmg0FiUSn2QqPkZEYlvjcRLxGRJSLnBqmthUjHhkivnouKq6dP6dF/nq8Xv5xmnmnL2VmL2NpHmfsn+ed9zOeFfrNidPkTrF7rlzTfIUtX2mbRfTe3cS3bOTuGkf46YWztlM/OK0cepgN+NP/YnKh+I8ikCtADVpUyyquxY5L/Uuyv8/e+/hHkd9tX/zB77X8wvYsizJqqst6rLc6KElJHmSQEhCsSWtijElEAgkBAgtdIMxttW2l+mzq1633+91n9mR18I2DhZYPEG5vpnd2dnVzOD96NT7sHmm7Cis0WknPMX6vMLdrVbaE6DfA0R3DZ4M2d4IPB1wMqK55twUWpxXwBPYqhQQXQTOfLKGh16wcdeEjePjSzjK0bvjRRwReELg2S/zforO6F6O8BVwEmgs+2HPO1s3CdnyjbntNf3mbt/51bZ9Nf3oNwLI6x1DKbru0xvwBlfkXAdGgZ4/b+DESBb3DM/i2Q9S+Eq1kJhfgmovQtfnYSjLsJUNZPUVZIx5ia8ZouCTgkl4UpTiJ3jeUtddN3Votop0JinqSooIhWTkv1dW4X9DE6qqwdDTyOpRZGJfYe65U/hXTwdCAwEkPS0wmxuc7Hs/NT0bkQwwYbQ3Y55pz/XhyQ4jvf0ArNZ62E0HYHK1NCF1qAEJTyuiAQ/men2YO9YP7ZkngPgckKNIMr1UWpQODGUMebEiAKWh5iyi8/L/titFCU33oF0G6C7DkzFNx4AW0tecNP82FJETl5zafdJwyb8qDO4SnrTBq+GKzFoen0S28PjrGdxzZgnHJ1ZwdHxDANkfLGFwwpkcyemRg2MVDI4VRVH9MBWJxjijiPDkCN+ywKhH4FnZs/DsntiEb2Id3gnOFS+j7xng2MkcTjyVxBMvxfHelIUo5eUy/DLaMMx5WMYabD2PjLkuiuaGTmCmYdhJmLYqHUY/wfPWZvoFnlkN6fkUUraClKlBM9jXP48FZRG2loUu2qs6FCMG245A/+RNfPnrB/AJldk726C3NEIPtCA90Io5737JwO9ZeHYQnmy/pOV5sNrXzv52x2134FkHo4UCyQeQbWlApqURamM90i2NSHQ0I+JtRbinE7GH78fm+/8CTN0pnOeYjmIBlKeUVAorcxgOrAKxInYnQ4PkDJdT5CQcqnq/u2197ho8eQ30urezWrSt3VWt1eLr4pnzTwHLD2iOy02pNrCXgJVNYFop4YWPlvDg8zbuPLOJIxMcT7ElA936xirbY3cHxjmGoozDwTyGxrYwxKw1VYkEngWBZ88E0M2ZRuPlqmvP+szrrFtgeXaP5+AZ24LvdAmBU3n0PVXA/WNrePBUCK9+ZONSagnKvArFSksW3bKysKxVWGYOlrkK08zCYHeNqcC0ks72J8vzllqdDBcQnqp0gKWQthWkDQ2aZohQiMDTWIRuLUDN2AJXNRPHwtw5KK88i/cPd2G614e0txXpQDNSXU2IdR5ASsqU9qjl2cFMuwPPlOcgkiIK4sDTzbgz7qm37EemtR4LHU3ItDZAP1QvYztSbY2IdxwS3dLQsUFoo8PIfXUemM8C+S1ZpTInbjq5IKZMtsvIRf+T1mdZwEl4OjU+Vctzl61ORiZ3FZ4EvANHfjQv0S1KcuKgbk6IF+2Y0iwv2JR4BjsxWV2gLwPvXqzgsVcyOD4+j+PPl9E/UUD3aAE97PGWkbsVEQNhz/rhYBFDwRyOBDcxNLYhi4XxdNt7J0oCzi7Ck7ONbiRhdEvgybEazlyi7pE8Dj+zjgdGTTz9UgJnZ1aQtldgZZPQjBgMAaQN01qCbqxDM5agm1mYlgXb0mCbKViGUhUF+SnmeUtjnqaOtJlC0k5AsdOgvqcutZ+skODMpSVo1hJSdhbJrIlkJo2F9BwWzr6Prx77Jb4+1o9YTyfi7Bv3UOuzsVrnubfhybinwNPjlDPR8iQ8WQ+qdOyH1rYfmfZ6ZDsaYDbXwWqpl7pPld1I7Y1QfS2Y6+7E7EMPYun1N4BEAthaBwqbKFWYcnYGdrCU80oPl2nrywB1svA1cc/abM8uPN5VeAoTtwlfC0/+HahJqrMJQFx6ps025Qk1AVaKwEUdmPx3BfdO2BgMruDIc7QaiwgQnuMVDD7LeeUUAymhn6OFg1sYCm7iSHADR4LrGBpbl7gnEzm9EwV0TZYQmKygZ8JJKn1bgudq8c2d+yTe+V1jnnxfdfWOsXtoC93jRRDwnaNlKVe6c8TEQyMzePPzeYSSazAzK8hmGBtLwmD21jSgmTYUYx6KkYFmZmDaNmzbQMZMwzLotv+UMLqV4BTL09CR1pNImXFoFr0CtqSakiyy1XmY+iJUcxEpIwPFtqFlDMyrMSxMfwnrrVfx+QMncGHQj1kqGrXVI9PdBtUdwSHjNnbUd9bUe9bWdtY+/mY957WU5L9LnWe9FMer7U7SKEV4sruoCk+OG0l79kPt2A+D/e3tB6AcugNGWz1MD/VFWVR/UBJk0x2HcHFwEMbTw8DZs8DyPFBkuK8g5UmbrNcR07NqhtJqk+dOrJAWKOFJ65N7trG0C9B0P2LX4CkfKPSsnmklD1RoeTpGNq1SPpJVlZwqFEoo5NbE4uTI5jRVk84BD/+FLviaQIbiH93jJXSNl2TLx9zXJ/JuWzKiYii4BmetYii4KnqYfeOb6J7YQmAyD99kAV1UJxrPbYPLBdhNbW+gAL42UeTAchO9Y87qCW6iJ7iB7iD/MADdlM47ZeGe0Rk8/bc5zKoFaNaqyJplWRCfzcCmGIapifuuyIwiqsXb0E0blmkgY6iwTR7zw8PzVsNq7/1+HbqpQrdS8kePwi0UWuagPINNDfoCVGMRqrEA05qHTg1RJYkVJYpc+Gt8/sSj+PBYN74OtEHtaEbG1yYCId8oiq+FJpNJBKxbKP8tIzauDdP/HJ5qR720YzqdRQQou4suF9LT+nQtUELUkaijTJ1TYM9tquMAkh0HEOlsQqi3B7PH74V9+llAiQP5VfFm15AH4SkhQmrXES7i1roqyox3OvAsSCnTdsmny71d2e4ePAlOF54Cf5YWEKC8Mufka+GZZweV1H86MQzWdX4YAf745iaOnaFCUlEg6YKza6IkkzG76MLTJadrPsYk0joOBx1oEpwOPNfQN76O7okNBCa34JdWTpYEfXu3Ty3sduOxC8qrboNVkAaL6BkBBoMVHBtO4jcvXsRbXxtIWGswzAwyegaLahYLuo2M6HRqksVVsgpUJpEsS+DJBJHNrhY55id43nqYUkFKhWmkYbFYXtNFbNnQbWj0GAzOmWf1xAIsbR5Wmi2cOhYtBQvRi1De/Rs+evQefNHng+H3QWtrltlFkjC6Ucvzh4Rne73TPdR2cLtYnn3tDkAdC9SxQvc7Q+862dpZbd2sbpOeOiQ8+xHzNCDU0Y543xGkH3sMa++/BWwtAfklbGJLKsZzZAuZ48KT88gJFcetlVlI+erMs+1czK5g0/mQ3YMnP+8KeF7ZoL99fdW4aK5YRlEu0pGcSywBZz5cwgMvzqN3soheutpVK9Nxax3rkRJttCh7x9lltI6BsTWBJwHqrgG2b3Jg2sQ6uibXEThNXUzOCPrh4elal9xeCVDHZac1SnWlgVM5HDm5igcno5h4bw6X9BWo84vgMLesnsWiwprOrCjEi+Vpp6Fkk5KQ0GzOLHLEQKjpyXUrMu23Hla3Nrv+zet3BJ8tXYOta8gQnjrPkbOSLAEoy85MbR4ZJYsF6RSzYNkaFow4lkLncOHZZ3Du3uOI+QNItrVC9bdBCTgtmrUdRo60nCMxx0mXt8LyZGeR3nZQlttptG19igXqWKEEaMJbJ+68PObzmhX37Eei4yCirYeQ9AYQvuduKGOngFQI2JhHRezOvGTWJWNEuEg2ugpPWqNS++nERl3/lzbdbv7sMjyr6S+eJS+IS6xQRxnaTRjJtZYLKFVK8kdifgP49/QG/vi6geOns/BNch4RBJ69Y3RpCyIKTHB2TW6ia3JDwOjCc3DsMjgJUAeeq+idWEX35Cq6Tq+ie2K9CtzdAagbr/y2rQNPuuffhKdr2XJm0dFnVnHnUyb+/GoC70wnEZ2fhz5vIEPlJC2D+dQa5pVlsUKpianbKajZKNRMCpptCDxppZoihHxrVJW+CY+9BrMf9nxMw5AuooxmCDgzmiaaq8zCc/Qyy5Y4a57xz0VlAcvpRVi6DcU2ML9oYF6ZQ/KTNzHzxO8w5e9BtMODtL9jD8PzANjb7q5tgHqq7nvVhSco495rLL7m2Y8ky55aG6G2tmKurxuhXz+ClXc4MM4ESusSEpSCJI6aYKzThSezziJD72gxkTkMCdLr3dvwpOkp5UlVeaQqOLmbD3l9BKdzKQz+bqJcWIVmL+PFf03jdy/O4cRpHYFJzlwvo5dD28YKIsnWM+5YnC486ZL3TqxXrc91DNKFD3LRGnUENnonOK6XAF0R2DrW6m7BcycM/9Pnly3PodFl3PmMjkeGY3j5QxMXtQWEDV3ky7LzdPUsZFJLWGBBvM4aTwodK9AycWgCT03mtDPuqXNuOyF6CyTpfoLnlXB24GlKTztnIjHmSSFo3aSyEls3OWjOQkbNYMlwusUoJ5jO2jDmDRjpMJaiF5H+y3M4d/QELvj9iHV11BTJX04Y0fLkLHbGQ9NcP3jMk/3rbuzS6W+nJeouWqBXuvB046+yqm57in3w7Q1SwjTra8f0nUOIPfUHIDINrMwD+XUpdSzXdB4JRAlON5FU5Q3BSfbQHt3Nn921PF2/XToBakoEqvAkOJ2GKlczaR6lTQ2xZAynX/sQv3n2C9w5kRTrkrWPHFVBhXVmuwk+duLQ6uQiPHsIULrv1QmUMiAtuCXCIYyH0jKl9dkzuSKgvRXwlIRUNVywM2EkbjytzpEM7nt6DiN/jePT2RUk5tcQUtJIGSlkFziPyIKtLGDBXEFGW4DN9j4qsttJsUA1W4FmM/Zpi2I5S5eMn+B5y+s8+cdEBJGpr0o5OmnX1KRVk+2aVF0Sq1S1sGgvQ0tnkNIzUBaXEE4nYWhJrOkJzH/0Aab/8AQ+7umWvvdrJ4yqfe+3IGHkJIMOSHadMU52GxGYhKdrgfKx48azhGnHEuvUsVBTHXVIt++H2uaoMEU8TbjU7cH0z+/G6mt/BVIJYGMNKLB1k1oaTkZdwOh47A4pq7Sk4bbb4OTv2mV4ulx37Uzyno+dk3ce8e/AMlAxAWjAZgjJ5Nd486PP8PhzH4oIBi1GlhRx5C5H7xKKFM8gLLsFnoToJromNkGLlK5931hBSpcGggVn4iSBSsENjrWYYNsjrVTGSX9Yy/N68HTjocdGdDwavIj3ztoIqVtIZVaRtm2kDQU2XXeWIelZ6UzJaIuwmWCg1SLqSWnorCG0KbRrQ7E48uEneO4NK5iZdY4yzkA3LLE2FYteggrdVCSJJHFQZuCNLBR9Hil7QWYdRTUNtm1iRVewNjsF9e+v4ZN778SlPu83Jegk214Fp/8QFGbcf2DLk/B03XFalCxRcto1HXgSoC5EXYCylMldLmgVli+11UFtIzzvgN6xD8nOBoS8rbjU34PUY78Hzn7hFM5zZEeF/URlVz6k6tnWAKcWpi6edmm7q/DkeTqA5P8z0uC45gzb8m+DQ39GIZaAsgoUZlFe/ghq8t/4auYLTLzxMR5+dlqEjKVjaHQLRzgxMsgOI1qZjsUZmNyULDrLkLrHWTxPMY0y+oOsk+TiOGKqtm+KPmbfBKdR3jp4XtXiZLmSlCpt4u4xFRNvJDAdW0TK3ETaXIOeXZEsumEb8iWy2KeusrVvCRltSaxPZtZNS4VhM+6pQKUQsrUE1aLr/sMrye8NYF3pOt/aczLBzDrjmkwQpWwdKVt1aj6NFGxdQVZTJS6a0iknuIB4dhFhex5qdhG2YWFZVbGejCPz1VmERp/CxaEuKUW6lvUpZUq3yPJkHDPqq9seOywWaNXyZPmS1uYs1oFyKSKW7NR28jljpRQO0VsPSCG91sGJmz8TQWaOXp7yehC++15sPP8yMBsC1um6FyRxtMZZZ9XMuhMarMKIT7iIpF02P3cNngJOllmJi85nrMlaRAXLqGDVqbbibkpGlReBUgpY/RQb+gvQ4q8gkvgIb35+Fn/46yyOBZdwZHQdR0fo0m5haHRT4pm0Ppk1Z/kRwemfLKJrvIyeMaA3SKUlyKA0B6C0QOnCM/7J7PutgSddczdpdGW2/XKM9Oen0/jg0gJSqgXNXIFqbEIzV2FkWETNIW4aTBZZ65wpvoSM6rjvGZ21nZq475qdgmLzC7r8Ezz3jHI9XXUbupFF2rIQzxpIZFWoFpX/k8joKRFKZhw0bpmYW5hHKDuPkDUPLbsMW7WwlNaxxEkBiTnM//tNXLyzH2m/m22/MubpZNybJPb5Q1uetDpj3jqE/XWIcASxlzWdtD4djU+C05DVILWgHM/hqM1TcZ77+Ho9zNZ6WC0cELcfuud2pDz/H9Lt+6B1NCHW0YGZrj7ov3kC5Q8+BhYXJe5JxYwllLGCiugA07eVH0KTzi/tNT7e0/CsniOr+h1rc0uk58oiQbdVLVddBcoGsHkJFfMlbER/hYXoYzASY5ieew0vv/MJfj0ZxYlTaQwFl9AvMc0N9Aa52CUE6W3vGcuhZ2IVveN5gWdPENK+ycy8E9tcFWjSYnWsUKez59uy4zfyurjitGxH8+gNskNovbo20E1YUqw5SI3ODfQEV9EzRrm5TXRxZIiEF7YwOLqGoyMm7p9QMPJPBXPqJlSd9ZoL0M1lqHoWVmYemsHEAuGpwaKArj4vbru48YYjqEuw6hYtGrqG89CszE+W5x4BKN11AlQ1TaRsA2nKBpqqtNBK7afOEcy6/OGL2zbilo2kRUs1I9qfWYVD/RRktBS25i4i9NTvcfFIN6a7OIqYc95bEfc1IeZrQNx3UBYV4DVPE/SOQ1A7DiHtOQRFVhPSHnYUNSDhO4ikl+M43GL4b25rx3RcVpB3Rng47rarFu9s6a7HvAcQ9zqJoCtdd1qWVy7XAhWrs43dSbQ868Xy1Fv3Q2u/A0r7/0Oq7Q6k2usR97bioqcdoeMnkD09CYSoOM/8SQ4bKEvbJvWFhJG0NFn3Wa353HVy7mbMkyfM82UjJmeM8Jy5j+UE1PF0pOhYCp8BSgnAegfF2B9QDg0gFzmM5dg9sOJ/xPnzb+HM3y7ivlOKruZSAAAgAElEQVQXMDBhIvDsJvxj6/CPrEsh+ZExYGiUepe0KjOi4Umrk9YnC+gDk+voPr2E3tM2+iYWJHk0OEqXviCgu5b195/s7wtyaFsBg8MMF2yha4KD2lYRmFhHgImtsQ30B7nW0BtcRu/EstSm+sbYHVUWdaihUwu4+5k5PPXSDM7HNpAyVgR4hknVJMKPW6s6i4gF79Wid8NyJmNyK5Jz3K9Lyyb1Ip33uK99f/WeN+sO76xDvdHP+67vu9HP/36OowXKllou/jFk1v3yqGT+Tr5GwHJpJo83JeFFwWSTilmaipVkFJvnPsEXv3oAn3f7kfD5kQ50ItzZiLD/IKKBesQCnIp5EEZ7I6zWQ9Dbm6F2tEiHEkGqeFgLehAx/wEkfPVVgFaBWJ1t5IJyG54e9qpfjk/WPnYTQ24ckyLIXO4xta+7mXdJIjGZxHEd7QdkObFOxjudxWSR1roPeus+KO2ctHkAYU+9tKpO9XRi5pH7sPj6y8CyDRTWHDWlclkkgsXKpMW5WUSxzF54mYS0HTh0DdOb3e6a284TcbJeTn1VVXpPgrlUjXdk6JYBqMD6l4D6AirRR4CwF4j4sRnpx3L8EUQvPYe333kfjz33GQaCYQSeXXGSQ7TaRoCBYWBwGBgYofxcxmnFpDDyWBmsA+W43q7Ti+g+nUHfxKK47of5vtHirsJzYKSAw8NlcAJm1wRHBHNw2xoCTGIx1hrkckqmesaXERjbhH+8jK7RnMwqGnpSxW9Oh/GPj9OIquvS47wTDHv5+c1ARtcpkOGs7/o57vu5/a6f8WN5n3utC+kktqIziLw4gXP33Y0prx/RgBdznY1I9FBt/iBigTpo/kYYVGtvc+CpdLRC6WgR6zPd6cAz7q9DwscRxNcHp9J5EGkPF0uNrrJ2liNJSdJVjnPfW824uyB14blzS4hqjH+21UFprwM7j6KeOkS8DZj1N2P6rkGow38GLn4BbC47mp8U+qTs5ybVkh2XvVApYBVbyIlQ3e767bsKz1qSO9rOFCd1+kxFsLOyChTigPV3lON/AsL3OPAMdyM3dwRrkUehhYL46txfceatD3Ai+BX6xjPolwL3EnpGK+g+BfSOVMQVHxxblg4jp5RpS0qY/KfXnaL4SVp8nAuUx+GRMgZGd8/ypKsulucILU/OG+LQtlV0ieXpuO48RtaE49Z3Vd32PoqXDGdw96kkgm/oOBfZQNrOQTMXb0lX0HcF9M2Ax4WBu935WTvPaefr7vvc7c7X/689d69zXk0hl45i8bP3EXryCXwx0IevfO0I+VuQ7mkRV5zz0RXfQaieg9A6GgWYKU8Lkp3NSHgPIeHlULmDMrc95a3fnqTpWpvu1rU6bxU8CVM3855uc0qXEm1s52xArPMQpmRkx/0wX34OsHUgt1GdmknxefZ+O65woUQhkVx1ztFehif9di4BJkduUEKq5GjusZg1twKsXEQhOYZS+AEgNASEvMBcH/LTd2Ij9CvMx/6ERPgk3jn7T/zq+c9xbFzDICdI0roMFuEf3kDX6IbMYB8Q13gV/WPL6B1frrrPG2L9SRkT5eXoXo+UtuOT/4l7fs1jWTo1mkf/CGcp5dAzxpjnmsQ9uyT+uYXusbwsiXNOsEuKs4kombeEYydT+O0LGl4/u4o5rQzF3pL6zJ3Q2MvPvy9AXeuav6/f92P4XBeeGTWN1XQMm6EL0P72F5x7+H585G9HqJuF881iRSbZncNxwALGBiQ5gbOzGXFvMyL+Q4j6CM8GqCxol9HCe9PyJDxT7QeQbK8D4Uk3XmnZ5xTOe5owG2jHhSP9mH38t8if+xxYnAdyOZnPUSlWUKZ4hrS5c9rmtjRyrX130493z/Ik1El7ZrUEnhsoYM3RPqEPX1gFVtKA8S4K4cdRmTsq0MScD5jtR2HqTuTmHsFa/JfIJn+BC9PPY+KfH+CR03M4Pmxg4BTd7hz8wSX4xxfRO8GYIgWSCc9F9I0voXt8Ff6JDfippsSOJNZ/jpYwOFwWiIolWFU0uiYYb+R1sSpz6AvmJebJxFDv2LosAekYf38BgbES/EGORgYGJvLoH17A0WEFPw+G8Oy7GXwWLiBqFJE216GZ8/81lue1AMn914LZd3nPtT7rx7bfhaelKsimYthIRbH45ceYnngG7x3txQVqfnpbpLNIZY1lx34kvfXVBFIj4t4mRPxNCAWaEPY7CSODyRu64zvinHvF8iQ4E+0HEK9aoCZd+EP7ZISH2d6IWGcLprq8uHjvndCffxaIhoDVZaDAkR1l5PIFFMoVx3ATXXax6m4amLUfsPvwJEAFnusouiVKpOqWDdgXUY6/iMrcw8BcNzDbBcz6gZkBlKfuQnH258jFjmEt1Y1U5E/44PN38PTLX+P+4SQGnypI9jpwOgvvaVt61nsFXuxlX0D/2EIVnpvwM/Y5XkAX6z9HKxIj7d/FmCfB2zO2JauPsc3RTQyMOtl1jg7uHuPvL8I3XoE36CjZH57I4fApE0f+PIU//GUO711cxqxeQtzYQspYdgSN98DMoetBqva1mwHQ9T7HBcXO7c7fd73P2Hnsj/25ey+YNDJSCSwbCtaSIcQ//Cc+/t8H8WmXB9HOVii+FpjeBqQ7DyDuO4Covx5RJpL8DQgFGjDT3YhQwNHvtNsaxIpTmAy6CkBvtdtOeMY76hGtJpYybfWwmvbBbtqPTAuTTU0ypmTqcB9C//soNt9/BzBVoJSTKRW5chEbZUc7Q4w6cml3vfZd7DDiibl1VVLr6ZQpcSy9dBSthwDtbRTnngLm7gVmA86aCQDT/ahMH0Np7jgKkS7k4oeQjf0Skbm/49W3P8HvJmdx4ulVDIwuouvZDHxnMuiaXEUP4Tm6jgGWNI0toWfcSdjQ8vRNbKFLLE9g8BTQP1ISy/WmLE5Xh3NsU0qPusdZPkVwbmFwxAEok0SEp2+iBO844BsDAkGI3uhdwwpOPPEp/vJ+CpeSK0hm8khZTBZRDZ4tl99fdny3P3s3geTC4Ua3u/m7fwyftX1fNA1aOo0Fy8CylYYS+hJTL4zi3T4/pvwdiPtaoXsaoXhZslSPSIDwdAAaDjRgtqsB4UAjmDSy2xqr8GSJ0jcBeqvhSWGQROdBRD1OQX227SCsxjtgHPyZQFRtqUeivQmhbi9m7z4OfeQkMHXe0fwsbkjVD8uXpFKJ4PxRwJNZLtEnpYoza/7nUSpGUV58D6VUEMWZXwDTx4CZHmCmG5juBmZ6gdAAyqFelELtKIcbsB69B5n4JM6efQuTf/saD49lMTRiovu0Dd+ZBQSomBSk67yJQQHomrjNAXHb1+GjmhJbMWl5CjwruwvPccZW1wWegyM5HB5h7SZrStfQPbYF74QzVsM/DgRGgCPDC3h4LIk/vziNT6czSBhZqBkWtC9DtxalNGm3Afd9ft7NQGcbBjsy5d92vrW/81qfUXvM/5XHtdeqqSxxYklaGillBspn7+CL3zyM8wPdmKVYcjtrORuQ8NZLOVLMz+1lgEZ9jUh7mmC0N0lCKS11nnsPnqzrZFtmlMryVNEnPJv2Q2/4GYxDt0NtqUOqtR7RzhaE+rsRe+gBrP3zNcBMCUBZIEn6iDpdNfO+9y1PnqhTMSDwLCGFXO5T5DJnUIw/ivLMCWBqAJjqBaZ7HXDShY92oRLxAHPNwFwDSpEhbCQeQ3L6BfzzvU/w2HNJHB9JoHvMhP/0CgJMzBCeozkQXrT+6DKz5jIwuQL/6UV53MfRFrsOzw0wMcTSJP5O/v6hYQJ0Q4rfCc/OiSI6JyrwjwHdI5yGaeK3p6N481MLEWVBZqzrlgnVyIjVeSvaKb8NVtd7fbfA5P4OW8aI2MhkMldd7uvu8bv1+38Mn3MZniZ0CofoFhJGGvFMHPOJS0i+cgZn7z6Ci91eKJ42pDqcciTWcdJ9Z02nU0DfAHYhEZ5ateZzb8OzEVGO9GglPBtgtdRBa7odWssdUgOqtuxHqr0RUU8rYocHoD7zR2x+9TGQX0YJW9KaIykYMqlq1NXGLG/28e7GPHmmVXiyRKmELAqV81hfexkb+uPIx46jMktw9jsAnekD5nqAcACIdaISbQfmPMCMDwgdQSH6ILKRp3D+/Bs4/cbneGDsKwyOaDL3hy67zDIaLWJgJF+FJ0uGltA1uYTA5CK6xlmkXkT/MCRxtFsJIxbBE55+KjZRBm8kj6GRvLjutIIpuuyfzMM7npcRG72nNnDfqILgaylcjG1AsxaQ4YhgjmgwTGi6U9zuguFWb68FlJ3nxePcL/bO97j7ueVrfK/FIXW2jYWFBSwuLmJpaQkrKytYXV3F2toa1tfXr7t4DI/le/hefgY/i5/Jz+bvqD2nnedQ+5p7Tu418fleWrXnfvmxIyCiqjYSmoK4ncKCEcPy15/i4pO/x5dH+hD2tCHpbUWyk4LIB5HyHZRieLrhuqcBmowGZtyzGWnvoWqH0TctT7ryTn3ndWo8a5STXMUkFstftR50Z52nFMhfLpLfWedJyzPV0YB4mwNPtnay7z3NbqOOfdKyqbTtE6s00dKAuL8T4Qfugf3K80AmDZQ5rMMZPCnhRLJpz8c8q4QvSVlqEpuFt7G89CesKvcgH/UDISaICM8h2VZC3ShHvChFW1GOtgBzXcClI8DMUZRDQ1iPPYR09DTe+ex1PPHiRzhxSpXOnv6RCnpHCcWylAyxKJ3lSt2TWXRNLqBrclESSMzQM+Pet4sdRt+EZwFDI+w4ckIIfYy3nt6Cf2wNPSOrGDy5gN8+r+PNzxaQMvOwMxayVhgZKwXLojXBscF7I975bQDZeZ48/vKX+8rCdx5LqNGaJOSWl5cFfltbW8jn8ygWiyhLUOqbNkCFo2Rlruw3X+N7+F5+Bj/Lhen8/LyAlL/XvQ6em8ZYoaZtnydfu9p1uO/ZC9ud95TPDc2EpWdhqFmkNB1RMw3diGNdiyD19qs499B9uNDZgbjfg1RHE7ROxj8bpKZT76jHfFsD7NYGpNsbEfe1IOVvFtd4Z8zzGx1CLviutv0uRfLVrqKdwLzyOcF6EKm2Bigc69HG545QctS7DwkPO4/2QWutg958EOmWJswd7kXyyceQ+/IjYGtBrM/LgkTf/Hd0s3t23/KUbDs19rIolL7C+toZLNkPYTU1iEK0w6nrpMU5fVhKlcrhAErRTpSibSjT8pztBy7eI3HRymwvyqm7YMV+i/OXnsFL77yDB0/N4djTGxg6VUbfCNA3UpaaSxaf944vomcig54JgnNN2iTZ7cOkjqwbKUO6gWP4mc58JJYnbUn30sBwHn2nNtA/soZ+li2JVTqP3mc03DduYezNLL6YXYOZ3ZQRwfPmHLJWEtmMKYPbdn6Zb9Xzq4HDPRcXRNxyH8HIxfeoqiqLkOJrBCYtQ1qKGxsbAjoXlKVSCVx8fi1AXg+efI3vdT+Hz/mYMOXvIkwJa56De26Kosj58bl73jzPndfEfVe7Bz/0Pp7XziXw1DLIcN67mUHS1KAZKSxn0jC//hTh0Wdw6egQLnjapJSH/eyMf7K1kVbbQstBzLc0QKXIRqAFyUCz1HzuVXgSmkpbA9K0PtvrkeBgOG8dQr59iHXuEwuUY4yt5nqojfUId3Ui/NA9UM6MAnoMKKxI5v1mIXmt938/8KzwpMPIbbyBZfsxLCpDWI0FUAgTnj5grheYHQCtzmLUi2K0E8WoB+UIrdKjwMUHgKkTqEx3AckBLCdOQEk+gM/Pv46nzkzhvj9ncefJPA4Pu1l0ytWxUH4evRM2esdWwDImce1lENwyeqjrSVm7G4Djtx0j8Bx3RJk5kbM/WEQf4TnMsiUOpVvF4PgiBkc1HH0mgsf/auGtc+uI6Xlk5tdgG2lk9DlkzQTmOS7Y2jsAvRokCBQXKrWw2Xmsa2ESXoRYLpfbti6vBclr/cO8Hjyv9x7XKuXvZhiA1m4tSGvPeee11F5n7XG34vFOcPK5oRnQUyayoufK2KcORUvDzqiYT4dhv/NPhH7za3zS2YE5XweSnS1IdTZJn7nRegCLh+qx0OyIhkS6WhD3c0bQN7Pte8PyZI97vVicdOETLFvqrEfIdwCz/jpEvRzVsU+k6+zmOmRbGxDzNONSnw/Tv3kImXf/DizojuJ8yR3Csbt+++7Ck3WojC1QNSn/CTYXxrCk3I/luB8bdM3Zxx4KOHHOuT7Q6iQ0BZ4RH8phJpBOAJceAqbuRGU6gEq0E7mUH0taAJHZCfzzX9P47UkV9z+zgiPscZd57mvonlhE73jWaedkT/kI0DvKccWr6JrMoHtiWSzRbwPjjbxOeHZJVxGhTWWlAnqG2c2Uw+AYxyYv48ioiWPDMTwyGcFz72fwVXQLRjYHO8MxGilk9DAyRgJZU0XGMvaM9Xk9UBAurqVJC5PWJr/UbhyTsCK0CoXCFZalC0J3ey34fdf97ufWbl3LlOfigtSNj/Kcee68Bl4vr8n943C96/8hX7sWPLWUDlul4pIFTdGR1lSkzDQyVhorl84jfXoSn9H6DHgR8TL+2QzF2wirvaEKT7ZuNiEcOISYj4mlvQlPtmaqbc4SRSXPQYQ7D2LWV48Zv2OBOvDcB+vQPiy2NYiLP+M5hIt3HUZk5E9AfAZYW3DmvVMKc5eDnrsHT56YaHVuiMgxVv+GTe33WIsdw1bEh0I4IJZmZa4HlVAvyqEelCJ+FKMdAk8+ZqlSZfYoMH0vMHMMlZlulOY8KCU6sZVugxH6I6bOf4bJFy/iF8MxHD3ljB52+sppeS5hYGzJqbusWqWEZ+B0Bl27CE8Ctju47oQFxnPoojjIaA794wUMjucxNDqPoyeTuOfkFEb+kcQHFxYQ0TZhZldFJckyVGTF+kyLIG7G1Pc0PMXqqYkTEiLuPlqbtO5oaRJUV3PFa6HGx7v9c73P52s8J54bz5Hn6rrz7jXUWpzuvh8SlFf7XTyPbyxNh85SJc2EoZowFYotm0gqKUk+riejyH7wLi794Xf4bKAHF/ztCPtaoPgOwew8hEzrQVgsMPc0giVLsU5m3/cmPBn/dBSW6mSOe8xzEJFOB6CEaJxK9e1UXtoPo/kOycSn2+oRbm/A1z0ezP76Qaz/6x+Aynnva45wCOer7eLPLsKTZOdJGsDGR6hkhpGL/xyF0ICTJAr1AnODKM/2oxzqQyncjVLEh2K0HaVIp1ihhGpl7jDKs8dRmRuSmGiF7ZuMh8bqsRJ6EGboNXzw/sd4bOJLHBu2xD2mohEl4XrG1qTm8/BwAUOnqLzkWJ7+3YYnFeBHnQJ56or6gkwO5dA7UUTfmNNJdOfTYfxy9ALePGthNrkgCu8cD6xqKmyLCSPOYOdwN0W2lis5d4sTR1f7Irv73C8znxNAjGm61ua1Ypi1YLvWv9v/BKjXO9b9XTt/D/e7lqhrhfLcayG6V6C5816799zdmtUEo6HqyKo2smYWyZQCRVVkZMdyaBrpv72Ej+89gc97vLjka0XK1wydiwPVmLFmHSg1Pa9SHM/4515x2wlHLsY66bKzYJ7z3BOsGGB7aStV5+ugt+yDcuhnMr4j2X4QFzuaELr7KFJ/fhw495ljfRY2AU7a3MWfXYQnpyPbQH4alcXXUEw/hmLoLicBxDbMuQFgdgjlmQGUQgMoRnrF8ixHOqS+s1J16Z1CeRbMDwCRASDKcqZOYLYF+dDdWIo8jfD0Gwi++h7uHo9icNKUgnjvBIU38hgkOIeLOHKqJCVETBz5Ti9KUT2z5Dfiln/rMUxAjVJyLoee8Tw6g5vwUvhjooDu0U0cfkbDA8NhnHwphPORZWj2PHTbhmrwH3katj2PbGYZGTODjKYiu8ctT9eldZNCdNOZCKI1VwszF161W0JrpzVa+7r7+Eb/TbvH127d99bu4+Pan9rnfMxz5zXwWtzrIrjca3Uhdqu2Lixrt5qhwcgYUAwFuqohq9mY17NQkxqUpIJ5XcOynsLCuU9x7o//i0+P9+NcoA3RziaZuJnsPIgEh6t5GqB4GpxSpKsAdK/Ak4Pg2KdPKzPmqUe8o0HqOtXWRugtDTBb6mG01knckyVM6bb9SLdR97MJ091ezNxzJ9Ze/6tjfW6tybC42n8TN/t4F+HJeSIxFNbfR96YQCHyKCrTJ5ysOovhpweA6SFUZg6jFDqMQngApXAXKuFOIOwBmEwKM2nkRTHiRynCEqY+IDLodCNNdQOhY1gL3wc9MYo3Pn0Lv3p1BoefTcI7uY7OCaBnFDh8CgLOY6c2cXjEUTvynmbbJt3sy6MvvhWQ1zuWwiAjTA7lBZ6ecRbFU9ezgMDwOo6e0vD48yre+nwRMXUVmawGy1agm0lohgrLXoJtbcA255HR9R8FPN0MdTabvSo4r/YPkZBy4bkToFc7/mb38fe569s+qxagvCb3+vYyPFVDQ9pWkTBSUDkgTrVgpUxYCRN2ijOuNOk8WopNQ3njZZz/9QP4or8TIU8jYn7GOQ9KtprlSyat0I6rC4PsBXhy9DDVoeKefYh76gSeyfYGaC1NsA4dgn2oEfahgzBa6L7vh+qvR6p9P1IUT/a1YKqVpUsDSP/5D9j6+H1gkSLsrKPcvZ8aePIvtbuu9guu/Et++Qjupzm8AOS/RH7pBeRST6A4ez9w6ShwaRC42AtcYm0nQejCcxDlcHdVz5PwbAfCbahE2p0kUsSPArPxs0wiDTp1oXODKET6kI0/ggvh1zH63hc48ewl6ShiH3l30BFLHhou4OjwOg6PUiZuA15O2hx3wMl2Tqd0ydHbdAU+Lm9rALt9rPsed7uFnhFan9TyzKNz3Oml7xnfQs+pVdwX1DDxRhZzaSCtLyBjRZHJJGCxMN6i6vsSdGMDJl/TjR+F204LjfFClgPRRXch5W7578EFJfe5P+7rtfvc1663dd93vWNu5DX3c9zfX/ucj90SJ14br/FWWZo7f2+txek+JjyZHEpaaeimITPf9YSO+XQWK+YydN1AjOOq1SjW577C9OifcPZ4P6a8LZgLNGOuqwEhX51I0Vkce8G4YlVZye1l/4bbXhUvThO0V6xqMfz2685YYSmS/7Z9N1DnSasz4dkvJUmEZ5w1pm0NMJqbkG06hExTIzKHDkJvOYBk2z4kvXVId+xHuuUOJFoOINHRgnDAh5l7TsB6NghE54ACRUMcxjn/f3XiXe+I2vfdxifODwGYd5I+DKwytspVPYD9Qpx/ub1r+1NI81WgEkdl8RWU9d+iFH8AZUn8DABS08k+dkKQLng/KqF+iXuyVEmK5lm+RF3PEK1QL8oRH0qRgLj2+blulEWBicf2ApF+bEXuF9Hkjz5/DU+9+hmGRtMYOFOEf3wVnaz1HF/HEEVBhgk7ihHnZLY7lY8G6G6PUsouVy1nKoh0nau/ydbKbplq6cxNErk5mZ/kgLOHnxfcQiDI8SCb8Ac35fHA+BaGhhdx4hkDf/yLjo8ubCFp5GWsgm2FYdtx2HaqCs956PoKDIMjhG2Zy+4mLXZru/PLeLXnrpXlFpDzeW02nV9a7mPxOV1cFqQTkLU/Loy4z33M7V76cc+r9hxrz4/XxGvjNfJaec28djcbz+dcfO7uu9r9/C77XDDe2JaF/qxwcKoE2JmmKgZMzUbGzEIxDMRNBaaRxIoShf7vt/Hlrx/Bl71dmO3xIdJ5SGTeNG899E5nvIXqobYnRZMb4Agfc4SGM5Mo3XGgOned4hwNVyxFQOoc68xsr5P37Ro8qeUpbruTMKJQiBPnJEAbpDBeb6mH2kp47keig62a+5Fu3Y9ESx0SbQ2IdBxCuM8H49GfY+uNV4HVRaDIsiUOB6pIM2RedDiAMv/JVkcH8TVHxJ1MZC6n5EC3eqzzCcBtfJPzT527OAc5BxkEwvdx8QP5Fxp5+cDqRzlvEpJuVEuTzgLan4H4kAAOoR5Hco4dQwLJHsg+eUwQcvE1dwWcMqbqc1ql5VgfcpFubIa92Ip4UGEbZ6gfmLsLG1OPQj//JN5+9z08NBbGsTMr8EyqaHouAe+ZJfRPVtAzXEIvWzdl/vsWjgxvYGh4U3rRKZLM1s3uYEmk66i9SQ3OrjFmzzm4bQO9o+ui2kTlpl4miEaZKHKy697xDbRPrsHHrPupdZwYXcfdT+n4zYiCV97JIKoUkdbnYVgKLDsEy4rBspgVpeXJOd6LAk/D4JhgKirt7tyhG/0i80vrlu24kOB7uY9bwoRJIcYIr9cRVAujH9tjwpPXxmvktfKaa++Be18ITt4X3rMbvb/fdtyNQdPJvJuajoxiIKsY0m2U5lA500Balo6UpSNh6VBMBYaRwmI8hNnTk/jirntxqbsbSqcHWks9dN8BpAM/Q9rDqZSUpmOvOyF6EIrMW9+PtKcOSoc7+bIBBlWYGGtsa4TW1iggJSg5ITPu3Y+Yj/PVaf3VC3ClXfMGLMwru4qceUbfuo9Jr1ZHJDnVVgeuZOt+2TLmyfcnWvYj3rIfqrcJC4f9mP/Tb4HwFLC5Qql5marG4ejrZTEZHQGRkoO8PMrIy9gOGoZVg7I6lI17OFCdtLxt25IUwuacoCqlSKrgJFnLZZKa8HR2F/mm7UV3PQQsvwGk/9dJ8IR7nDbLOdZ0VuFJF/0bwHTB+c1tJdSFcqQbxXAAuYgPW1FapGzv5LFDKM0+hPXpP+DC2X9i5JXzuGsshO7xJNrOZOB9lvOEqLeZR8/wJgZEtGMTQ3TlRzYwMLIpgiIspO8OEphceQecbhkSO5ZG19A3uiYQJTx7RjfRXYVnZ3ANnknWl66h9+Qijp/M4P6nExh9JYOPv95CUs9BtxZkZLBtR2BbcVhmGpbAk+NoOSVzXpYz8O2Hh2ftF9f9knMfIcEtY4HsJ3dddULmWlbltfbvJZBe6xy5n9fmuvC8Zl577b2ovT/ufXP33czW/awb2RqaDks1YKsmdI2JI2ephi5TVhVDR8okPFXopoIFNYHsxx9i6piG/ZwAACAASURBVA9P4OOuLqT6epBuPyRuu+q7Haq3zoGmjOug5VkvWqDJzv1IdRKgly1PAlNva4Im6zI8U546JLz7EPfeIfB0ZxN9n/B0geluCc5teLY78ObzRDOt63pkulqhPXwPFv/2EmBpwNYK8hXONSpjvSIDggRnBByNSU7/dQYIVeFJNlZofbpwdexRgaf8A6erxUUo1oCT7yjJYPkqPPkBrvlZLgBFFVj7FDltHMX4wwDB+Q1I/mfgFEAKeOnO+1GKdiEfc0qbxLWnGz93Hyqhx6FOv4Z/ffgJHgl+iCNjSXCWu29yw3HfT6+hZ3gNg9KNtIXB4TUMsH1yxLEkOU+9i9MvZcvC9w2p3+wOrsnI4N7gKnpHudalNInuPGs6A8EtEJ6+yTUMTK5h8FQGQ3+O41fjSfzjkxxCKqCYeRjWAixLE3DaZhKWqVyGp5kVAWTdzFanZd46eNKyct11N/PM54QIgfJtP4TPtcD0be/9IV+/0fPkNfPaeQ/c+0FA8jnvlQu6m4Gm+173s258yxpbiskY0Kq1oLRIufgZBKlqqFLZkdWSKMTDUP76Ej46fhTnA17E/e1IeSgSsg96J2s+mXWnxifnGnGaJmG4H4nO/QJDGR/cQbe9EeoOeAogPZzPTqvzDhCktwqeiZZ9SLVyWFy9JMIIVu4jRBliCA11Y/Z3vwIufAWsZGVcMQFJ65Pjiok9+T83HClP6MDTxiTw5Ajx0vmIh93mRDGrz7iXi98X8eX5gMokBTFi5U3cL3AtA6VVIDeL4vzrWI0/jnzknho33LUmmRT6jvCcdeBZiXSjEO1BMeJFOdSCCpWXZqkJ+iiWQqcxe+lNjL/6Dh6ajIlYiD+4Ac/EPLqfXUbvyBqGTuVwmBboyCr6R1cda1IASVk7d62hO0iNUColrcgSeMpzHrMhoA0QnhyzwQ6jCbZhLuDoiIZjT85g9I0MPp0FEhagcy6RZsM0dGTMFGyxOtWq28757I4UHbfumGHXPdyNrfvlvN7W/cLy9/E41+J0k0M7S5F+SNDdyt9FyPLa3SQS75Mb67yV8CQsaW3STVerjQqWSldeB+e72ypbOHVouiYANbQk1tMxLH7xCeZOPom3O1sx3eVBwtsMq71eVJYoSUfdTI7t4DTNhK8OMbEk94s7nuhk1pvJokYo7VxNDkjbGwSUjIumPPuQ6txXdfW/f7fdtThrt2J50pVnEkzio3Td9yHefIcAdKarHZfuuwv2i88DqYiMBaoUOZS4IvAsEG6uUSh8479A2qBOBHQ720P+CQhBJXmSdYfFyRflhx9NRXi67dX58du/YAvIqcDyh9jSRrAaeRC50BFg21UnPL8DNN0YKD+HavPchrpQjNDy9KAUPYRyuBUVCohM3YfNuT/ADk/g40/+gadenMKxU3l0D6/AO7ks44D7gmvirtPi7KMVSWtSgEhI1i4Cc7m6HHg6rxOqBCcTQ0wU5UGA9gTX0BdcwuERDSeGI3j0dAhvnFvHVLqCpFWCbq1BU21YuomMocE2NVgmRTOcGeu6SYBycT67M6P9RqB5PRjezGuEAxfByd50uuqum/5jsCrdf7E3u3WtU1477wHvBe+Je39u5h5f7b3uH7Ab2dItT1oGEpbjrjsxUB0LaR2LKQegdOsFoAbnw6eRVWJYjs/Afv+feP/eo/iktxNz/nbYHc3QPZSka0TC2yCydXFfHeI+xi/vqC6643VIdHIWe4PohG5DtMOBJ+Oiimc/FKocddway5NxToI02erEPwnQVNsBgSYByjXX2Yzpw30I/+ZRlD79N7BoAIV1cc9peW4Vy6AjLYYht+ScYNFJldOEZMJcjEqBocCT4c9qdt0lrmSdyNrNqqBxCUV+EN/kWrHFJWD1EkrWy9hI/hqbkePIM5MuwKuCUyxOFshXlwvGG9mysJ4jOrjmAiiHu1CKdaCUaEI53uxYuJeOoTRzH7Yiv4Q6+yJe/vtXeJiCxKeW4ZtYR+fYKvrG1nB4eBn9I8voFYvSBaZrXXL/UnUtVreXj6VlygQSrU12EfnHCgLP3pEVDJzK4OipOO4PTmP8HR1n43lErRxSHOimL8LUs7D1DDK6BctgxpZF2DoMS4duGaAYMgFKIWTjBjuLrvYF/K77XFgTDHRP+Zw6mezCcYHpAvRmofRjeT+vm9fMHz7mveA94b3hPeK9cu/bd73vte+7EWi6x6RNHTHbQFQK5Rn7dMC5nNSxmiRAmUxivWfVpbd0qFocphHF4uyXmD5zCu8c6cYFfyestg7o1P7sbELc1yBjO2L+OsT8+xD13+4s3x2I+miBHpBupFqApmvgqXbUQe3YD25vhdvuwNKBp2uB0oXnY1kt+xFpb8Scz4OZo0OYPzMOhC8C+RVx2hn7zJUrTgMSGUeaknNVLBaqJiRtUAmKViF7G+j174h1OpYpievCk3HPKo2FyhwjnATm30E+9Qw2IvegED2MIjPsVUtRXPVteLqJI9eVv4GtwLMLmKYFWi1linlQSbahkugAIoTrAMozQyiFjmMjGcQnH76Lp1+I4d6gJuVGnSxVGltD/+g8ekaXwFhmF8dkVGOatDQJTlqQfcHF6nLByeMITicuKu56MA9/sCClSv2nFnDkaQ33DIfw+7/M4r3ZNcwYW0hml6FYC1A1CxlrAbYxD1unGIhd/dIRnhp0S4UuEKUQsrPcL+X1trVfvJt97P4eAoFfUGaZNzc3t+FBgDD+54L0xwLAmzlPXmttnJcg5T3hveE92kvwpLtOq3MppYMAXUgbyLjwVHWpBVVZF2pEkUlMYfHrj/H+L+7D2d5upNq9SHVSeYmz3B3Lky57wrcPcd/t1XUHOAee1mec3Ul07z2NVQu0Qeo+CUsHngSo4zK7ACXUvo9V667zsQvPK4DpgrO6jbXWY661EaGeAKK/fBBbb7/uWJ8VWp8FMThpO8oDgpNLdjhG6KaUNlXzQgUmfip021k4WvXjt7NNfEMRHBdfxJZ8hvTU88NI5uIKsHoOFf00crFHkQsfBmJ9YIZckj2EprvEja+BpwtU99hrbaW2szrnaJY1oARmByrxDpTjnYAIKzNxxAmctEp/jdiFl/D3f32K3z0XxeBwHv5TcGaqj9kIBBfhD66D8dAuFs+PrqBndBm9o4voG11A3wgXH3MfrVMHnC40A0FanM5i1n3oVBZ3PpXCLydCeOFDDVNmAVF7GUrWgG6zJlBHVuC5CFtbgmVkq+VIhKcK3U5vA9SwjFtieRK+BCi3zC6zTKcWHATJfxM4XejuvG7eE94b3qPae3azf7z4fteqvJEtLc+4bYj1yZgn45yuy063fb4KT0s1oSkGFE2HktERthJIpWawps5h+oVxfHH3XZjr6EK00yMz3VMyx6heRJNTXiZ/bkfS6yxm0hMCz3oHoJ5GB6BMMlWtT0LTAeitgedOmLoW5/b+ViaPDiDezLEk7Zg90gf71J+AqS8dzU9hHIsxq7keF55kXcWFJ3lKeHLGkAPK21ApbMOT+x0+soCU/9t0SpRcq5Mfxir9XBqYfxOl9OPIhe8WkQ/EupxxGoShC05u5wKocLxwrUV6LWDW7ic8RUyE1iw1QNsEoOWwF4WwD8VwpwiKgO2dcx4UZo5hKTqC81++huCr53Hi5DIGKEs3xtEcGfjHlkXAgyIegdENdBOQo8sOMEcW0S9ryYmLjjJB5GbWL0Ozi2VN1Ymdd45k8POnonji+Tl8EllHJLuBZMaGmklAt9IwDU161219EZa2AktfgMnYJjuMLAWGnXK28pwQc0DmWoPX2u7GF3bnZzCLzNgekyTy76dqfd2o1bkTNi6E9tr2Rs+Tx/Haa6+f94b3iPdq5/27mec3Ak33mNqYJ7uJCM/5tI55N2GkGCA4nWUjndagZC0kllgPGocau4jlS1/g4u9/jwtdg5j1+RD3tso0TRbIs8bTiV/eDsVzO9Ke25HqZAnSfsRZz0k1IwqKbAPUtT4JT4Lz1sBTXHWp9+SYDjf+WXXZ3TImzj9qb0Cs5SAivV6kHrwHS68+B2zOA4VlFMubMjCOdqQYiG7cs1r7SeUOgScJyfhlpYzbxIcnHOnfV+uYCjL9gxNAnFJRKU0ijUncQgZY/AxldRTF+L0oRQ470KR4h3QKOQkepx6zWvjuWp/U8hRAVvfL86s/phVbCvegIgD2ATNUmfcBs30ohfqQj/qQi7ehEvVIZ1L+Ui82or+GHg7i7X9/hF+MJXD4mSx6Rhfgn1iGn22awTx8TPiwXpPlSsy+Mx46TNCuSBlTn9RzsosoD/9IHr2TbPssIjCSQ9fIFgIn13AkuIrjT8bx+GQS//hsCSGrhFhmESn2r2ciMKwEDC0lySJCk/BkK6Ykhmhl7oSngPP7gaf7xeMXvBbIfO6668wqu5l1FzD/bbHOnaB37wO3/OGWCSSqMfG+Mf7Je7vznrr3293uBKu7/7tsNaOabee8Jc2BJ113k7qkujtmxBStT1u1Qe1PZuZjWQNJIwk1HcJ6MgTtlVdw8b6H8IXXh3igE+wZly6j9joorXdAb78dSsv/SDmT6mEJEsuWnLgn4Rlnkklc+AYpe3I6kRx47rqbXoXhthVZLYp3n18Gp5Ms4n7X8qzdplr3Q2XXUusBhDqaEB/shvKn3yJ39n1g3QbK61gXf7vqhYuH7YCU/wKIvy2+TmOzOqjtNjE1Cc8qOOms010vIFctUKqSmEHUwjqwGQbMV1FI/AqlWA8QDTj96YTbHN3r6pyim9xSNCQX7UY+ymSTD5jqAKZ7gOmjKM8dQS4WwFqqGcU4e+K9KF6ivN0xrLPv/avXEXx1FnefSqBv1IJvYgO+iTy8wRJ8BCEFPUY30TeyjoHh1epal+L5nhGCs4hezlwfLqJ7DOgbr6BnNI+uUxRZXheX/ecnY3j2dRPnwgWkF4pIWCYUOw4rOwvLjsHUk7B0w4l3Ep7sKGJZksBT3bY8mUByrM4r4Vb7pax9vPPLeCPP+UXlcTs/h/uZSabOZS0k3Mc7gfLf+Jz3wr0f/INC95330f3Dc7V7WgvGnf99al/7bo8NKZBnVt0FpwiGmBoUFsgLWE1kFAtmyoCim4gxQ09FLz2BFT2Jhc8+RejJkzg7MIhZTztUb5uMu9Db6mG21cFsuR36of9BxlMHs2OfJIPYskkJuxhnqXsJUEfWjmVMfI0F9YTobsOTWXMXlFfb3ig8k637kGq5XZSX4q0HkPK2IXb/ndCeHQbUMFBYwhrYeVSUSiT5PwKU1KxOA85JnyXLNtmDVMJleMoxZXnBiXU67ZjyhaEvL+jVgaWPUFaGkY/eixKtvogXCNMipPvs1GXuBkApjrwV9yMXo8vvB6YC1ZHFnMB5DLloF9bSzcgTnlShZ5Y/dgS5yN1ITk/gg88/xuPPf447x6Ki88m2S1+whECw5Ey0HN1CPzPzLKIfXkf/8Ab6RrbQNcz2yzL6TwO+kRK8p/IYmChjcCyHvmcWcXxsRQri//iign99toS5dAHq/CaSpg7NTsLORpDJJGXUhs3Caj0LU1+SVkyp7WSG3dKqLrtT9/l9w9P9Au/8otMF3Zld/28E5PWuuRaefFybfSf83D9K7j3mthaKtft3vlZ73I08prVJIWTHLXey7exzT5sakhYXO4yYaecxDjx1zULatKDoKlQthWVTxcrMFJTX/45Lv/wFPm9thtrjR4wtlx1NsDobRVzYbLkD854DsNv3Q6NFylZMD932g4hV4ekkkZz+9r0PzzsQb/5/SLXtA0WT021NmBsIIPb7XyL3yTvAkoo8VpEvszSzGvskPGk00kuXDUvmOdrS8chvc+uZiFeno3MLeTFgq2M7+S52mWxtACuXAP0FFGK/Ql4k5Vgy1OHATUqUdsfqJHyLUR82E53YZHKIrv6lPmeq5qW7gJnjYpGuppuxGW9HIULB5F4g3I/S7GEsRp9APPYKXn73TTxy+jwGR5bF0iQ4CcYezhwazYulKV1Hw+siIsJRGn4mmkYr6JkE/MEKOp7ZRF9wC0fGaHFmcPykgbuenMNf3lvApVgeabsAPbuCtK7CsFLIZhPIZtLb8DQNDiFzWzGz0C1LypSYcafVyXZNRwj5SsuwFnS1j3d+Ga/1vPY97uOdx7rZdcb2rvXjWl3Xev3/4v7aa66FJ6+V94oiIm723QXoznt7rec3AslrHWNqBmzFsSptlSBlW6YDzjil6mwHoEwmmYRnmmVLFgzNFgV6VUljwdSwmk5i4cJ5pCbG8Knfi5C/E6GOZiQ9zdA6mqA370emtQ52yz5YLftgtNVB5ajgDmbcaX3S8nRA6tSA7n3LM9G6D/G22xFv+ZkIQmuH6jHbcQizdw1BCT4JJC4BpUVUKhtVUZCq++7GPsUzZ0F9CWvIiV/uWJ5S+0lzlV49ez43xXmXcjfpc18HNjQg8y7y8T8iF74LBdHiPASE6K4zm+4kh3bD6nTg6cVWogNbccY0Cc+BKjxPyJC4QqQb68k2bMY6sMWkUXIApRk/KjM92Eo8jGz6SXw19Tc89dKHuGtYQf+pLAKjOQRGi+KC08p0Lc+BkQ30DjMOynhoCd7RCjpHyug5DfhH8+g+uYgjI1ncHTRx+LEpPPGigg8vbSFp5qFlNqCa81Ck/k9FxuY8GQWWnoZl0CW/3E2kWRloli0ANSyn7tOidSou9Q8DT/fLTquTsU4KYlzvpxYk1zvu/9Jrtde8E568TgKU945/lHg/6cK7sLzWHyr39WuB8Ub2E54sRcqmLelvZzE8XfakpcKFZ8Ki+27AZGmcYsFSbTD+aSo69FRaxLeXdAWLqSgW3nsLoV8+hI/bDmE64EHI24pYWwO0tnpkOhqgNf4M5qE7YLYdgCY941SZd5JGDjzrkeisKjB5KAqyh912CiV7DyBy6H+Qbt4Ho+kAom2NCPX7MfXAnVj74B/AQkrmvdOIFHNCDMdqyRKT6RUSsoB15MX2vE1s1Co8S/KS8wIlmeQ16V+3gdULqGgvYCv8MPIcp0GFowgz4FR53314UhS5EPOgEKtaniKmXNX1nBmUGUj5mBe5qBd5hg6SPSjNdEpRfSF6HCvJh6DGz+D1d97G/05cxLGTcXSNrMI/kkM3tThHGL+s7XXfQhfjmhOAdwxoO5VHzxmg73QBfacyOHIyjfuG4/j505fw+idruJSk1bkEzV6EZmSh0Z0yTGRMA7ahwdTZx05xWh0a2+lMC6ppy9JMCoOwdZNzuOna8x+7sf0FdL9oN7Pll5jvd7/M7nN+0fnYLU1yC8IJhVpouDC82j73tf+r29prduG5cx9jn+4YDzf+6d7v6/13uxFIXuuYWsuTrjuPc+KdKpKWgpSlImXRjee/N3ZFWWJ5ZhUb2bQJO6kioyjI6ApMPYH1S19i8eXn8EGvF1/0enEh0IHZzmaZuGl2NkFr3i+zgcy2ejAeqnKOuucgEh5nhMdlq5NuPfvKnZrL3Yx77lrMk/D0HED00M+QbubcI8ZSGxELtGPqcDeUkT+hNHUW2FwAKlsoljnEsJoIoh8vSXaWMxVA37woMU9x8MlJ7qDlyZJRx8d34LkBbEWA+bdQTD2JXOg4SrQEqXAUqWbYZcxGtebyJhNFruXKsRzlCJXlq/BkOyb1QGVxHlJ1iFy0C8W4H6UYY69eib0WQ13Ixw9jKfFHKV2afOUTPDg2hd6RBQRGNtEzso6+kVVZ/SMr6BtZQ88oBUIKCEwAnnGgdTiHwGQR/ae3cHjUwtGnQ7j/5BSGX0nhXLiMqL6BtKWJXqduZGCxGN6gMjy7ighSQoqF8ApUS4XCljrGnsyMwFaXWCjbN6vw1L8feLpfaAKTXzZ+0ZkkYqyT7mftjwuK2n3/7Y95T/gHpvaPDO8J7x0z77Tga+HpgpP32n1cu70WGG9kfy08GftkrzvhqZqKyNClTQVpk9M0KU9nIaVbMFQL82kbi2lLOpDmFVrJClJ2CmvJWRTOfoCvfv0A3h8M4NOeTlzq7kBYxhU3yswjq+0gzLaD2/Ck685OI1qgVJwnkAhOdhjtaXi27ke81WnVVFvrYLTUId1Sj1RHEyLdzrz3lddfArSYZN7LlRwKpaIUGAkHaYqWnEZ1ptQpKnKb1H1K7ojw5HLKnCRCKrVLy8DyWZT008jHf4V8yLU6q3WddNkJT+ljZ9nR7sU9ndKnqjiIaHn6q+VKbNskSIeAcC8qCT/ykVYg0Q6EDqE460M5chzrkcegzL6Ed//9Jp74yzkMBu2qTifB6bRs9o8sSckS6zoDYwV4x8toH6+gbTQHD3U9J1ZwZEzHiZMzeHR8Cm9/sY6wCiStZaStuKjXGEYGtrkMW19GRluSlkyJY1oqNCsNxU5BoTtFlR4zC81gt8oCTD0DmxYrLc/vEZ7ul9eFJ61OqgbVuuwuON3tfzs03et374e7dfeztMuVrtsJTxeE7n2v3bqvfZetJIwYy1Rt6JopCkqMeeq6gv+fvffwcqs62779333fWm/A06u6NMUeVzCmpkKSh4SE8CQBQu95AyGFJCQQIIDpuMx4ZtTr6ZKmd9XrW9feZ8/Ik7EpHoP4sLN2tnRURjpIP931ui1Tg2FpQhCE8Mwwwy6qAqSbv1hwsFJwsEj33dKQKeWxaCRRj5+D8adn8PZ3b8bbJ8Zw9mgY05FhpIS+5zDswCBMAU8qK1EghOVJskQpH6YICF36XpgchdHOlqevB+nhTjGRU4w09vUICzTv7UduNIjZm45Cf/ABVD8+A2wuiQx5vVEDxZK3G4SEocncEBs2CU+RKGL6naFQ2p2i80i67Kzr3LJRK76GzfyvsJW6C9XEYchhbSwhouCxa3GKzqF9hCehzL52FtizMJ6tmUnC0Q9Ew8D0MWDqNiB6HM30KKqpYSA3iGaqGw2WTEXvRCV2HxaSTyB68UW88PpHOP2shePPrOP4Uys4/sSiWxi/gCNPLIn+9bGnKwg/XUPgGQK0gtCTyzj0VBk3PZHFD56O4vG/5zCVBXJWDVqxBL0Ug+HkYdllFK0VOPoKHG0VjjEPh26zo4kMvFbKQCtqEp508c0FWOw6MsoCnkVmUfcRnspV5xd0ry8u55e39q8TCAoOu3cFi2/brs5D6/vmMfWPlqhKHF0OnipUstd/gy8DTxbGM3tOtS6dKvIU/zANOIaGoq7BNjQYJi1PAwnHQLrkQDcdMd9oIWdjLWdjqUDVJQ2JMuuQE1jLTmJr8gwu/O4+vHX7Ubx7JIipQ34k2LbJuGdgQCyTsVChpESBEFkcT+Fj1k6awV5YgR4YbqtkO7rteV8PcsPd4r0UeNnXBY1iycO9yPuHkDg0ivT37kTxj78HSrqY9U47k8l22pDCqiQcmQhiKLNZpxjyTvUSbxMfDxKWiYQNB1i+gIr+HDbTP0Q1eUrGOhnnZFmSEO5wIZo42mJ97l34jisUxf/XbZfAM4JamlM2A0DCB8RY83kEmDotLNAGE0bZAKqJPjRTPbJYf/oWIPkTrMbvRTnzKP79wb9x9wuTuO05G6eeXhAjio/RdX9sxbU8VzD+9BpGnq0g+HwT4eerGH1uHUeeKeHkIzO4/8VZvHVuGQULsKwt2MUSzHJSdBMJJXhzEWZhAVZhCbYxJ+BpWAUYTg56MStcd52WgFWCSYV5Yx62cW0sz1Z4tgJUfWHpsqtuIgUDtStoKFe1FRjqPt+GXZ2HK71XVTTP86oAqs4xr7dCU11Wt3+5nWVIDgxzNzx1lAQ8Wbivi9KltGMiVy7C4IQCtm3mDNn/njfEBNdksQDDTGMuHwXsNIw3/4o3fnInXpsIInZyHFm670rijeOII32umy4l55h9ZxLJDPaJbDwz8m0NTz8rBgah+fuRGepA3tsJO9gP29uLdH8nsiNBpE4cRfr+n2ONqktFA6iy3r2JWrOBWqUm2y8FGwnQBg6wtonZdbrrgrC8kRStlYH1C6hbL2IzfR8q8VOoxziDiHWXYbloAUbZfnkMzdhxNGmJisw7E0hXWJ8HouLx/FtSFETEPtWUTZGkojAIXw/DByOy7z3hB5I+Cc8oYX4K1Tjd9x8iEf0j/vTuh7jr0fdwy2M6jj9Ww7FHa5h4pIKJR1dx4pkVHH1mHiPPrCDwfBXh31fgf3IeY49ruPPJKbz4RhLpfB3FfBXz+TUUjRJMJw/T5rgKG5ZZgmVwlWGZcpCYSZfK1mHYGgzbEIkj03JEsoj3sU1HWJz7aXWqLykBujsexy8sj9PqJBy/rWC8EhA/7208d8y681yq88pzz8tq/3KAlKLGl3+srOPcEUM2YDEJSFgLgRdqebKziIryvK8FS7fgaFL3s6gbQu8zb+vQTY4wzmHRyGExPolPnn8Ub5w+jnOjQdGFUxj3oDDah+RYN2YPdSE+zr53uufSyjTF3HTOTu+DEegTLvFVWZ2fURC/V5H85TqKWruLeDkb6EUm2I9MoB95bzdMTxcssXej4OkWM48SET9mT5+E+fjvgOQssLYgxJDpl280GeV02cikUAM4sIEFbLjw3PbtRf96Elj6O+qF+1FN3uEOYaMrzYJ4QjMAxGgFjqERPYFG9CSanHR5JWiq20SL5mcpK9F6JTivfjUSR1BM/gYfX/gzHnzxNdz+SBInHgGOPQJMcH+8gpNPzePY0xZGn12A//kNBJ5bRfiZBRx6PIff/j2LDy4UYOZXsaFVsJpZFhMLFajadd8LnkwWtbZifl5YXL/fpWeA8OQPEOPG/O/Pc62gqT4PlwfgZwHyq7ldMy3k6NaX5+DkUoi98zouPHAfzo2GkYz4kB0dRG6sB9HDnTh/7CAuTnQItSUj2AXLzxrQPli+fhj+fmiBAWgsPg9++XKlz8qsXw0804FeJEL9SLJe1dcLZ6gL9nAXDC9bUbuQ59A4/wAShyPQ7v4B8O9/AmZWCL4zF7QiCjnlfEzRMFQHDmxhGRXhukuaClG7yoJUTXJeQCX7U1QTK+npEgAAIABJREFUt6IpVI5ceLIkKMr6TgJ03IXniWsATyaf9gOeE5hL3oto9Gn848yb+PGTF3D6kTWceHQLRx6r4+hTVSGCzPjm6NNLCD3DPniC08JdLxTwytkyYpoJrVDCirmBxdwySppU2FFflHbcaWUqd5Kvj9dZ3M0v/OdxSy/FxfVrrWdAnT+eS/4gcfEcX3vLc//AKuBpOShyYmg+g2J0EuafX8TkbacwGfEjISZq9iMz3ouosDylRJ0W6obpl2VMnJuu0WKkAPFVgJPQvZbwzAR6BThTLjwJTsvTCs8eZP39iI8EkDh1EtYjD6Ix+TGw4gDNDSEJLzo16aK7LZsHVDcRS5pkadIGsKGjUX4T67kHsZH6PqrxU2gyMcR6ztkxYJYJGbruQTQFPI+jwcRN9HO67Uoc+Uq7cO33J3PfiB/GUur70DK/xoXYG3jk5XP4/mNl3PzoIo6IEiUKHa9h5MlljD65KqTrJh4vY+I3KTz8zzl8mF5BYY6ZTAN2YQ5lbRlFuuf7XJu5n8+3+0vM56Z1xHjnlTqKWgFx/fJnnwGeSybgVM1nu1ubra9Ps2zkbAcF00DRKGBVz2D9w3eR/c39eC/sRSzshcXRG9TypCydUJXnWA667S48RVyUM9bliOB2tTwJT4IzRevY1yvASddd93aKWe8ioeTvQyzkxfT4KCbvuh1zr/4FdZYuVVdFKl2ENqkKr9x2CoCIKcYCnlRKXgDWZrFlvIzF2E+wkbgNtfhJmVXfVndXvexhAU/GQhtUkf+8MU/lvn/m7va1izjrl7/ciB3CWuo05vL3IJ97Gf9+72P86rkYbn8sL2o9w48uY+zZTYSeWsWYGDe8gVses3HHw9P4J0draEvQ5vIwSyYyGXYOzUO2Xe5vbeZ+w7P1i8LnpnXE2eR0N6//258zwHPJc7obnsrib/1v0G6X2bhRKJYQz2ZQsg0sm3lszU5i/u9/wrsnJjAzGoER8MMIetxRw0wc9SMT7oUe6EXR2yMs0HyoB2kOjAtdXZH8tbY8Cc40Y56Up/N0Q/cy496Jgr8LeT+HxfUhERjGTDiIT44cRubRh1CdOQdsLApzk0VK29JzTeAARY/FcCPCs74F1DRg6Qw28o9jYeYOVJInUeesdFqes0zSuOMxKA8XG3HheQSN2BHp2n8mEK+QSLpGj6V1vJU6hpXszbBSDyAW/Tde+sf7+PFTF3Hkd2WEH1lC5NkNBJ+hzuc6bvrdOr7/mIYXXjNwLj6PjLUAo6RDKzKTqcMoUdyjfcGpILw748v6zt1K8fuDkG/vs9B9Z8mSgifPPSH5TYCnwbrj8hyyYn6VhjmrgI1cAsufnBHgmDp6DDlfCIY/ANvnE2OHWSCf5tRNAU+6793IhbuQGulCNtzTtjHPrL9XgJMJI8460rw90uL0dyLv7wRVl3g87R9CMuDHxfFxXPzR97H21mvAvA00OK6IJUpu5yXhKTJI/OzTGuE0zM1ZNMt/xVrml1iePYlaUnbyYJbwVIvq7eNoMlkUO4R67LBIKDWFG/7Vw/GzklSEZy0xho3UCObid8DJPIuPPvoHHn7pI9z0O1O0bQaeWkHwuXUxqvjWB1fwwHMGPrm4iGzebXVzbBQIz/kCcuUcNGpytrHbztem5hKp18l4p0oWfXtxt7/vnPCk6/5NhCdL52h55rkbbNnUsKhnsZS8iJX//Bux7/0Q6eAh5L1hFD0hWD4fcqFhpCicHKTl2Q0zQGh2IsnRHeGeq4p7XkvLk/DMsEzJT3j2gW66tDYJTgVP1n8OIOfzIDkyirPHjqL8/DNAJibnHTU4sqgmrc9mk3WebnFng0LHc8DKB6haj2Mt9QOsxY6A0nACirPuSAwClO579JCMd8bGRbtmIy6vfxbIvtDt7t9Rf+/L7nz99fgYKvEIVmInsJL9OfLRp/CX19/A3U+lcPOTJUSemEPkmVUcf6SIux8v4Q//KiGdW4EtrIgydGMZWrGIXDmDbDkBrZhra3gyOUR4Ms7JywQoY3Mq3qkSHvuLkm/ns/FctsKT51pZ/e3mqre+HqovFWwbee4UWjZ1FM08FvUMtmYmoT/2BOI33Y5oaByFwAi0QBC5kBfZ8IBQJqLikhHoQiai4NndtvCkVZn194nFy7KUidYmRxNz8XI38t4+aMNsBAjhXCgE/b6fAx+/B2wuArU1cPJGo8kyPyrJq0RRvQpULGD+X9gs/AxrSWpjjqKRoOQcC+IJTzVT6LBIINHqbMQJzzE04oTsPlqd2+AkrK92Eey0kkdQjY+jmrkJy5kf4+OP/4pH/hTFnU/mcPiJIsaeXMQtj+p48KUiPphch2nMoWzlYenz0LUaCvY80k4c2bkZIXysLLp22wlLLk3TtuHJ64Qnv+ji97JF5Pfbibz9edfqfCp4qh8qwlNdbgVWO102LDnCOGeaKBQdoUmrWRS00bCeS2Plzf8gde+vcGHiJBLhcWRDYeRCPuSD7Dzqg+3rhi7g2YHkaAcynN9+FRn3a2l5SmBKJXlaoVnWfrrAbAWo7umFNdgHw+PBrNeL3G23YfPVV4DNBaC+Kts2XdG6A9u1nYx3bubRLL6Mjex3sZ6YQC0VQiPuAziAbYa95GzHdK3OKF31Cem2C3iOCkB9IcvySrDdV3i6LaSxQ2gyi586hEr6FmRnnsM/3voAP3nyQ5x+Ioujj1r44TMpvPQfE2mzimJxEY6mwzZWYBhN5M055Iop6PMxGMVs21uehCeTRPwSc1HIQv27bnmqM3F1u4In48nqPPPHlJBse3iaFgRAaX1SSKRcQsGxUGDm3TZRTySRe+EP+PSu7+Hc+GHEIhFkQ34YgSFRGM9aTz3IGUedSI10IBvubtuYp1Cc98nxxARnJkB4Stdduu9dyAZYutSD4lAvzIF+ZDxeZCaOYvn3zwJrZaC+JuBJpWOqzh2gwSkb2jeB5Rjq1nPYyp4SGpkNduuwHZLJoRmqGhGetC5pZRKeTBTR+hwVi9Zd28IzOiG0PhvTo1IRKn4Yc7H/xcXJv+Glf53Bbb9+H8cfiOLJfxfwSc5G0mQb5QIcfRGmvgZNr0CnqHEpD6ucEsLH7WZxtr4efnlbrR9+kalBqb7sV4eM64/efQZYAsbzrxJFasZRO1mau18LX6umcSRMEVqpiGypiJxjI8d+eVPHciGHufOfYObx3+GNiXF8GgkiHfShHPSiyJ53X5eAp3WYIsmdyIauLTx3dw19keucYcSedsY6Cc20C08eK/i6kQt0IR3shOHrxpynD8WBPugeD7TRQyg+/FsgG922PKUsCBNGLF5i1qi+ASzNoGE9iUr2CCoJP5oJjwvPMWDmhIRnjBYm12E0oixROizBGWfmvZ3heRRNznmf4mscAWbDWI99H1r0YZx57xX85pl3cP/zGbz6aR6zxTSyRcrJLcM2NmEYG9DMDRj2PGxHh80Bb3Z7J4yuw3M33q7tdf4wfdPgaRomLNOEU6LF6SDtOMjaDvKWI1qJi/ys56JIvfonvP/j7+LDwxHEfUMoewZhszhezATqhDHKvvcu5IJtDE9ft4BkwUcLsxupoJyuyaw7F63OVKgTuq8T5aEulPq7YQ0NwQxF4Pz6V0ByCqitiIw7a+SJzANiAoNodl8DlqZRNx5FJTOOKvvEE14g5pflSdM3SXjGw2hyieL4owKiEqb7DE+69NuuuwwVfPnrjJkeQ3P2JBoXeZnzkCKoxE5jIfFTJCafxb9efw2vnUnhfDKLTDmFQtmEWVyFYW1Bt1ah2UuwbGp2cqibDtvcW/ih1fr7Oi9fh+e1heXuZ/8mwpPg5OeZ8dqCZSFjcUQxBbvLYpAcy/NMO4XiuXeQee5hfHrzIcT8gygN9cFiqY+/E1qwG1qIJUpc17bO84tYmrvvS9ec4FTwTAelFWp4WPMp4ZngqGVfB+yhg3AGumAPDcDwB2Hdfx8Qv+DOeOdMYSmydGC7s6i2KmYU1bSHUElFUKe7LuKdQWDmMDB9SsCzGQ+ikQiIBBEtT1qghKew5vbT8rxSPPSL3sbKAAHPm9G86IYfLo6gET2CrdQpzMUfQOL8n5BJzUCz4tDm4tDKBrTiCgrWJgrWEjSnBNsuo2yUxWRCx5AZ7K8TkFf629fhuRtv1/b6NxOedM9NlIpFFAwTOcrc2SWY9hxyhoFssYD8XBoruQtYePNlXLjzGJKhYcwNM1lEWHZBj/Sh4GfWvU/OObqGCaPdQPwi13fgKcuS6Laz08ge7oU1zFhoN2IMPfgPwhy+Ec5QJ5zhAegeL/T7/gfN2HlZrtRkp7tredJrF4Wf1RVgeRqVwoPYTDBRxBEblH6LANMcvnYaYNww4Ucj6UUjPoJGTMJTZOMFQPfRbf+igPys+1NlieLJfC8st5qJiImbteQxbKR+jPnkU1hz3sdiaRJ2MQ6jyLEGZWTtReStMnTHgWOXUDZK1+F5bTn0jXz2byI8TUOHqRdQ5NgO3YBmOEKblh5WtlBA3szCKqZQzU6i8tafMXPXMWTGPCgLFaUe5EPdMEYGkRedRlL781q2Z34RWO6+b97fJSzlgr9DlCYxYaR7e1Ec7IMzxOx7N2ZHOpEKdoiZ9ZaXve/9yA0NIvezH6NBy7OyIlip0kQHSFHB0eoysBrFFvvZY0E0xFRMzks/BEyfBC5SePgwGkkP6qkh1BNh1EVXEfU8CU1an/sNTz7fPi0mu6aPSx1QhhzifP0jECM7ErdhI3UvaubvsW6/gzkrAdspoFA0kS1aYpyrLoZqOSiZRTiaDY5EuJLl93Xfdt3y/GoZ/E2Ep2Fo0LScGFRo6iZsg3O1yjDNEgqFAhwzh0Uzia0LZ7Dwwu9w8aYRZMaGYAZYE9mJtLA8B5H39MHwDkH3D17TbPtuIH6R64Rn3n9QrBynaFK82dOLuYF+lAZZ/9mD6dEuxMMdyAZvhMaQhLcP6cE+pH92DxqpKReeTdHaLmKeVEpuUs2TwdDNpIDn+mwAzRiVkw67I39PARfvcOE5hHqqH/VECPXYhCygZwyRiu8iE79ftZ4KmoTy1S6KmbjvZeaQUMKvpoKoJcKosfZzdgKV2C2opn6GTe0VLFsxlIs5GHMF5MuaaMs0BTzdkRnig3apSvvXDcvdf/86PK/Dk5+BKy2qzhuc8srx17oFDorjqGLdoHFgYMUqYD09jYVXX0b6J3dhatyD1Ggf8qFOZIIdSIe6oUeGoXuH3PbNIRSoWvQlXffPqvP8IrD87/uyDZNz228E4UlYmsO9WOjvR3mgX1yfGu1CNNKBZOhGpP0HkfV2I0mw/vKngBYHqmuiEXPbbecIsAbh2VgFKllUcg9jbYZqSYQh3fUT0mW/eJcojK+nBlFL96GeDLjwZAJGtmvuPzxVLHXEjal+2d1Vvb94CJgZQS0ZxGbWj0o6iGo8iOrsGBqzN6E680Nspl/AqvEJFopROPMZ6HMF6EUNpm3Csg3Ylg7T4MyY6wmjrxZP7f3XvpGWpyWFuvmZLuumGBLnaBYKuoE5y8RWIYuVD9+F/shvET1xCNHIIBKRbqQjHchEuoTSEuFp+Dxw/AGYAU9bwzMnwHmDgCfhyljnYl8/5vslPCfHujAz2oF45EbEAzcg7etByjsI/be/BMoFoL4pFTvdoZoHNgQ82fC+BtQKqOR+h9XpkIgHIkpw3ixd9ovfFckhWp21TA9qST/qcdlpJHve3Yz4Z8UeP/fttDy/LCz3eBxl9C6yXjWIzaQHqwUPNnM+VFJ+1NkEMHsSzcm7sBV/FKuFf2PB/hTFuTiMck4McZOq8IRoHoaVg2lRQb59XffrludXC9tvKjw1fp6NPOY0Eyt5B8WCibymYckyUYvHUPrTH5H64feQjPjFyOF4qAOxkRuRHutBfqxfDITTvB7YPheeVyGIfK0tz1yA4ORi3LMH9lAvlnv7hfVJS/T8eBcujnVidvQgZoM3IBWk1J4XxSceBFaLQKMi4SlmuAMH1kBdpQrQ2ALqRVTzL2D14knURF3nSWCas9JvBmZOoxEbFVZnlfBM+URbZpOuuhIMoQW6XzFK8Tz7ZXlSf5SA5B7CVtyPjWwQ1UwItWQIzfgIED+K5vRN2Ir9DzYyz2BN/yeWnU9RdmJwrIwYccBJhXIKphypYVlUD+di5n1n2aaNncVRG3JZHAVrqiw93X5ar4Qw9/0NAyh3jcXxvKyK5K/L0e0/VNl4wCJ59YOldlUwr/5bXO1uGYxL0sWWO6+Lv8WGCDGG2B1FzHHE7uJntnWp45ploGAZyJsm8jr1PG0s6Jy0WUAxn0K1kEL1g3dQ+PWvMHN8AlnK0oWHkQx0gSU9WdZ2jnKsRR/yHhbMe6AHrtZt78Xl1OLz2/3osj5zt1vOIvgrr07kAzcgH/gOmDRicbw13IfywABKgwPI+/oRC/ciEe5BKtyFaLATF0cGEL1pHMWXnwEoEN+sSC1PIewJHFjlEA7KLVEYpLYMWK9jK/o/qDBBNHMSmGFX0VE0o0dRjQVQSfWglu1FI+NDPcGMtZtUUq2b+wbPq41z7n48rdEImvEIaokRVJKjYhfvoaV2dWv2FmzGf4pa4TnU7bexbk1h3kjC1i3oloOcU0TWKYr562JuEecViaUgSXA6cAyuIhyjJKZkclImB77ZYnaRBVsAU4Nlc/pmwQXo/liy6kvK1kwKg/A6rWT2tl9XVdofeKr2Vu4cBEfFKgEyd/Abf6zYZbSfACU4S5qFOQ500ywBUtZqEpwahT1sQwx/o2wil+bOc1dz3Xmds93zjloO8s4Ccpy95XD+lo75QhpbhTgQO4fis48ifvtNmB3xQwswITQg3PJcqA+ZcB/S4T5kQ/0oBAbEbZcdw3ENZxMRokIhye0euuxlf4cEZ+A70H0dorbTHO6HOTwI0yPjtgXfIAo+qbiUHBnEO8FuzP7iLqx/8gZQnReiIKCrzlgnx3CsYQOi7JOSdDV2GU2ilnwCix/fCczK8iTOZG/Gx1CL+1BJ9qGWGUA9TXjSvWffO+OeR2Ts86qTO7uhd/XXWYfK0ipRIZAYQV2ImbCtlIImIyLzLmpXE0FUoxOoxW9HM/tbQH8FVf1DrOhRlAwThsX2tTIyzhwKNge9lVxwEqCEp7Q4HdNugWcZjj4Hx5iDTYAKeNoCnrZFeOYkQAVM9w+e/NIqRSUFU37B+UW/3qK5PwDls/Bccggce9t5zrn4Q3Wt4FnWLMy78KQFSnhy4Jtmc+ibgbyjo8DlgpPA1C1tG6QKnjlHQ84uImstQnOWkdX42vNY1VKoJs5h/c2/InffjxA/NoJEaFhk0k0/1ZQUQPtdeMrxGxzFoV0uUdQG8GRBf8F/AzS/hKcpxJD7UPAOouAdguEZgj08BJMxTt8g4mNe/CPUjeQL/wtYs0CTs9yr0vIkPGvAgXVsCsddKCRXNoU4CLR/Yv7Te7F2/jQQOw5wJnsiLIrjawkfGinWegZRj4el5UmB5G0V+auH3dVn1//7NdA1b8QjLiwJTZYrSXiKjql4EM14CLXYBGqx06gmf4Fa7veo6G9izbyAOZMSdIbowMg5c8LyNC0b5nbcU7rhtChty4RjWpAQVdZnqcXyJGSl9SkAuu267x88CUwFT2X98AtO4d7r8NxfePKcKnjS2lTwVDBVP15Xu9PyLOrS+hTgdN12AU/X8tSExalDZzLI0mByQqa7eN2w5G28H9swc9Y8DGcRekFHScuimk+gNvkB0o89gOk7TyJ6KIBkaAg657b71ZC3fijrk3s+2Cv0PS+bZW8HePo6oflZgkSAHtwZveHjNE0Www/CGh6E5htCJjCMTyNDeO1kCNabfwDWTQBszXTHD7NEifDcwJaEJ5XKqlVgqwyUp7AZexrO+zejOnsczcQ4kGSvOwEzgmbCtdhi0m1vilgnlYtYpvTf4GqHY80Y4clFK5TydISntEglPBn7ZO3nBKrRm7EZuwebqUexVfgb1s0PsWjF4Vh5cO6L5syLonmOEzZtAxbHD7PXne63XQCBKCDKWKOwRmmVctSwWspKtUSbJ2F7LWKetH74RVbuI9vw1tbWtjU99w8h395noj4qzynPLWGpBEF47q8Wlrsfvx3zZE96S7xTwVPGMwlNHZapCzfcNnQ4BpXB5HUeN01DvDbNdJAzy7CceZR0A8v5LKqxKay8+XecvfsOnD0+iuioD+nwMLTAIPQAFeRlKVI+1CcAquApWzMv057ZFvDsgu47KArgWbKUZblSoBuUp8uxT9/TD3OoH1nfIGaDw3gnMoQLD9yN1dl3gfoc6lgV44pEU7vbn3mgghqqDWbbSdMGsLkKrJQA+21oZ76L5ambUKVCfNILxDn0jZDkiGFqZEoZOqHjGZfK8u0Ayr1eg3ytStSEqlBco/LHQIiaRCAAS8szegIbs3diPX4fNvPPYsN8Hcv2OZStBETW3ZmD4dgw3Jnspl2AXJzj7sYwhXCILqxQYWVuQ1TFRtUuXX1Cbj8Xv3jqC8wvNBct0eXl5etxz31iPS14xpB5Thlfvtbw3A1TxjoNS7rtBKghoGiIMjrWaTpcTAbpcud1Wq9clmFBNyzkDRtFu4hVXUc1ncT6e2+j8PiD+PSWY/h01Id4ZBjZyDAKQWV1ytHC1O0U4Az1gjOMrtjb3gbw1Kg9KsYMd4hseyrUIVSUKAjCuGlBiCD3Y9Y3hI9DHrx90yHMvfFnYC4NNJY4uR2c3y6GZKqEUbVRx1alIuFJgZDNBrDeBJYSmLv4EJyzp7A6PY56YshVIzou2xxnj4oYJyFEC47WaJNjgtvU8mQVgARm665gKl+3vH0C9ehRbMzejLXYD7CR/Q02jD9i1XoHC9YUimYBtuj/taA7BVHGZDh5GA5LmnIwxSJECVRao7uy6dsQda1QN4m0k4Xff4gq95EwpaYn3czrWferJyjPIc8lzynPrTrPhBx/CHfD7mqvC1huZ9VboSmz7ox/Kjiy6L3IpcnkEnde53EudsgZBjPtOuZsE5VCHo2Lkyi99Hucvf0UZk5OYDI4hGRwELnwEPL/VfzeK9x1gpNtmmJdThikLeDJdsxuMaM9E+hEPHwQBGhGlC11IeftRc4zgLP+Ibw1EsD0b+4DCjGgvohmcw1VkRmqCxtTAJQzjMToIqqD0PJkzxEbNxkQ3SgCC/+BfeFHWJg8gkp0WJYhsT985hQwQ4hKV72RGEU9Id3idobnThE/a0gV6N1OJtElxditnMe0FT2K9fgtWEvfg7XCY1g1/oYl8yPMmWkUWZZkG9AdTQCUENUFQAlRLgnVHYBSvo4QlV8qWbpUFDFQkYUXiSeWPO0vONXzqS8tr9O9XF1dFbPbrx4f3+5n4Mx2nkue02sBS/XfTe2qHInJIZFdd61O3r7t0uuyW8jRbRS5tJ3FY2rZOj0eeicG5rUMkM9g/c1/I33/fTg3MY6ZkSCSES+ywQFkgzLGSVd9RylexTlb4CksUGmZXhL/bAd4UnrOI+XnBDwjB5EO032/ETl/hyiIT3gH8GHEj7dvPYnVd98AFmwBQzZk1tCAFEFuotqoodao4wApSjV5xm4ahChNUgZEN5eBSgyr2aewMH0H1qcDaDAxFGX5EhfViY4A8UOoJ0dEqyNjijtQUnBqh91tHRXjPFQtqnqtvI3vixUDnDt/CBCVBYewGZ8QI4tXs7/AqvY8Voy3sGRGMWdocER3Bus9CVG1dBhO62JRPZdrhboAlXFQlUhiFp4lTNcOnq0QpevOgu7rWferAz9ddp5DnksVHlGQ404rtPX6flymi67KkbgzxklXXVmcTCJJy1JCkq2W24sqYLtW0TIw7xSwmoujefEc7GeewswdtyE+PoaoZxDaiA9aaBC5IEuSOJed1qaEIwfAcfwwJenyoS530X1vT3gWvL0oeHrBXWh3Epyhgyj4b0TO14G4vwdTgUF8fMsxJJ95DDDzMoSJhpgu3OCgPxCjdWwKO5TwpLUp4NkA2clyT4ZARfKoZgBLb2Mp9jMsT46ixprPWYprHHPheUzAs5aMoJJg9j3SxvDkyGTWrNJaVt1LBDv78jkV9IhcvE4rmu8pGcJ68hBW09/Dav4hrBt/F5l3DsgqmQSiBYP1fJcsTts0XaASpBpMR8ZEpYCyITPtoha0hKIoY2IJ07WDJ7/cyjLiTjeT5TXXs+5fHqCtLvtesLwW8CQst8uRbJk1Z/JHxDddcNLSpHVJaFqGA9NdhunAMO3tZZo2ikYeC3oSDS2OxX+9gvTPforZo0eQCwaheYZEyY5Bdz3Uh2yY3TaMb7rwDPTCCPRCpwCygGenG/tsX3hSwISxTcrPZUKs+zwI3XcDcr6DmAn04OPwEC7c+0NUps8CG6u0KEURkhhVJCZlMqK5hVVsooIWeHIiHP9HgNZ5R1E0Pw/UWTT7PJambsfaBbrqR0U3joQN4XkY9WRE9IizFKh9LU9lXbZanoTobniOSSm+ZAC1pE/I860mb8Fa9ufY0P4vNo0zWDNofeZEbadpFWFYJXeVYVhlGHYJuhCVJVwNCVBhgcoYKLPrtD5ZRF80yqKQ/lrAk19qwpLwVNYRv9Ss9+T8djVJcy+EXAerrOHc69zwGM/d+vq6KFFS1QzqfLfGPvfD4lTPIeGpiyJ3lhrJrLpMAl1icVJazipBNx3xOdScopiQyW4i8UPP5JJlYk7PYCU7jcbsJ8g/8RBmbz+N2ZEwckNDKPm9MIZ7YXLGuYBnj4Ank0S0Ljm3fTc8C8ptD/Sh0LI+q+3ycl1Fu7uILnf9soXxlxTO94ouImbWc75u5EWXUQd0L132LnwS7MUnpw6j8IengTVyj12XbiiT3ribJFpvbGJ5NzyboFnKVs06OKNDBECbVaAxDyx/gI3Er1H++CSqM4eANC041wqNU6YuIrqPGlRi2o4ltoO7rl7Dbredx+m2K5ed78W1PNkxRfX8uAeNxAAqCQ/W40ewmvw+1tO/w1bhVVTMC1gfGrOLAAAgAElEQVQ00sLdtsw5WOY8DINrAaa5DNNeEiM7NIuq3EwsuRbotvtO65O1oPz1ZwcSk0eqbXP/4p7K+mmFJ7/ozAyvrKyITPFecCA4aVl9mwH6WeeALjuz7AyDcNAez7UKj/Ayz7OC3n7toj1YdA/JwneTEw1ERp31ny0Wp1WEXZ5HznKglcvIz5WQtgykTA16mWM2pMu/YmRQSZ6H9crziN37Q8wcO4y43wtzsB9znkHM+TluoxeFQI+YyZ4J03V3i+Jdt10PdEMLdqEQ6tzOuF8OhjwuOoICl7ZhXg6Kn/f454InZ7UHB5F1O4g0TycKwx3QPV2I+3rwTrAf6d/+XCrGs+NSxDNb8kAMZXI6O+pYRkVUx2+77U0xEY6FS/ToN6TSkmDoFrCVBsy/YnHqbiydH0V1lpA8gubMMYgaz8wh1GJUYmpXeI7uSOYJ2Txm2Tk2ZFwoRckfAsKTPwqEKuE5DCQpvTeErfg4NhK3YTN9P6r5P6BqvINlYwZF00HRLMMx52HpCzD1JZjGKkxrBQbV580ydNsRLryMhbruu1sHKgrp2cbpdiepL99+7MrS5BdXPR8v80vN21TWvRWeBIZarce/zZfV+eDe+o9Zdra78twqeCpIXlt4ym4hFryzZpPlRzKrTnhKV50WZ8F2kLFtpB0LScdE2jGgzTnQyzZyeh6ansNaNorKuXeQfvSXOHtqAtMjfuRDPsz7PZgf7kNxuAc2M9QclhbuBeGZdes7aX0y5qkHegQ8BUA5imMXGHeD9OuCp5jbHuhHhkLOwQGYnKQ51InMcA9mw8P45PRRzL36ErDEJBFr34VWp7Q4WdfpdhXRuLwUniLZzmGa7DZiWn4JDYqFqAx8rQwsn8dW7nGYHx/C+uw4qtEjaESPA/EJgEXzUc41UkkYZfG12y6z7Ds1n6xNnUCTVrRYdOn5A8D5TR4gOYhGYgjV+Ai2EjdhK3UPqtmHsZX/k5CtmzN1lE0bJSZ89DlY2iIsfRUWAWquQDfnoQvr03QTSTt1oKKQXlifst5zv0uVFDxbLSIFT+4q697quhMQ33aLsxWQ4vuzxznhOaPlTquT57cVngqc18ryVH3qhKcogBd1nCxJ2oEni98zFPwol5ByTCRsHdmSCXuhBMMxYOg5FPUc1mfPYu6V5zF99634cNSDafaoh71YDHlRJjiHu8RsdiMok0XsZ2cvOxcTR2zH1II9Iu7JEcS83K7wzAp5uS5RFM8WU85nTw33Iu4fwhnfAMwnHwKSk2JOEX1vIRJP/jH/IxLo8nIddayggi0R86RfL35UmYzfQB0sCC0JkG7DkzPdt0yg/CqcqTuwMD2BjdljqMdOAHH2tI+iSWtUWG3tBkz1egh2Wpsjoh5VdhkdErPnJUDdwXCxMBB3h98lhgVE2YZaiXOi6O2opn6KzcxjWNPewqKZwYKlY44WqF6Goy3C1lYFQGmB6sYCdMaemFgSrnte1oG6hfSyC2n/i+Rb3XR+mQlLZX3yOler9UlgKlAoS2s3RL6t19X5UJanShTR6lQ/Rl8pPC0NBChbLglPFsBTJKTE6Qa6TBAVTBtp00BhoYxMyUKqaCBfMmGWTAHOkp7DfD6NxTNvIPXAT3Dx1DguRAYRFzAcQNHfD2e4C463C46/BxKeEpyZUD8yoQHkKAgi7i+tT4PuO+cCfUZZ0tdmebrwTHPMsLcPuncQSf8wzvqG8dGJo6iyNGnZBhprAow0NAX/SNFd8KR5KRNG295IDU1sooEVNLCAJh+hLE9RwrQKrF3Ahv4ErAu3YWX2NKqxE6jT1Z2hUjvl3hSo2m+nmhJ719mCKds0x1FnmVVsQo5PdjumQHgKt52uux8Q4YgR1GKHUY2fRCV5O9ZTP8Na4U9Yss5jyYphwcqiLD7IjgSovgTLWJJxUBeeMu4pi+lZuiQz70wcUaaOAf79jXm2Wp4KnjxGiPI6F2OfuzuOdsPi2wpN8d3ZFcbgudndUaR+jNQ55XVandfK8qTQB9delidrN0267JaNDDPzc0XkiiZyRbYR67C1LMq5NNbyWSxenIL54nOYPH0UsxN+xMeGkY4MIEcAejpgeDthB3rE0oOyRInAJDgz4UFkCVC3cN4I9MDkTKAA46N9l5eV+1pjnj3IB7qRGD6ItK9XSOxNhgP4TzgI86nHgVwSqK4CTWbShd8tP/oqWUQLtM7MUEPAlabmAWl18n68FxG7jiaWpY1KeKqMEx/M0qWN92BM3ouFme9iffY4qhzlyySSqJWUbnE7Jo1E/zqnfoqSKqmsVIsfRi0+IUSdaYkKXc9YCIgFALG71nSUXUmHxP2qiSNYT96O1fzjWDT+gyXrEyzZM5g3UyjrmrRA9XlYxgIMY05k4UWG09G3C+klPKWAhNT43H94Kkjyy8wvNsFJN1MBVFmidN+ZNVbWp4JG63X5Kfr2/T/PgbI4+e55nedqd1E8z6U6r18lPBnzZMJIxDx1WcfJciTNspBzLGRtA1mrIGDL0rq5bAob2TSq8Tisf7+B2H334sKoH6nwIHJjw8iNDiAb6kLadyMKgQ6YoR5sW5QslA8OIBMaRDo8KHYClGM3mHW3/O0NTzHhM9yD5PCNSAb6EQ168f5oGO/edisQjwEr1OvcEpkfJsxFzFP8R+d/eNZwMrZJIBKfhChwgP+3Y2K2Ovh1eZh3UPRtrgK1FFa1l2Bf+AGWpo6gNn0EuDAKJI/LAvO2zLazhz2EBhWhEgHRDcXBb4RnNU4JOoKR96HV6cIzGgZmaVGzPpQ/DhQS4QiPEDaSR7Gc/SXmtT9jyXoTy/YnWLSmMW9mUGZLHGOgxhxMg6VLzLjbbt2n7EDaadu0diTt9tnyVPBUkFTwbAUoocrbKeTbWjRPYBAUu+EhPirfgv/b6/3zGM8RzxXPmfpRUueXO88nj6ulrNH92i/NtkvxD7ZjqjIlFsETnvy8GeUiMkYeOS0L08hjyShgK58DsllsfvwpYk88jU9P3YzkSABZb48YiJYd6UVutAeZSCdy4U5oIbrinDrZAy0wILLVmdAQUuGhbYASnixnYlaeEG1Xy1PObL8RhVA3YqEBfOTpx9vHJmC89CIwPwdsrYPpcvrfsvRdWplMsfMIyzglMl1civZMcUiZlzXZbiQo635LCFx2IfEZ63WgUgK2pjAfvR+LF4+ixlG+52hxHmtbPU9awnLevBeNhN+FJ8F5GNXEBGoJ9u7TrQ8KN10AdJYjO2hVu6OKo+MCwPXUMDbTYSxlfoBy/iksGn/BivM2lu1PsWjFMG9qIonkmGWYRgmm5cAQMU92Ibm98KLm0wAl7bY1Qa8BPAlMZRG1fsnVMfWlvpz7/m2Hp7I6ube66wqS6vxdbleAvdztX/T4Tp3nToG8aMsU/erS8mTxOz9vZtlBwSy4yaEs1gs5IJ8HZqIo/vlvOPuTn+PcocPQwwFoQ13IeDuRjnQjM9aD1FgnUiMdyIW7UBDwZFxzAIXAECQ8h5F2AZpn5trfB8cna0LbFZ55bweyA/8vjEg3pvw9+GjEh+j9PweyaWBpEahVwQKlyjYiiUqmh9jVzhokXiIId2o+D0ieuvAkJXmRliZ394nI0q0qUKNXX2MWXkfN+r9YmrkJa+c40vcEcH5Mxj63M+4EqloqBuombIQak1JkUkId6j7XYmeSKIhmkrWbl4NnGM0EZ9UHAWV10qqeZjcVs/HsPAqgme7HVtqDpfQpzOUewJL+HNbsV7HqvI9l+yIWrBzKlgHHLMI0igKe1PxUxfKi48jWhZSd0ANVgsrXCJ7K0mz9oiorSQGVX3Llvqvsu7K+FEC+BQbn9lvc/d5VQTzPEc+VOn/Kwmzd1TltPd/7dZnKSbLDyADHaPB5CU/Z127BpNiHKRfvSwWwkqFhLp/BRjoJpFKonXkfqd8+jE9uuQMzI6Nw/F7YQ90o+LsEPJOjnYiO3IgE4TnC7iFan31yrLCA5zBSYS5anxQM+erhyXlDqgaUozc4UkPzyZ2XRd2nGsuhjns7kR/+P8gFO/CJrwszd9yM5Vf/CqwsAlVZmrTqBi4FIOl9UXEOFaGntIoa6NSL20T8c9ttJyfdJndlhEp/flsrZJ1qdTWilnkoC9h8F+uZ+7Hw6W2oUzR5it1HnAXkA4S6Envfj7rxUHbthIGED/WYVyq6x0dbFN2lS8ykjigVEll7mR3fryFwIlnkxjzpftfjY+7fZ+KIup4yoSQTRmGZ/BIuu8rCy86jZtKLetKPSmICW4nbsZF5AJvaS9iw38VycQpFJytk6UTvMUtZrBJMcw62WULRYF0oRZLdKZyEquhQcqQVus/CIK2W515fYHW7Sm6o2k9anOKnsyVhshdEeWyv49sUarMLn/e1tr4vngu2sqoZRTxXCpCt0FSXBdBaknJ7nfcve4xg1CwmhIoCkpzgyqy7LuKaBTliwyZYqeFqwyhYWLBKWNIsrCcSwOwkSn98HtPfO42Z8QDSEQ+oDm96e0XHUDbcg3S4G8lQJ9LhLuQj7C7ibewoouXJJNFOvJMxT6ot6ayd9Mte989jeYqMu78XnEt0udlEl0KR3UGcrd6HVLAPiVC/2DOsKfX1wGBlwHA3LKWaxK6hIFswqdUp57Pn/YOI+ftxITSM98ZD0B/+DZCMyv71Kuva62LCBrnook/2tIvWIYqCSHde3MivB912+S3hFQZFaXmq4Kg0PvlkxOWa2JlpIp8dALNolv6Chan7sPA+g653yK6dRL+EZ5TKS5y8ye6dMSAZANL9qMb7xOTNanIU1cQhVONH3JgjrUPGGwkuLhek+zZBMyIALrLuqmTpkl39PbW31qwqkBOwblyUr3EmhPrs97CVehKb5ptYLE1CL6WRddJIF3MosCjZnoNlLKOkLWK+sIB5rYQyFcGp7i0GytnQGKNyM+Hqi/lV7IQnLVN+mfnl5+XdoiEKJHuB50q3tRk35cf8MrBvfW/qPfEBvNzqrqssuvpv82Uh+GUfx/503ZyDxk42wxGlSpzkmi+mkS2lkCnlkC5pyPPzpJVhpItY1Bexqs9jPRbH6gdvIvrruzF13INC4P/ACHXKIne2UgZl5xBV4fNCo3MvYWOWJ7HGUy2ZWWdtZ8Ev452fF57KcrzcTihqXoKPO3vSWeA+IOKV05FBxEL9SFKExNsDp78DiwOdKHu7xXyihOc7iIe7kBjpRcbbA2uwD7lgAGeDQfxnZBSf/uD72Hz9XzJJtLUCbC6h0dwSWXYFSQVQAUte2T6w88mWCSNxo4InASrNUwK2FZ4booCJE5DmAeSA1fdQyT6P5bP3Yv3crahHCcl+CT668hc5fZMxw3EgHgBSA2ikh1BL+VERwhtjqCQOoZYYc2OOLjxF2ZMCVjvuEWA2BEz7gZlbsZX4X6xrL2PBeRdGaRr5Ulx8kPMlG7rF7qMVF55zmNcclJkhNVmuxGmclgvP/WvLVF/uz7urLzPhyfpFyqwRGq1QUR+ZvY4p0Kj7fNP2VmCq167AyXNBLQD+0LRal+qcfZW7gKcxD91YFCEh1nmanG7gZJArpV14FpCzLWiFIhbMZcynbawmTWydn0T22Udx7rvHMHO4D2bw/4ERulEWtu+lhPQ5j7V2EBGc+wpPHzU4L4VnPDiI2fAg4qF+pGkRE54DHVgc7ETZ1wUj0IF04KCA52yoC6nhLugDvYgHA3h/ZAx/GzsE7bnngGQc2FgW5UnNygrqIDxlazrTO4KV/D9CUC0XoAKXzLbzuPinskLMDFEUxJX43ClgkhYoM1JNMc/DAmpRYO4/2Jx9Es67t6EycwRIDgt4Ni8eAS7SdeditjqIJovOM37h9laTQVSTYVSFnF1EuPLCqqPLTkuVIN43q3OfASxeI+fAj6A5czM24ndjJfcw5s2/wCl/AKs8i0KpgDxbM02WLS0L9aSy7qDMGTSGJuHJeTLsfWeAf59d9i8CTt5XufBMHhEWqvd9Nywvl0S63HH18Wr3vRWgvMw4J8HJ2UQ8NwqSPFfq8le9C2Uklr8Jy5N6sBwAx5rPHDQni1wxj0yJg91MoRC/VFzCSsrA1lQK66+/hckffQ9nj4YQHeuFNvIdaBHVj76HEtLXDE/h2qt4pehH54iMAaQCA0gEB5AO9ItuIc3bDXuoA3PDHbB9HdACHaLcKhnuRjTQhbS3F/rwAKaCAfwrHME7P7obtY8/BJbnAVqdoo+dnZXsV6+LhBGZtyc8CUsXoPw8H9imrAiGMtuulrwj70/rU03cZME9nXdhfTY0YG0KyL0K5/0fY23qpEjIiJgnhTaYcIkSnofRnGX7ph9IBQU8a0k/akK5iOpFQTQSLGBnXSUTT5SIU/OQ9hl8+wFkNgPw9U1PoDF7HOuxU1hK3415/XHMlf6FublJ2CUdmsnY1IIomOcI4qIpLU5anY7FccM6DNuU2dGvAZ7qy6/AyV2BlADlbB4K/rYCtPWyAiKPfdPhyffC98FFcFJ1iueA54MWJ88VL3+d8BSZdJa/GQwFFcU4bNZ52gb73GXMM1PUkXNMoaJUMixUUwVUz5yF89jTmDpxAjOjfsRH+5AduxH5EepwXkaDsw3gqVx6xjs5Vz3nG0DWz9WPHIU+hGXaBcvbiaKvU8woyvluRDbYiVSoB4lgD7LBQeT9HK3hxyuHxmH+7a+AngM2loDKMtBkvJPtllLRg3z7QvBkGkjKyLvgbHCXpic3PhnjnptNCVJx/yZnvZPeGlA+j6WLT2Lx/B3YmmFc8LDseVcCw1Scn2ULZ9itt6T16UWNKyUTMAKerBFlVlvohrLPnJn3NoQnXxc7q6aPoxGdwEZ8FEvJ41gs3Iul4gtYKX+A+WIBll6EZdDyXJSjie08bDsHW805suh2MSv69bnsCpYKnAqotECZJGFR+OVc+Fbg7AVVBdd22RUcL/daeZw/FnzPfO+t8WB1nr5eeBLkrOLgjHUKHbOfneM1WOsplZKyRQM5R85sL+UzaMzMYu3lV5D+3o+QHBlDLuRDKtyH+GgH0pEuIXDMeOeXXdfKbVfglJl1mTAiQAtc3n5oTHJ5e6D7ONitA2aQo4UPIuO7ARl/h0gWpRkXDQ0hGhjEu+NhnLn3J6gnosAKubUM1FaFIUhvegM10R4kCoqUgUksKpdd7dsmKXCAYGQBqEQkB8FRho7LTcu7+aNKA9jiaHf3+cTt9Q2gtgSsGWga/8HC+Z9i9cJh1AiWuKubqQrN2YE0O46GAGgAjaQH9eQQ6qlBAVIJT7rrLbWV26LF7QZQFs+zkuCUGGG8mRzESsqLldytWLN+jXXndaxYGZS1opjZzm4jUa5UzMAopt3+dml5Cm3PNoQnYcrSHMZA97JAv2ng/KzXS3CqkiRanPzxICj3WuoH5qvfGTKwYQpFeKkSX2QMveCgrDG0wM4iU+h9Gk4W8/kYNs68jdL//gbx8QmY3iCKHg/yoQHMjHYhHiI8vzw4RZKpRUVpP2OehCfBKRel7PpQ8PVB9/TBHO6D6WEyiTOJOpHzH0Q+3IFc6CCy/huQ9h0U6vdsJZ0O9OPTQD/eu+0k7Df/CSyVgOoaUF8X+h3S4qyD11jn+dnwVERtSnjKsUZ04GlxtsCTTHW7kmq0OhU8laHKonmKhlRXgPUEVmYfw9K527A2eQxVut+JUTRmQsAsM9SE6RE0hGXK+KfXBeiwcPVFqZAQJiZkVXlQu1qehDwTYTejkRhBJdWLjXQf1jMT2Czcg039Jazrk1jSCihT1ZtxKs6dKeagFbNum6aEpyOUlTjDfe8v6l5f3v08plz23c+pjnNnCROtsd0uvAJSu1iWX/Z1EJy0rtUwt1YXneeF50Cdn68emFKHYPffZTeRrRdR1IooFUooFWiR2siLcdg5lO0U1tIX4Lz4DLJ33IZkIIDikAflwUEYkWHExvoRD/W0NTxZrpSndJy/V5Qp0X2/BJ7eLhR8HOJ2I9KhG5EPdULjSGFvh6gISAQG8JG/D2cO+zH94C8kOLdWgQb9aKaHWLvJEqXmJWHJ7VCm4mSr1UlXXBibTRxgPFPe2SUiY57C8mTiaPt+UmGeKvM8RKCKC7zCGR5VoF4EzNexNnU/Fs6ewvr0KJAeQ33Wh8aMV7rg8WNoUkQkxoJ0zoH3oZFk109QzFJvcqyxGMTWrtCUFrCYshk9gmb0JBrJMOrpblTS3dhKhVFJn8ZW9lFs5t/Guh7Hgl4QYseEZ6FYQKGYh1ZkpxGHwjEGSlFkzm//+uCpwKB2BU5e55e2NQvPFkXGN///8o/vhXWcTJDRyuZ7Z0lS+8Q5W+FpCPV4tmmyIJ5hIUcro6jNiZ3wpMJ80UxjRZtB6f1Xkbj/HiQnItACHswNDmJhaABmaBjJ8SEpBNKmlifjmQUfXfOdGk8xX91Lq7MPBl12b5dQhE8HDyIeuEGMA7FZauXpRj4wiFn/IN4bGca5n9yOxbdfBSorqG2soF6nAJLsGNpEU7jrxKmyOsWnWzGyhYEyWaTaNl14bgdISUuRbaf1SXi6HUct5Z9CYIm8dGvqxROSxvVlYD2GauIPKJ/9PpanDwH5w6jFvKjNDMjaTbZwzjARxGJ6Joi4CM4RNISqEQewEZwsWeJizWW7uezskhpFPUYB6KNoJINopnvQSHWjFvcKoZFK4heoZv+Kiv4plvQEioYJU8DTQL6oQytSJESOJC4a7IX/+uCpgHmlnSDh7cw8EzKEDV1cFTvkri5/E6CqXi/fA38M1ARMvs/d8nI81rrUedptCX4V1znsjWpKXHTRLb0ESy/DphAN9WQN/tgVsKjFsZn6FPHnfo2pO48iPTIkiuHnh/qw6BmA5utHKjKE3MiwsNC+bLzzWrrt7BSi5iZddM4doogxi+Sl606odqNAlz3QIXrxo/7vIB/oQpGqTsM9yAU8uBj04syJMaRfeAgo5YDKKhoNOQNTDHJrcpibhCYTRTuGpBv0VODkTpiKjZ1Hsi+zxfKUN4lOIyaMtuHp1iy5G61OMeeIsdDt5+SVdaBWBOyPsBJ9EKXJY6hkJlCJ+1CL9rs942xzpHVJ65OQZGsmBYkPoyksOcIzIoWIKQcniubbEJ4UCImPoMqwRDIoy7NYhhUNiLKseuxHqKWewFbun1gzzmPezMO2dBRsC3nWdTocECeTRUWO4hCz3L8ey1PB4Eq7AgOtMsZB6cYzDtpqhSogqV1+1P77/78OyO5+TbxON53vge9FxTcVJNX75a6OcW89/nVcJjx1S0PBzLsdRiXoWgk6wWnNw6a2p57FWnIKxdf/iOlffBeTJ4JIBSns0QPH14MiXV8fO4M80ELDouh9L3jKuUMsgr/SunSchkoe0c2+/NpprVRJob12tltaw70oDvUKiBKcmQABqp67G7lAp5i7nvDfgExYFvzzMXnPABIBL97zDSH6wE+xfvEdoLoA1DZlIlw41E3UmCB0sz3KkRZe+V5W5zZPd2RCRMJIuu3uB52PpvUp3HfuXJdgctub5+MYL5XZeja/rwPLBur6X1CeuRPzM6PYYEsmC+dZJK+GrW2P+uXoC1ULelyqubO3nPcnjIRQRzvCM4JaIoRKiomvIJAIAdEQMMOuI8ZDb0Mj8XNspZ/BpvEulsyEqOukqjxb6whRtm8yicQRHBzn8XW57VeC5u7bFDDoxqtaUMYJGQul+6uWgtXuXfw8u1bq7tt4/bP+7fWY3Y9rvY96PnWMr6/V2lSlSLvddPU+223nwDeKaufNHHSWTnHMi1FGnuVL9hwcXcN8LoHVs2cQf+jnmL7rKKYPDYqi8XxQqiRRc9PwD8L0eaH7h6AFpKjxboAqEH6RXQLz88FxL2C2HmNxfHGoB/MDPTA9MuaZCvaCKx3sQTrYhUywE+lgB5L+G1CIdEP398IcZEumB+eHh/HxkcNY+OfLwGoBaLCmk0ahS0F+3NRHTl3mztvVUse3wcmsEMcP0+lvyjpP9Xziwybg6brvApwSkTLauYNLMWlTPAmfyL1PrQasrwKLH2O98BDyn4xjJTaCepr1nUwaubOERM842zYJzhPuIjxZ4hQAkr1AYqiN4RlGPRlANe1FM0nleTfJNT0GXGQZ0wk043ehknoAW9orWDHOYt5MiKQQ58uI3mPbhMX2SIvg3ElI7AZWO1xvhQhfDy1QApRuPEt66PaqaZwKVPwsKZhyV8e5tx5vvdx6n93g+6zH8f6776OO8TihSdDT2uRr5mtvLUVqJwuz9XxfctkyYJdMaOxlF91FRdjFeeQpQ2eYWCzksBKdRPkfL2Pqe6cwczSA2UgvMqGDyI10ITPSDfav64FB2B4PDN/gNwOew4SnBGcy2INkqBupYBfSwU4BUG2Ubn0Hsuxt9w4hEQzgrYEBmA/+FohdABoLQiFeetUtcFSQvNy+C56knIQnrc+m1PPkfbb/iQfQ+nQBum3Y0sBlVIDdn2QvRyHJJVXwGkCF8ku8SwFY+DvSH92C8sXDqGZk8qgp1IrYQUTYHAFmOAP+ZmDmpAQpLVK66wKeg6612o6WJ+HpQy3NMR1U0D8h3wP7+KcoZcfxHkdRSXwfm9knsaa/iWVrCnOWLkAplG8oFyfEiakkv1OA3Q6w3P0a1BdYgZO7OqZceSZbmJGnK09Q7fVPQYz7fv37rOfka6GLztfG10gXna99L2tTAVS9t7bbmShyTLFoeVLu0CmVkdNYU5zHRi6F5Q/eRubB+3HuUBDRQC8SwS5kIx1Ij3YhOtqJeITTLgdRHPbA9A5Cb1PLU7RdblueLFkiPCU4E4QnRZuDnaIgXh/tR9rXiYSnG0nfEC6EQ3gtGATefw9YLqOJNTTFTDY34+3aesrmk1nwPaDqfky5ka8SnjvlmlJJXgCz5eMsHrT7IQQnw6pySYAy7Eq1O4rSAw3eRHjWF4D1TzGffBjW+VNidG8tyfpPJoEIm/EWeN4EzND6PCol7AQ8+9rc8gyhnmCBPwHPH4ObgIungEw14oEAACAASURBVItHpeU5HUEzGkIldgIbqV9gvfAS1swPsGRlUDJ0KSNmOwKelkMB2/aGp4IpQcnVCk8ChscIJVpzjCHSEmVSiVbl7n+XAyePq9VqjfKyOn6lx+7+O3wcXwNfC19Tq6XJpBAXAcr3QguUe7vDkzHPglaA7diwi1TsosXJ95HDgpHDxsx52H/8PS7eeRqzIQ9yLPNhOdJIJxKjnZiK3IjZSBe00CDKHg+sNoenPdyD0iDddhkKSAdocVL1qQsp1+rMBjqRo4KSvwexwAAucKDbaBjZh34LZFLA+jI2m2y8pDHoEnAvePJYqwXqMtHdtuGpHsq77g3PSz6Je0GUIJWay9Jpl2X2wuAQVfQbQCUHLLyF0vR9mJ+6BWszR1FTUnNMGLVanwQnrU6RhQ+44KS0nQvbNsu4swe/HvOhFh9Ek+pPhP/0SakgdXEEmAmiGfWgEhvDRuK72Mg9jA39Vayak1gw0igarPF0IMDJ5BEtCqt9AdoKTQXS1l3dTgi1QpSZeVp8hJiKi/KjdTkIqttaYakuX/KRbLminouw5N/g3+Lf5GwmBU2+plbot0KS76P1trazNt15U3xdhmEin+dnx4ZTLMrWXi2LRYtWZwKLb/4Lmfvvw+TEGNIBuuX9QlKOLnsi0onp8EHEIz3QwoMoeodgslOnTS1P2XrZDdPTDd3bjTwHt/m7kQ10IxPogoAmwRnoQi7Yg4S/BxfCQ/hgLID37zwNXDwPzFO4fUP4yuJnXKGsFZKtlxUpubfEOS93lwPbWXUR69x5UOvzyOfiUyjuql2mitQtInMlrrCWaQWoprGefxHF8z/C4oWbRHmPmO1O4FA5if3h7EYSwiF0zwlLJpY4eI07++EjbbjCqEd9qEeH5dRQqs1TNHn6MDDN9+UDYgOoxX3YjB/HZvoebOafw7r2rpj3PmfkYLsK84Uis/Cyx70VSO10WcFRfoFl1pnHCEsuBR91P7XzNmWNEqSMixJudKMJOrrUn8eyFB/kXZYpH8vn4HPxOfnctDJb45mt57AViup46zFe5vHdx9rqOsWOdQsskLeEoIwOR89gy85hfepjaE89iujpU4hFgtB9w7BZD8mha5EepCLdiIapEN8LPTwI2zsgWxyphLRHe+YXSRSp++5nwkgmj7qR93ch72Mx/M7iMZYpcYnbQ/2Y9fXg/dAA3jt9FKnnHgNW2YLJCiCad7JCSHBMge1yRNwFTT5W3VVy0L2D0POkr82ieJEc2sGkegD37QfJT7E8oF6Eezv/CO1R9r+zyknWM80Bix9hcfq3mD93G6rRw6jTdY8GgVkuzgkibKjfSQX3gLtLPU9ade25wmjMBtGY9aPJDDsTRdPsyWe8k+ImEp6NuAeV+Cg2k7dgPf0brOf+jjXjLBbMjMiy0+LMOQUUHE0ozasvdbvuBAmtNgUaBU/ue4GHxxRIaf2xzIkwpWYoQcfkjQIqY6VchCHX5a4rUPKxfA5amMya83n5/K2vRVmYalevW51fBcbW96SOteNumTZKVhmWJgv5dbsgPkvVfBzF117BzI9/iJnREeTDIZjeIVhD7P3uQSHci3ykD+lwD3KRfmhh1npKIeG9wMljCohfZN9PeGYDzKjLxBCtS41yc97W1SkmfGo+qt0PYNLbjf+MDOH8L3+ExszHwMai2y0pbT5ReemC8BKeCXtRwYwF8LJ6iAkhgbHWx6i7uVA8IFqVGhwzzNZMHt0JjqoHb/+x1gcrurrHeF+GPNkfWuNtwgytiORRI/8XLE/dg9XJMRn3jPqBqFdCRlympckuJJ87AoMJpTE0oyNtCk8CktYzXXaWJ0lhZLGLHwfCcxCN+BCqCT82E2NYS9yDtfTzWNfPYNlMwtE5Y0ZDxskhX/rmwLMVKgpCyvJUkFLQJMhab2OMsVAobAOYt/E+CqoEoAIhL6vVekwBko/la+HfVPFLXld/e/ff5d9Wt6vXrR7/jYGnYaPMek6tCJ0xWzuPJT2J5fPvI/7Yb3D+5DEkfX7YoSAcuuWEJ/Uwg33Q3TnrhWAvCqE+MWKY1l27wjPDMcGhLkQjzKh3iW4iy9MFe7gTjrtsanV6e5AN9OGstwsf3noYxt+eBTZL2ForgcM1BNK2pH1IRsmAo/ShJQMlMFuhyYDkzpI83GYsH8QnajDmyT7PpgtPYaBeBp57gVMB1O1A2mpK9SVyU/wBUrRG6/Mc1qIPovjBOKrsMBIWJovKFUAJG6+UrBMxRMJzvM3h6crS0XIW/fvKmqZlzffDUqtBoWFajfmwEb0Vm8kHUdH/iXVrCiU9D83IIGtnUShpYrqmuYeuJ3ve1VJf+q96V9AhkBSUdoOHxwnCVmCq+3BvfY7W662wu9xz73UfHlPPox7HYwQhQcnVCkXe1voY9Vj1unibep7W2/bn8l4F9juvf+dv8H6710575nY/u16CY+hwjDRWU1OwX/0jLtxzJ6YORaD7vCj6vZgP+WB7+qF7+6AFB6AHB0S7Y87XjXywB7lwj1CM3094Xm6kRmv95ue9nAn0gFn1WIT1nNLyND2dsD2EZwccjt4YYmlSH+LBAbzr60HyoZ+hmT4L1BfRbG5io1mXXjCJSRmOFniSUapGXYGTQUge2wGntD4vMR4vgaewOF2Uug56KyfV5W3yqgO7dl5VzytNXj4nobwKVCzAeQ3Lkz9F+T3qdTLj7sH/x957uMd1Vmvf/933vi/E6tL0Lslyd5wQkkA4BA6hQ+BACJwQOLTQDofQQjgkISSOu9Wm95m998yoW336/V33evaWRo7tGHscD9i6rid7ukdbmd+s9ay17hvzHrTmuLfJfc0QGmF1mf2gbQKpR9N2FXVyu0GtdmQCrai1GJVy+8ENRPkFweVFK3Iajdi/o5Z+GTvF/5XWpaVKEsUKlb+ZulNV3oBWVqOcpZKBssy9c/Z9f/E23sfFJvuDcnZls2f03vWNWoDpBJEFps7jPhD2P/y8rfN51mOuv43Q61zW4271/M7XsJ7b+bzbudz5Grfz+Nt5jBqp1MCjejyhqZSRlDoS9zDZ8K6DPuwUN95fvK6bJm/KHZNSdJShu1bMYTsbwdb5NxB5/t8xfWYS8cMeGD6bNJUv+Bwoeexi3JYP0KjNgZyf3uu02RhGPjSojv6RfzxFlymf9zfDKyEP04DNMmK7w6NsAXCiyK+iZO55ZpyPQPNzr7MPGsWPnaNIex24HPLi4tOPYfH13wIbZaC5g3atui9NbCpsWnyyYj6FsP3IsxOiBGnn4w7wj3fseRjJPV34j7wb0noXVVxDFZS3p9tmDdiIoJb8GRb//jE0rjJqcwFhP1pUY48eQSt+BLVwSFp8pFgUYWqvACqwYkTaK4vpuqTsPE6iFZ1CMzqFRoyL2w3cs/UCETcQdgHzPLI49jga8S+glvspdkp/w7WFeZQqReQMDfkFzr0ToLq5/0nRELof7i9eV+ZxuoLndZEqm+3LMq107+BJwNxs3Q5MHqzHWEIeBRH04Dw6gUn/IWtJ8UccMNnCVkDJyKNk5ETcWCBKXQGKgOgVKRSJXbVWwE4+icbsOSz98mXMPnkE0Sm7NMCXfYOQ9NY7BkOa4F3IBTzIBl3IBB3IhsaUpXCIQhqDyN8BPG8WPbJC3q1V8NDK2Imik/qd3GoYRcz1EVFPYt8qYao7RhH3e/DmeADZH72MWiqKdmsXbQ7r7DT30mAz8DxYu+kC7pQBXBdeaL+Jij2fNRG1pz6zNDFx42EnDxj/i82Zr2H9PC06CEZGoCwKUShkCs3IBJrzZvrLGXfLCK5XoGm9Dyl0mXudkQm0I4TnkT2AtuR9+4CIpwOeLCadRiP6GVQzL2Fb+yOulS9goZKEVs6BVff8AufeaVOsAEW1pUWdth1qUYGpzEjEbG2i2Ehni9NDeB6Mcu8/qK+HJ98fAargaQFRBD04MaRzP5hz63kR+KAzpmGovVpCt0wRGU3HSj6LWjKCjbdeQ/grn8aVUwFEOWUTGELJO4CKbwRlE54FvwtZE55ZwjM4hnyQvZ59KAR6GJ7eUWg+O/LOUeQ8quiV8lCr8xA0bjkExpB0juJy0Iu3P3Yau+feEZHjVruGGu3RmZezCMMEmDM/DOy6/NNFeDKW5bul3BP9jrl3oNSXJP6tLwPrc0DhV1g69wR26fNOsWPabzDNNUc3G7MBtOeDQIKRWg9FmxY4edyDJ+fZFTxbAk8qLU2hJeBn6m7Ck9Enq/DhE6hHnsFO4lvYzP0K1/S3sFyeRZkArRSRr5RRZNO8NKKXUaFoiM6llJeYvpdLJjxFt1EXtSYrEnwIz16HJ1N3s9VIIkkVTVrw1PUidKMAzchDMxitUkGJKb8BXf5fMLCcy2M3l8XOlQvI/+xlvPvEMVycciIaYg/kEBh5Ep4lL+2AHSA8Mx3wpPixgmd/T8OTOp5Z9wi0gEMKXCkROB5C3jMgxSN6GM16bHgz4Ib2kx8AxTRQ30addhotDu4ANdOOTQBqQrSb/OwiPPnuqI63JdEmr1G2jlKf6s1vA1UDWDuLa7Nfw9qlR7E7NwUkqJ5ENSKmulNozYbQnqNNMItGPQxP7smGAwqKkcNoRRh5Ep5H0BRLY7Zemam7bFEwUj2KevhJbMe+hI3UD7Be+B3WSmexvBBGqUITL1oV08OdI5ucea+gwj0ugyC1ZOu4b0homsvc/yRA7xU8738E12tQvN33oyJPKiERgqoYpOBZ1gjOfXiqfVoNmlFE0SjI0mgQSHiWDJkmWtJ0bGazQDqFxT/9Dle+9Fmcf+wIrkzaEQsMSkS2EGBj+SAM35iK3AjPoErbGXkq5fhhaIF+FANDPZu2M/1POgegTThQHLch7npEejrZMK+5RhH1OXBh3CsK8cgngY1loLqJarsuFLI818ggGRvvbXgyXd9CE9eU2h3fNMnPYFRC0CbQoEdyWqkuXfksVi8fQ5PRWcIPSLrOfkkuum0Sniqt75m9Tiv6JOgJT75nRpTiz2Tteyp4tqTh32zBYtEowi8ItmqdwU7kWWwmvonN7E+wqf8J6wuXsFBOQTfBaZQWUDIWUDYWUZajEg9RavMKnqWyBqOsNEFVcYnw5OP4PNV3aUWkd3t8CM/bheXBx1nFIq1sRZCqaMRIk/5DnQDl9JDGtitDQ4HyhaUiiiY82Q9MgK4WC2hnM2ieP4fU917Au0+cwtVHD2N+0oGEbwDG+AiWgsPQ3P0wfKMo+ik950Qm6JY9z1zQIeluMTAsFr2afwiFHt3z5DRR2jeIJAU/AkMocMzUM4SicwSG14WZoAcXPnYSi//zc2CtAmytoF7bEvfLLQALzRrWzSL2QaHO7sWeXYs8maQ3sYE6VkRpXoDJ3nsRCrEASi+PFWBzFmvRl7B85XHszlN6zgfM+dR0TvgIQAtjHiNUYerB6FPgGQDm/WaPJ83tDpt7now+KZbM6ShuR7B/1QmwnzUSQjNyAtXIU9iOfR7b6RewU3wFW+W3sFyKSbTJiJPgLBmLIjlG2TG5zmhUijUmPEsaSmWlRs8K/F7USVdFgWf3ikYP4XkQird7PphuE3xUdxcAstuAfyu9hIrAcx+gul6GZpRQLBkoyOLzrOeqiHQ9lwFiUaz86heY+ey/4ezxCUwf8SExaUfG1w8jOITFwBAM7wB0/wgKUl13IBN0IRt0IscUOGCD5h+B4af+5XBPwzMbGkbM9whSvn7o4zboPhuK9lFkbXZcPjyOyDe/DORiwO4aavVNVFustUCM0ctoYNlMeuVGBnAM6Lr401V4NkDyXxMBegue8sat1J1vnqLJrRJ29b9gdf6L2JwxfY4ERCwWce79GNqMQHs68iQ8fSoCZesVU3epuFvwHEeL8IybPZ/S0+qXx9QiZ7Ab/SR2E6y8v4Ad7XdYM6axYGjSlqRAqABqGEswSotgNMpKqxSIytz3ZNRZFJFl7oNSD1QiT53RKkH7EJ63C7l79bjr4cm0nW1J9Ftnu5FEn2b1nZ7sWolyhWVT75XgZcpegMEKvJ7DViqGxjt/Q+YrX8KVMydxeSqAmaAd6dAYCv5B6D4WiwZQ9g8JINnDmQvakQk6ISk7ez0DNgFryTcEvcfhmR+nelIfMt5+mZSqjHuRctpxdcyGq08/gcU/vwpUr4mhG6sstXZTdIk4qLMGYFX6Ohmw0QLYVHPvTXhS1XMXNVDq3uxGJTRJfJP6An4ZA90ENuPYyf4Y69OPYecqiyncQ/SYxRgWi9jO1KtpO98rtxpYEGL0ud+yxD1PRp6N2Dia8QDacS/aMSfanIOPeqSNqRE5imrkUVRjT6Oeeg7V/I+xqZ/DkpHFolGQFiUClNGnUVqCvrcqyuOd8CwTnAWUBaCd8FyS1P0hPO8sWuwmSC14UruAIGTlnD7rFc0w7YJLKFvwLC2gWF5EsUyx7LJEoCwaGdRB0DJYLKawG5lG6UcvI/LEY5g5EkJ40ouY2Qdp+Blx9qPs7UOZEzkEY4CqSjbQRTIbZApvFyEQzrsLPDlh1LNpO509B5EbH0TeO4CiYxCVcT8iLhcuBoLIfe87QD4u9sFo0QOzjd1mEzv1tlhrMGVfoxAdO33q7JA3VZV6E56ssdONblfepyn9aRaLVKuAbH3Km2fX6hqa5b9ibfo5rJ2n/QYjTValWWShd1GPpuxSbSc8GXVa8OSMPvs9D0vBiL2ejRitOoJoxr1oxpxoRh1oRZ0yRdWMjsukVT16Gs3EU6hlXsCO/gbW9ChWjBSWjBwqbJgulaGXFqGVlqCVuaikU5JikYIn7T3M6HMv8nwIz24C8G5ei/AslnQUyrTPsOBJMQ9dWo4IUabwbF3SSgTnkgnQijTVl/Q8FrQMlgtJrOWiaEyfw/SnP4H4iSOITfqRCrmgTbqR9wyh7B+WNiXDc0giUO5r5oOE5xgyIZtANB9QKkq6bxRl3zB0wtN3YyuNW820fxh9nnkqKPn6kfY9goJnUIRMsl43zrtdmP/UM9h6+68SdTarGzIXZLGFNkFM3ddbtBNW+FEmlawYdfeni2m7CjD5DSA9VVJuZ5qubD3Yvc9fisFovWFaFm/F0cr+Csvnn0Zt5jDa8zSKY5ElhLbMiCuBkJ7b9+R7YxO/BU9pXWKzP/c9GXla8AyhGfeBAiGtmEsiUDWGyvR9XFL4VvQEdmPPYSf3G2wUL2Jdn8OqEceinoHB1pUSK/DWB2sBRoWKOtTQ1FAp51EpF1Ep66hQl7LE/c5llEuLt5223w0cHj731tGtgqdhwpPFIkaeGhY0DYuagiiLR0zZSwvLKJQWUTD4hVnBYqUMI53AtUIKNT2NtfnziLz8bVw6cwyJCT/SITdyAaeMXRrS16l6PEvefui+QRT8wyLVlg2OIh0cQ5YpPBWUxIaDrUwKnkX/qMy33wqWvO9mwOy8vVsN8vI6hKeHvagDMPxj0J12zDkdeGs8iLXf/jdQKQLtHbQk5iRdTIUipreWz5q5zamkPrrf6HkP4GnSXfxCzOmitlKep0cy60c12fvk9OYysHAJ2/PfxtrFw2iEnWhGPGJX3BaVpX8GeLIQRJjuw7MpEegkGtT9jPvRjLvRjrMw5lTFIxaRRBCFe7zjqEU+gd30D7GVfwNb+nmsGzNYNlhAykmkqVUWUKgsoSCRZ0V6O8sCzRwq5QIqVKiXGXjuky6hxGr9bex5PoTfreF3t+dHpe2Ep6nZaugmPItYFEtqNT3EHk69vIScsYAi5eZK9GMvYjWbxm4ugZ3oVRT/8huc+9zTuHoshGzAhYLfIa1IbEkqe0dQ9hCegxJ9aj42vw8jGxhBhn4/wVFkmcITlL5R2T8sseVH0nZGnrdQUbrJKGYnNK3LXYUn1ZL4e3C/kyOnHg/O2+2IfuULqM9dBnaviRC7BGtEjsUUK2jj0czUVc+5CdguBp9dhSffL8Nn9cNOKzYNqI4rNXVU3yt8qcb5XWBDA/Q/YvnSE9ieC2F3PoB6xC+z7mrMsRer7YQlW4+4R8sjr4+jzdQ9MiXpe9OsuLNo1Ip70I67TXi6gBjn3qkgpZ7biDyOWuKb2M3+Cjva69gqncVaaRqVUgJ6maIhZeQJz9KC2QfKCSQNlVIeFdn3JDxZhWdBifukt1cwuls4PHz+reGr4MkKuukWwPFaRp66giejUJ5DzSijYFSQNxagGwuo6GUsZ3OosbqeimDtb39G+Htfw7mPH8f8lFfm1NmGxOqzgucoCEODI4veQRSpgSnw3AcoBYM5ilnwKZk6g9a+XgXTG0adTOf/AXASoN2Fp1KDSrsHkfJw3zaIc4cnsfPGa8BiEWhuQflYmBGnBU0CiMuqt5jmFrwqNRcLT104dhWeli2xGtXcMGtemyJU1wIVnXdN9yNT/Y6/ZLUKbMxhM/Z1rE4fxebcJOqxkEzp9Cw8ZfySE0T7AJR9WilyHRaItqPcA2XFPYB2jEUjNxAjOC14mopSER9akROoRT+DWvJFVPO/wI7xZ6yXz2GxHIZRyUGrGMiXVVrHfU+KgdDK2IJnxSwa8XY22dOe4aBgyI3n0R/C79bw68b5YVRJ0z9OFkmxSC+Kk8CCnkdZ5/gl90NLyOklFMpLKJcWsFgwsJUrKBuJ2Uso/+KHuPCpM7hyKoT4hEt8hyxwlnxjMk1U8oxCJxB9wyj6hgWeuQBTdwXQnLQujaBowlOX8cebwPMfhOa9iTy5nWBH2juGObcd8+PjSH3pC4CWEidM5rD0XCcUJWe3oGmB09ojbKvwTdyBugDMzpfoGjzld6AQ8t7mA+F5DQDhucNamCTtIvnEcJpfA/xF+UvWNGDlD6hceQrXZllEOY5GdFLNvPdin6fAM6AU70VByRQwYXeAAJTFLqbxFDohPH0CUNXzSYh2SPFx7zQyhfr846jHnkMt+13s6r/GZvlNLFeuolRJicd7obIsBQUWFtiyxPakBYMpOxf7Pdk0T1Um7plxH+3eg6EbcPnXfg3+HRh1LoiohwXPil7Agq7EP3T2gZZKyEuL0qJU35fzOurZPJCIo/bXPyH9/Odx8VQQkWNepMftEPtg7gP6xiTypJKSLn7snAdX0SWjTAuePDIS5T6owNM3AsKz6BuVPdADkecdgrPbkWfON4aUz4ZUyIOLfg8unjwOvP0GsL4AFYg1DsLTSntvAk9ipmcjTyEywbn3DlnrUlEnwclyEfWW+BB6HSm1eROgjVWgNouN1H9idfbfsD13Eg32ekZ7teLOBvgAWnG/GVkSnqy4s2WJAOWRi3u2vI/bEFwWRKkYxcW0nWsCzbkjkPQ99UXsFl7GpvEHrFTOo1yJQRe1eVZil6Qqy55PNsYvGkUsGEUBKHs+dTZVVxh9PoRnb0BZVdJ1fVHgKVV2vYiKnkfFyIn4B6vw3BMtlMrIsvpe0LFZMNBIpICZqyi99B3MP3kK0aMeJCfsyAVHUQzQPngUmp8jmGwet0PzUh3ehqJvzKygM02ndieXSuM74cmU/X3wvAtwdhueWZ8NUa8ds0EvLp4+jtQL3wCWSkB9Q5QzWEVhNElWyg+5w2VB1ErbLUPfTjRZz7nLY/ciTwucJjzboqjEapgCp/xWfIz5ONaT2PIpv3BjG6jlgdW3cS3yDaxdOo1G+JSoFfVcpV1UoGgAF0RDikEBBVBCUqruhGjnIjwpfsII1ISoRKucfWfBiM/jqKcf7fAkavGnsZN5HhvaL7Ba/jsqlTD0Sg6Fiqq4a2ya5wimiIXwg1hAmU3UpQK0svogapyFfhh57okl3z+QWgpKi9IQr/o7LXhmYZTyKJaLUo3PM/qk+EdBx1auCKTS2H7tD0g+92nMHwuKlFye45QB9m9yjaDoH5O+zaLfgQJFQHx2FHw2FHwsAJnw9BOcHMPkUpGnij7NlN33fl1OKw2Xo/cD7u94fjf3PNN+WmvYcSHoR/gLn8X22TdVQ3ybveQNCcXIxwN7mcIWCmp0lNvZH28ylXd386e78DTByDdIq0+2zdPbnR2g8mNt6jJtZ/RJBXrewQF4Vt6rGdSyP8O1K0+hOvso2pGjPTmeyXS8GQ+ingigESc8FSAFgnu2HJ0AVTqlfBwXbYnVfq71GEaf7HF1oxo9ha3k57Ce/yFWS39FpTILo5JFge1K7PckPDmCqbPRWn0Qy4xiSnlwhjpPUWXOQj+EZ4/AcwElbUnm2BekOZ57nuzjzUAv5VAoF+RvlucXXmURy0UD64k0MBdG9rsvIPzxM4hNeqB5B6GzWZwycsEh5IOUZbPJvmDB70Tex6UgmvfZTIFjBVAFTgVQ7ocSnhJ13irSJDS9I8jStfI2AdpNeKb8dlz02DH96ElUfvFjYCELNNj6zoZ4Gp4r1TaSxVpCkz2wmBNF3Eo0Y7behSch2AFP/kJW5CzJOu/bv0F+I+6P8iZpIqjXgdoasPgW6tEvY+PSabTorNmDe54EHxvgq4kg6nEFREnPGUHKpFTH0YpCoyyCqUIYC0nKn0kp0asUfgwID6EaHsdm7BNYz76IVeM1LMi+Z1qap7XSMnSd8OTeGLUdO+GZQ7FcQK6iyUz0Q3j2wp4vFZQIz2XxrFrUDCxqFjzT0KnjWiE8NeQ5/LCwhFXNwGo4hsXX/4JLn/4UZo8fRnbchSX3ABbcfSLokQtx+mZEGt85r07xj9weQAlRu9l+xAki7nVakacF0A+GJ6FprfsBz2TAgfe8Dmhf/RIw/R7QXEG7TXjW0Wy1ZBCHUCRnmL5TOZihmiIKjx2tSWRPt8kpvu0qJuzOf8W+WL1Lvn3+YjxKdMmbra8IHhlZt1qottU+qDxoZ1OiTxi/Q+X8p1Cfe8y0JyZk1P7hXuprpsDKddPac2QkZ+41yuOtPUczMpRCD2+7uyWRZ0yBkxHowcizE5wdqTzhaS7LEVS+GPh+mcazCh+2oT7nRzVyErupL2Cn+DNsGErzkwpKWoljewsoGotSiGD0ySIEW15o4UDZM2sUcN/2oRcg8uC+BwqBxYYsbAAAIABJREFUsBFezbSzr1P9ragSr/Y7lQAIi30lvYitbAbbly5i9utfxaXTxzEfcMtY5UpwBCX3IYk8c8Fh2fvk6GUuwLFLWmw4JPJk9LkPTxaELICqgpGCqTlZJO1IN0jLJepkxGmtGzymI12X/U4WqrzD4nIpjpZ7qvJ06RyTVWBrFPdavSPqcZ4haPKcYRTEm53N+GNI+2yYCbnxxpFJXPvj74G1BbPCzsJzQ4ZwLKd0C5e1PSFMRR2iU7hjBXU9D88OBPO9vi9cvu4G9Zg2WtaZYBWpvorGtSS20r9E6a2TQPS0WFi0qJ0Z96t+yZQHSHrQTniUIpNV8ZYoz4IngansjFmoEUBJ8cYC6d0dmXpLCm6m4aowZO5fWvuY1tH8d1W6zn/3OnhHgmhTGIW3mwr6rfAZNOJfRiP/c2wb72DBSKKg55CrlJBh03x5UUY3Of9e0ZdQ0RZgUNaMIrqiPm555jy44Lp/e53WOeeIbQHlSk7sVigxl6dBHfs59SUUtAryRfpQUV0pj2ulHHbmLsF45b9w8fGTmJvwocApouAYNOp1Ml0PDMnkEBveOTHElfczTe9cHV7sfjbBqx7P/aM5kkl47kHu7vo0FThpB0yxYvoMDYOCxnmvDTmvA3mPHQWPTbziF4J2kc3L2T6C5eAoDM8gMvY+5H1jyI27Me+x469eB+Ivv4S1WBTYWhcrn2aLRWeFRLJjDxsSpBGXndS5J8FmB+Honnkfftr8rTt+Oq/zsvh3Vy5g9fzn0Lx8Cu25ozKu2WaLT8qJemwErYQdrYQL7Tgl3wges/jCPUeBqAlPs8KtAEqY3h0078nzI+No0fOdGqYxvn8nQEHo8JNA+luoFf+AFWMGeimJ7IKG5EIFmfIiCpLG04p2FQvaihQl6IPDsU4lvGt9iB8e7w9IizDKGRiVOLRKBrlyEblyBVplDXppA0VtFcUiv/zKWNMLWE/PY+3NPyD/zc9j5qgf3Pcre9h+xF7NAeRDauTyQGuRwPEfn09nA3w3DdsIS807AMPTJwClz7qCpx05jwt5jxMFj13cLouuQWiuQyi7+7Ho6UfJ1Y9ywIacz46w146rAQ/ePHUcy+fOYnOTQkMtkAtNtumYP7yt87p1+4d5vC/wtE5G5y/aCVDej80EGokfY+O9J1GdPoVWbAIt+ronnWhERkRkQ6BpFWsYtVmRnsDThKgZfe6n9z0IT4lEmb5TRYoCy26BZ3v+MbQSX0Q1/1NcM97GYmUWxQrtig1kOZGiL0HTlqQgUREdz5I4LxoyufIw8rw/wOz8omLvLUdskyiWsiJyzFFbY2ENenkdmr4MXatgRTNQLeRw7dK7KP70+wh/6nFMT7qRDjpUPyZB5BuAFrwzFaQDsJUikZpV7zY8C5xu8vah4B1AviPyzHscyHvtEoUSqBl3P/K+PpT8gyg5D8FwDqAUcCDjc+KS146zR4JI/+e3gUL2ADgbDabsKvAiI3j9fv70BDx5Qt4HVNoVL/wNm5e+jM0rH0Od9r7sq4zbgZgdbZGvmzTVmMzeSokqGYUyfWb6bvVcmmDtxahT3hO3JAh1yttRFNorwtDN+ZOoRZ/BduY72NBfxVrlHMrluCiM5/Uy8sUlFJmuU0Fepo4oikwjsYfgvP/gJERplcIWsgyK1CmgnmdlCUZlBcXSCnR+4WllbBSKaMRjWPzTq4h+5TlcPjmB2XEX0uNOaWJnFGf4hlAKsjWJKfgdRJp8znXV9W7CU2ApM/X9yPkGQCV42gcXvGMoehQ4eT3rHxajunSwX+bWdWcfDOcg8m4bEh4nzo97ceGZx4Gr7wHrK8JGC5QWPK0o9IGNPDu/MayTYX2ryH3NNWA7iVb617g2/Rlszk2hER9HI2IHUl7lHyR2HcdMAWVO9ARVL6W0ApnwpFAxU2IpzPRi1GlCk6LJtOvgl4JpSULdz53IGWwln8NW4fvYLP0Za+UZabDWNQMFbRlFfUHG+6TgwPl2gaeame4NgHRGYg/aZeUzRUFjTacfewnlMiUGF5CnkpJuYEXXUMtlUX3vXejf/x5mnnwMl8fdiE64kJmg+ruaGlrwjWLBb4PGdPtO4HkdOK0iT7f2PPk6Od8Qsv5BMaIjPAlnKRB5WDBS4Exzz3ZiBMlgP1KuR2C4h2C4x5By2zHjduHCmRPI/uR7wNYiUNuWSJPwJCh55I91/YGEZyc4rcsWOHmUy2ycp+Pm2jQ2oi9g6eoJbM0xdee+J/six4G5Y0CYi3uih6UVSCTgOE8uaTzBSU+kKXG5VIWaXgQowekEIjZTEFpZMVPabjs6hc34E9jOfh472ivYKZ/Dmp7Agq5B0xnBLKqpooqqtlP2TDcFJx7CswdgzWkv9t2yK4JGflSL13XkDR1LhoZtnWOYyloj+5lnMXt0EvN+BzITbqRDdmQCozKGueyxYUHm1+8AnjcAZ9fh6RuRqDIVGEaaoiQUChF4jkDz8PIQMoFBJIMDiAf6EPF/FGlPPwzvGEp+D5LBAC54fZj9wmeB9CxQvwY0dvbSdIsTPFqMsJjRed+Hefm+pO0fdALkpNB2s7EL1Eqoaf+DpdlnsHLlCJCYBObdaoac8Jyl59Ex5Z0eC6GR8ImCu7QPMW0PTwFzR83o8/rWpV4BKQWg7UB4VOBJXdBWYgr1RAg78SC240exm3oC1ey3Udf+gq3iDJa1LAxjRcY1C5WS9AoWOaJJDdCH8OyBBnkFbhEGoT+RZuqtst1Mp1JWEddKeexmY6iffwf557+K1MlTiIX8SLPtaNyJVGAUqQDn0Mew7BpDxTEse6C3E3nKdNB17UQHbjOb4LsWefpGkPGPIBkYRdo/ouDpVe1LmmcIOd8gmKonQ/2I+h9BPHAIWf8Iih4Wirw473Bg+szjWPztr4GtBdUQ3+ZE+v7P9bDkdSsa3X/Uh3epJ+Epvz43hmUEaR1YPY+N1HexcvUpNMLH0ZwhbCaA+XFgloA8YsJzQqZ+qKEp/kHcT2TKPkfAMnXvZXg6FEAjVJ6fRCMxjlrSj92EF9X4OOrxY6gnP49m7pfYzb2Da8WY2G3oTAErZeRkPpoe3/S8Ydr+cN/z/kfeJRml1bQFFDUqXVERiy6ZOWlf2iomsD19Fou/+glin/g4UuMhpAMe0eos0JvIP4I04ekbw6JrDIadFe3bizwPgLIToiY01eQQ24nurkVp7/kCT8J+DBluK5j9nAXvkOhyZv394keUDPUhHeiX9J49nTmvE/MeN970+ZB74TtAbB6or6PdppSlKggRklxM0zsB+sDCk4DsPBHW9QO3SdtWHdjNoll+HRvhr2H90gm0Zmj9GzILKwTkFNr0TY9Noh7n9A8LS6ZcHPc86Q/fy/AUZSVG03TZ9KMeG0c1HkA16UaV3QXUA40F0Iw+jXbie6in/4iNwlUs6PTzrkj7S6ZUllTQIDz3PMJ7IG19oMdE2f2wBF1bQYEAFYM3OmFmsFhOYSc1jdW/vor4lz+DyInDyPs90PwuGH56DY1JZJYJMm23oeIag9YFeFpTQ12HJ/c0qYTkt8mxyC0GzzBYgc/5+5EJ9CEVegSp4CEUgqo5Puvh47141+HExaefxsYbbwDXVoAm5Ss51q1alMgEC5SMNLksTljHDy/e3P+X7lvkuf8W1CXr5Fgnw2p3bXHuvbkCbMRRz/4S5XcfR2P2hIInU12x9KX17xFQwb3OqI3z5hQf5v6o+KtPKpO2Xq22R9ijyn1cWpD4UYsHsBv3oppwo550iZgy72uHz6Ad/TIayZ9hO/93rOhplA3uny0gayygwGizlH8Iz14BNlXhOU5bXJWuiFyphAIFrI0UrukRbF19G/qPX8Tlx44iPOkDZ9Q1vwM6BT+swlBgTPQ7Dc8YCi6OVd5C9b2jkHSzyPMgPLsUdUr0qqaDshQn8dpguEdRcis1+EygH+ngIYFnOtAn5nRl5whSbgfmAwG87vVAf+WnQD4NVOmuSzc0QadA0mICSWEVi+5num6xq2fgab0h69hCW4b/xYm5tSv2oli5hOVLX8b65UfRmA8B8SFVoZYm8yk0qIspHkKEp2l5EWHbjzky2bPw5PtjJK30P2sJH2pJL2pJNxoJfgmwu4BunSeA+WfQTnwHtfxr2DDCWC7lQcmzgr6EoqFDL1Gth6n7w7T9vqft3OvMV1AqrMIoLyNtFJEvZbC+kMFObhoLf/o5rjxzBjPHg4iPu2RKiDYZSrhDjVDyOlWSLLUkerHTUviW1hm36znUVfV3NU1U8DpgeOyouEdRcQ+j6B9EKtSHZOiQrGygH7p7CMt2O1IeD97z+fC3jz2OdngGkCLxLpq1+r0fD7JAcxfHnoUnVZmoO0/5KVFY5vT/Rg4o/hYL55/E9twkkBwC6A1E0eHIFJqRo6ID2mSrUtwBcNEvneBhdNez8BwH5lkIOyztVvWkB7WkBzzSfVOia7YvzR8F5h8HYl9ALfMKNotnsabHZUKFzfKs6D6EZw9tVehllDk6W1xDUa8gY+ShlVLYKcWxevEvyL78PMJPHEN4woUkHS7NMUqZPzeVj5RVBlN4tdQ45q33PW8WdV5/ezf7PNmSRE1Rw+tC2ePAomsUFReb+/sRDx1CPHgIySCLRAPQnSNYHHUg4vbhnakj0H/+ClAuiPduq91QghhKMegu0Hbvn9rD8FRC+3XqLrG9S6RT1oCNq1ie/TpWpk9iN2ZDO0mNTE7ncN/zKNqsvBOmMaeCZ8yNtiU8LNNGvVJh73gfUvyaAqRvlR0DHnN5xUBOwM9IW1quTqAV+QSqiRewlf09NrVLWDXyAlBD51x71iwaPYw873/kyQr7sozPFgs6CloWq6UUdhOXof/PDxH+3JOInwwhxqq6mLRxDFNZZ3AOnT2dVHxndZ0OmBlxwLwJOG/SjnQ9MDuvdxueuteOkseFstuOimsUJdcgcoRn8BEkmLYH+pGjpqjbjuKoE9PBCcw+9xwQjwI710BXIqbroiZUNbXk7j0D7/hf6Fl4UgO0jm3xPRLRZMKzTgN7DQ3jVSzMPIXVeSfqCfoEcaxxCqD+Z/i4VNXbUVr9OtCKqz3D3p5tZ+cAo8rjIsHH/dpmnFEnuwbMaal5q9n/MDh5tBv5HLaT/4WdwlvYMhLSbF3R8tBNhfKHaXsvRKAllI1FlIrLMApFlIpp7OhJrP79NSS/9XnMnJlEatJlTt0MIx0aQibIRdsMBU/DhGcqZAH2BvC8A3ASot2Gp+a2oeRyoOS0gXuahntQvNcZebIpPsMGeUbQbicyNi8ij30cK6++CmysSnS0iqa48kiRfZeya3fMtQ/liT0LT1p2UGi/3t7d9zti50JjGajNYSn2DZSnj2EzfAwNgjN6WMnXMXoLc7qI3uiM3LxoJL0y2qnsjDsivl5J46Uf9YgCKJv/xTCOpnF+SeMPKNNzymr+MHbmn8Ru/Guo5X6NqkG74hgW9bRYOzxsVeoFcPI9lKBrXBUsFYvYyKfQjM9A++lLiDzzGOamvEj7aasxKn5DFjhpF7xvE0z1JNoHq8WJowN9nncIznsBz6JrFLrDBp2dAdzv9BKWA9LfmQly8mgEVIif87gwP3EE+f/4DyCdBHY3xaZnQ+ocpo4l03Y1UPShgPBO/pGehac6c3U0mrvKrkOE+2hIQnkqA1v6qyjPfQ6LVx5FLXxU9X2yLUkiNEZpE2hFQqjH/ailfGgmCKIe3feUOXy2Ux0xx0g5n28qRQng+b5pOBcAkkE0IgFU50+gHn0G9cx3Udf+hC3jIlZKMRglpusPU/b7nrKbFf+ipqNoGNjQikA2hZ23/oLkFz+L6PEJJEJO5DxDMAJKc5Mpu/JaH0NWikLKoI22wYxGs9Tx7Jxtvwtw3hN4ukehOcdQdJtSd7QLERm9AWQ5YeQdQdTnwDseJ2Y/+Uls/uV1ASfq26INz85O8WFv0GZCaf7eCdQ+rOf0LjylSZ7FIuVcTzWqZsPy77gGVKPYyL2C8qVnsD17HK05+gBxsbDC4stRtMKHUYuHsJvyo5Ggh1CPwtMaJRXnTUrRmd0BohJFaLJv1ad6V5M+NGM+NOgRHz2FRvILqOd/jB39r1grzaNcKssMda/A40F+H1TzLxqaqClt5bPA/Bz0l76H2BOPIR3ygiZnnL5RXusqVWfEmQ3YzDUms+3KBZM6npzUoeDGrcWJpYfzAx5zT+DpGYPuVj5K2eAoMiFahQyhSKEQzxBSrhHMeBz429Q4Mj98SbUmNXZEq5M68EwshZns65Q59oPSlR8WFG/33+ldePIsMnRnxMnpAm4mt5nKE6K7QHMBjcVzuBb5D2xcPYHmjA+YoyIRhTU4VXQSrfnjqMYnsJ3yoybw7MGU3dw6UELJbP5n5d2cniJEIyyIeaVliW1LXK0EXTj5RTCOeuxJVNPPY6f4G1wzrsjUUUkv98x44gMNT9oKlzXkOIoZC2PjtdcQ/bdPI370CDSvG5rHBsMzDN1Df6JhKRCxLSnHRvOATQpE6aBK6dnyU6SZ283gafoNWX2cHwTYewJPsT+2y75mIjSMeIip+gB0StC5hpF22XDV50bkS5/F2rk3gc0ltOtbyuOMXuT8cIvcMSseLB09hOftgvzg4whNKRLx64hVuHWw8i5e9ryPAN0soVn8DdYunUJj2gvMuYF5h7T8YPYxtOYfxW5sCpvpgPgN7dll9MpepwVO2hjHfLIEnpyIYisWI+kII043aikHakknqnEn2lSVStL73YF6ZAq78U9hN/9DrBvnURGb24rstz3I4OqF352CIIVKEdmFHBYvn0f2O9/F3PHTyARCWHK5UHGzmXwIJe8wSp4RGB5aVNjERiMTsCMVHEMypOCp+wag+5RC+43AaEHTOt7oMdff1s2CEccxKT9X8NqR8o8iHBrEXLAPaW8fSo5+aK5R5LxuTE8Esfbbn6O1lBFrjZ0Wi8ItgKl6jaZtNNpg4Yj/fQjPg1C83WsEpJCSX0Y8lauoY2ffq5kpPE3j1q5gY+5rWL9wEu0Zzq8TKmrevRU+glr8MLaTE6jHabrWEXl2CiZ3XhZhYssmo+Pxsl9q7j12ee+Ue7GcxVfz+Iw++f6ZvnPyiFNHLHypCnyDfauJAJBQUWlt/gh2oh9HNft1VLVfYtN4G6vGVbHtKBk59OKiVXKvror4qtMXqgi6kpZKaRglmrXxmEXJKIgPUVnTsKBpWNSLWNCyWNDSWDCyKBtZGHoeGu8zdOwUUtgNX8DKq7/A/KeexuzUBOIBL4pep3iu08+HE0WcX6cASJHOlz72fHLfcxQZumT6GZUy/aU6u5J6E/BZFXOm6Ad8h8xKesf91z9+7zqngzpSfLndnHff8xyimr1HqSMVPRTzoOAHtw6onjSMDJef+7EE5ChS7kGk/UNIePqQcw9Cdw0j7rPj8oQP4c8/i1b0MoBNKQhX2w2FSH7Wd1Xezn1PZej2EJ63i8uDj+uEJ6poYgl1bJiN8/IFpXQDditA+a8o/f0Z7Fw5qYoqCYof+9CYZ6HoMKqJI2hIO5OlNm+qzHdC07p8wK2zA6JMk/cWodq9/VNCvSXRZ+e+rDWyycIRPZgsHyb+u3z/EyLDVw8fRzVyBtXEJ9HMfRFt4wXslmnbMS1jgBwF7KW1YKSwKCuNRaP31pKex5KmgceFUgKVShilhTCMxTBKlQTKpRwWDA2LxSJWikVc03NYLcSwUgxjtRTHUikBQ0shX8hjwzCAVBj4wyvQv/gpzJ0cR+SIH5GgE3EanXFaKETzNuW/rvlsAk+ZKJJRS8t7yDRvE43MLop5CAD3908pI2dFpxT8UFqcBOcoDDdbj0aguxVEabvBIlDaN4QkQRlgi9UoMr4RpBx9KAXGUGDESfB6HbgccOEvx0PYfOd1YN3ANmqogttx5kanBU8GoCZH769O/EEc3eha7+95ct8T9MZbMeFZlehTtkd4dqsbwNocqvEfYuX846hOEzIBtOmDHvehLjbBR9GOs5WJ0RrXLeDJyvceQDvgaUWeFkC7Dk9lKEeIqv1Ms+IuM++ckDKnpOT9sxXrMBhZ18PHUA2fRC12Bs30U0Dh39AqvYzG0pvYXbrQk6u6eAG9uS6itnAFtcosqgtXsLv0HrZX3sbW6tvYXHsbmyvvYXvpCnYWZ7FbmkbNuIpm5TJalbNolt9GY+Fd1BbPYWdhGpuVGGDEgXdfA178MopPHsfcpAsRrpAdsYANqZCSnuP0EM3P1BgmjxzJ5Np3vmT0KQLD3VJBsl6nA5iEZydAbwRPC6CEJ8WP075BJAODSAQGkfLTEnkURtCGgq0fumNYFOKTHgcuHpvA1ec/D+hxoLmODTQk0BR48j/8nDPypAekuWMn992IWj1yW2/DU/o6eaa4ebwlp5sJPE+uBPQ8u5yH3S0AK29h5fJnsHZxAjWZe/cBCT+akSBa7AONMaUnOE2juD2QWkC1jhZYretW6m6l7FYLUXcjT05F0dddFY7Mf2sPnD6Vvst1vi++x0npJqjPH0F1/hiqkVOoxx9DM/0kmtnn0Cp8C438d3tuNeU9vYhGrhfXd9HIvYRm9mU0cv+Jev4F1IrfkFUtfgPVwguo5V9CPfcD1NLfRyP9EtrZ7wL5b6OVfR7N9H+gnX0R7exP0Ej9GvUrv8TGz76GhU8/jvhxP2ZCdkTGnYiGHEgE7ciEnKLbyRaefXha4DThaUabqsre3aiTqbdyuVRgttJwC6BqH1Ol7Iw4uQz3MHTp4eR7GULGR2gOIukfQMo3IFJzGnU6HYMoOEYQd9kw7XXh6tMfw+47fwHWy0B7GztoYM8Lk5EQP+v8YJsDRrwqAVKPgPJGb6N34Uk6Eo7y9UNT0bo0M3Bz2dwlUWe3uQM0FoHdOewmv4fVK2ewMc25d1pyeMXKtx2eQFsq11Yq/EEA7QDnAciazz/Qg2nB9e6OMlLKsVLZczW3BTrhGaY4iM+c0+f7Yx/rJBrhKdTmj6I6fxy16GnU4o+hFX8UiJ8E4id6c8VOAD27TgHRR4HYKSB+FEgc3l/xY0DsNBB7zHzMaXV+U3Q9ZYcEe3VPAfOfBC4+i43fPQ3tq8eQPj2O8KQLc0E7YuNOxIMOpIIO5AjPkANpepbvRZud8OTtrLCzRUm1Ke3pZ1qR410cCU7lsX7w32AzuwVQApb7stzz1LkIT/qte4ZArc6sdxAZ3wDSlJ3z9yPtO4SMiw6aI+KWOe204crUJPIvfgso5YDqNaCtJOfYOyNBEP9DUvKzLjfsHW7ErJ65rXfhybPIXk/TLY/n1DrH6pSb97WqQGMDqOWBpdexEf0KVq4+iqr0QbKwQhuOEDBnpb5W+ksQ/iOLwLru8VYqf5dHq01JwLkHaxPUAkxC04TnPC/zPoqhTKAZnkR9/jCqjEAjx1CNnkAzQnFoq+jEwtO/8jK1XalK1ZXFc8Vzx+ie55lRP4356GrKf4PyhpxomxRNBU6BcXtICpUzQeDqMeDCE2j++QmUXjyM5Cc8iE25ERl3qIgz5EQiYBdnTMKzQNdISrdRPFgUlSx4MhpV8FTgNOHZRSUkglPzqEkggtCCNE3auKxo14Ks9KSyL9Wt4Fn0DCHvGdwDaE5Ejj+KpPOjyHvHRNj5nN+L8LPPov72W8DuhsoU29ztZAhEWpKaipjy3/0PuXVzz8Dy+jfSw/DkSWUczwDePL/qHJtXeOIpXUW9zxpQWwKqEdS1X2Jp5t+wcpkz75MmPNk4b34IJGrsBOntXOaH6PpolPuq3VxB8aZXDfL8oPIDa7ppEpzSv8oj1/6HuRUeR4MA5UBAZAq1yBG0CE75wBO4D8KiclaXVoSi1FwuJU4ddgBhl3n+rcjfL1qx7bgTrdgYEB8DonZgxg9cPAK8dRrVV44i9+8OxE6PIj7hRHzcgWTIiWTQgaTfhozfjnzAgWKAzpJsUTKXGYFKhCk9nSrqzHI/0TRV61b0WZQeUwJ0SEYpBZ7+IWT8g+I3pMzcBpH30VJ4EBr7UU147kWfnkEBaM47gEKgD/nAR5D2HkLKO4p5vwcXTp+C8bNXgEoFqFfRru9K6yGoniSfbUKUbUktmS6Szzo/2v8EeXvPwtOabW/Jzoj5BUWe7n1R8QzXILObrTbQ2JKxTVx7D2uxb0F7dwrN2Elz5t2KGs0ijAXQ2zlK6vzhwHNvskiinJvBk0MAHQBlBBqdQDMygUaUa1L2edsCTbfygKcPfC8telB1bdFxlMvZnRVxoEUjPjHjswHzdmDOCcx6gDmeew/aYTcaUTt2okPYiQygFhlSFirT48A7R9H+n6NY/qYficeHEZ0aQjLkkOJQKmhHkmrrvjGZLsqLYrxdxI4FnmYLEFNlAlJFfnSkNBdnxQnQu0jVO58r8HQPCRA5h87oM2eCMx0YQMZcnE8v+AYOAtRM3YvuQRQkAqVX+yPI+/8v+Nxo0IG3nDYkvv51tK7OAjs1oE4HTGaM5qSgBEcsBtdET4k9NfJDcJr7n+qG3vxvz8JTzRjsKo0/njtCk+eWSwDKMJRnmH8MHnjHNaCWQc14FYtXn8X2zBm0Z5i2m0UeglCAabX+3OBI8eS91VGoEaAxIjRXV6NOvqY5kilHM/Lk+2bELLBUH1x12dr/tKLpIFqRoECzEQmhyb5RUdPnWGfvrXbcj+4uH9rxbiwvmpziSjrRSriAmBuI8v8H/j3MQmIsKDoJ1aQLm6lRbCZHsZ2wy/nG9AngjZPY+OFh5J/1IH7ChtgE1ZDsyIgnkQ1pc4KI4Mx7bSh4xsx+z9G9/slOeLIdSObCfUyPuwtPpuzK+ldFlWKZ4VNRJwFoLU4J0Yu94BuE5mX0uR+Bau4hFN1DKHgGkfM8gqzn/yDi78PFkAPvnTmJjddfB5bWgV1VCRI8yueVH2J2dO6iaTYgVq0skx/rh/C8828MTrrWsSvdYDzNe/Dkt5IFUHMGYT/CrwGtVWDjMnYzP8Die4+jfnkKoGGcCCK8guSqAAAgAElEQVR3wpMiwzdYAk7PQYBK+mxC8x7AU304O+Ap8/kE543gaaanTOOZqsr79aHNSaSID82wD/UIfZACYudBS49/7UXbEl+XlrI+2U06UEs40aSNi2x/UEtVWblQaLsa92Er5cJaxob1tAMbCTdq3CK69CiqvzuF0teDiJ6yIRqyIxFUo5Y5zqub4NSCDmgBh0zk5GmtwckiWar5/Hp4sqLNdS/gWXIPgotAZGpOSDLiJDhT9FYXKbkBUUe6Ufqu4EmNTu5/9iHn+whmgoP4k3sQ+e+/CCQSAOXlKMvLBNHcdFNSaSz/su7OKaOqxJ8SCT2E552Dk89syogWTThkeEtFl4Qmz75FS1Mv1RpEUpPvLCAVgOW3sHLpC9g8fwK4yhSYkQMBZe5xMgKVYgAjCzMC3QMn97wsMJn3C0CtvUam8bezV3qbjxEgW8ImlrjJDeC5t6/XkYZ3vM92xItW2IsmIdrji6DvzvKiFfGgFb371Yy60Yg5UIuPoRGjFbRbFRpng8DMBDAbQnvej0bEg2rCha2kDVsxJ2osGM4fR/utU1j/wWHkn3EizojT60DGx1lvNTGUE1+iMWiB/VQ972ZVWk3tWJM7nfBksUhFnurYOQHUmYLfyWVGniWOh94Qnv0iXpwK9CHt7xNdziJVkri36R4wBU1GUHSzl3MYOc+w9Hwm/H24MGnDXx6dQO3c28DqqnxeWw2gRpF4M1HkB5q7nE0TnpQ+53UpEHd+xu8OI/f02T2bthOENfCUqs1kSc0JT+tbiZfNbzJKWbG/lqPwvBnta8B2Eo3UK7h27gk0LxOa7PO0Rh479kC5NygjkAQdgWkVDG4FUHM/UuBrpfZ3cRQw3y48O8DJD7e8307Q8/fpSOv3qvUsdvwrLv6ujMKvOy93cp1Foqgd7fgIEOV+pxuYDQB0a52eUEeKz4TdaMXcqMbt2J1jMekwcOkkqv89hcqXPMicpB6nHbrbg6LHKZVnFoXUUtGlNeZ4/ZHgfB88zT3PbheM9tN2Vs8ZeaoIk4ZtKX8fkgG1Umw/8vVBHx9B3jOAnGsA3C+lRUjONYSMi2AfRcI/gjnfAM6e8CHzkxeBUhao1QSY1DHfoZ6Pqf+hduGYXarIkwOZB8JTfpAl5byn/LurF+9heLZlrkjNuPJMmhp/nfCkngAAC54EKO8G25dkbPNtbM9+FdsXj6E+fQSIcpkQnQ9KFCGRKKNQtpxI5GkB6cOGJ6MXK+rk5esiTykA3QASe/AkQM0lj+VeqfUa/8rH6/eErb3hOzjKlxF9r8aAiAOY85rgHAeuTgLTIWCW6l1qy6TF/18o4HL5BOqvHcHyd3zIP2VDanwIRZcDZacXupvwPAhOC5C3OjKSVAUj1TJktQ51N/JUTe/c91R9m2baTo91f9/eSvsYefahQEk8wpMpuWcYOfcwUs5BpNzD0nrFAYCLITvOPn0KyM6LahIr7JK1M3NnYGl+jPmJZljEdJ17nqr4a+b2Fjj3umvuinH37Mk9DE8146rmX3k2TS8j0pKENE+wgifN4lTkSWEW+XqrbwM7GbQLv8S1K5/E+kXaFR8H2OhMv6O5ENpz5j6m1c8nxYHO6LMzojPbVPbSd8L2LqLNzufKaxKYHWvv3+mMFq0oy9zvtCKuA9EyIzCzGt/5er10mee9q4tfDoRoF5YAlJV7puyMOidU1CnwHAdm/SZUCdFxYO4M8M7jWPvRBAqfdSB5fBRp3ygMpxtLrgBKbtdexEkg3gqY1n1WCm7NmXcerfu6cWTUqyaHhsGeTam2c2+V6u9sePerlJ1RZ9bbb4JTaXPmPCNIe0aQcA8j7h0T988LIRcunTmK4k9fArYWgNaWJOeCRhVqgk7ilOpUmbky22GOqT7fptmjFJTuGfO69sI9D0+eVu5/qm+mvbO+B0/ew+h0D548NfxDNZjTLwGrZ7EV+zZWLz2JGhuYI/Q4Oor23ATa/J9fLDuY1hOETHmvh6cF0HsNz479VNkDNbcG3pdq3wZAex2eBHnX4dmN6Jrw5RcTU3FGleZepwVQpu+MPGe9wFU2xE8BFz+G9h/OoPR8AOkn7EhNOpD3OVF2erDs9qMkkecd+qN3zJ0ToN2MOglfgaelliRqTVZPKQtU/eYiOPuQ9fTJ5FBOquojyHhHRdgk4bcj7BvDdMCBd6aCSH7jq0BiDqiuSiWdXZybbWDL3FNrVxU8+bnd7/BsQPo+qXhuRpv/DPzsWXiSf1aG3rJK7aIuvx918kSrx6kdE6twpB5OA6kNoJpCw/gj1me/hM3zx9CeMY3WxHDtsDkxwhTeiiJvF6DW47twFEBasLQg2nndumxFoQSotQj3TuB3bjs8SJfZ1N6N5VQN7xFGn1YEb24NyD6qE5h3AjMB4PJh4K2TuPajCaSftSF2agTJCTtYWdfcY6h47Mr9kmDqXOa8upog4hRR5zIhacGy89il/k4ramWka1X6eVkJLbOnVBm3ZX39yEnE2Y+cuw8ZZx9y3mGx02CvapLqUONuXPWM4qzfjkvPPIWlP/0R2FgD6ow6WbVoy7baTq2Fxp4+r6pXEJD8/HL4WqjZMU2obu9akHhPXqin4alCe2vf2OrnVOdZfUOxYqcGvZjeE7Z8DlsiZJeae5+tFWAzimr6v7B+7hTql4+gPcsU/iQQOaa80udZRWUKTzhZ8OwEkgUo3tcFWN7oNfYiTAueHa1RZk+pqvBbADWPe9FyRyofdaEVs6MZt/XkasVs6N01hlZsFM3oGBpRBxpRlxzrMRvqsVE0YiNoRUZV5HxhEjuvhpD/mg3zHxtA+OgQkhNUgGf1+RA0Xz+KvkER0KCIhqwDs+oq0mNFXS1rJFJJw1mQu1dHS6/T2pNV2wN8L4PgxFCelXVPv1ruPuRc/WI+l/KMiKReLOhCeNyN854RvDvpRfYHL6GRykiRiALm+5NDKhGs7db3MkahZgchrUjTAmrHXfcEfN140Z6FJ7+N+K3FtXci5Qxbp5eYpC6LmdSbGb1shTIiZQrQ4g41S3wrwMJrqE1/ArsXptC4cgwInwYiJ1SldJ4Sb+Mq+hR4WgDtjNwIUBOee6C7DmR3c/seUM32JmsfNNw5Amred6BNijDn+7IiUV5mNZijg46eXe2oA91ZTrSj3VwOtCN2tCJONCOcJPKgHnWhFrOjRqBGRtHm1BFT+b8dxsoPPIh9chBzx4YRnbAhFXAjQ2M2Tx80P+E5sCfucVDkwwLm9UcC9MOBp4LmGHLeMbCNSi3++wqeBQ+r6gMoutXKuwdRDNiQ9Iwg6h3DfNCJq0En3vONIfyJx7H7978BO3VlES7eY00026yoWx0zZqqocvZ9kJo3W8GS+syreLQbkLtXr9HT8KQpFFuWBJ5kpvzwAmNM7nJuyWXe0tkCwceL9hJLe8LaBrB5Ach9DdWLx1C9cASYo/rNCbRnOYE0AcQPCzzb3Ovai+Y+XHiy0V0tP9r0LpLVCU9etm5Xx5tHo16w77PX1h7oLeB343g3X1rXP5fbN+KF5UcrHBCn0nrEi2rUhXrEiRZn3TmqeXYCu78JQPuKHeFTI4hOuJEM+JD1hJD3uKD5hqHLWCMr2NcDsmPk0hq97GhH+jDhmfOxeV818LPdSO2tKsEPglNjT6d7UFbeNYiCn/AcQ8Rvx0zQiQt+O64cDWDnRy8BqZQAkXGL1BxUCij24dXGtgQ6jRp1KMzq7l6qqDJGKSzJrhzzSa69D7314e+pYw/Dk9Ckjuc+PNWpJBp59tmgtGmCVI3L8m9lRakqmW8rUSbeWE8Cy69g98qT2Dh3HM2ZU2jPHUeLEQRVdNJH0A770GLBQKJAFcHt9VHyQ7YHVabIjPS6G3nuw5MQtSB5PTwPXt9r1j/wXqw90o7U35qMuqOj9Xq9eLRavDr7ZO/iMotEbIqXhniKroyjHg6gGvGiwb8525euhtB8LYSl77iQfmoUkXEb0v6QgDPnDCHvcqEo6kf9IqrR2XJkXbaUi64/qvu7Xxy6cerPFipGnZy151Lw5HugWhIjTgXPAWiuAeQcjKRtSHttiAYYdbrxTsCJmSdPA+f+Jg3x7HYhE+WDSIhK+MN2JLMJvtVUpOT+Jz/Gss+mnrNt3sSAqSPf7Clgdr6ZnoWn2kZW3z6EprmXbG548q/CP5FZwjPv52PksfIoPlddV9Hnsmh+wvg1li49g40rJ1CfPQIwZSdQWHSJedCO+mVOXKDEViBRM2J7CuXIfCrVjNmAKMUougnPG6XkfF8fsPZamu4l2Lq4z9vNc7b3Wrf63Tv/Rh1bG/Lld911qbB7gBk3MM2/PTUDJlCPBFFlVsAptenDwN+nsPWjEIxPu5E97kTK40LBFUTB7UPB7UTWM4p0YBBpkWijKlFnQcja17zZ8YPAeV3xqbMQZV6mhJyo0FOJvmMdKFpRy5OqSmaPJwtBafEjGkGWPaZ8LQ9FP9REUcHVh7xzAAbn8d12RH0eXPD78ebRKaz9/jdAuQDUdlWpgYTZ+/Dxc3jdBhyDGUKTH2Mz2rE+0Twy4lRRJ1+kd396GJ4fdNL2/jof9EB1P1P45i5QTWIl/h0sXTmBbYomi9ScG425USiJsQCa9E/nB0U+TF6JQjBDoVuKT4ygmRhEm+N7jFD3PsB3c9n68HczUuwi8LqRWt+X17AKfeb2i6gvWSpMNznOOYAZGzBNF1Y6EYyjHgmgxn1mih1fOI7W749g9Wsh6KdC0AJBaLYAyrYASi6nSLuxPzIWOoT4RL9A9MZR3x22LwkgzeKTVYS67ljwEZ7vX3tFK/PxunsAFWcfSq4+gSRtNASgYmNMgKr0nVNFnFsvuvpRdo3CcDkw7/LgQmgKV7/4ZaCkARQlFxre3sdR4HrdQ3sblde9WQD/xPB8/y9z61vaaDNl2C2gufgnLM88i9VLx9BmmsbpohhnpF0yE06FIlE5svoRJY1jhOpFm5Xi+KgUKbpWed+LHnsZnhaI/tmOBKdqYWqHnbjVElk7WlfP2YF5peFZn/WiPhdAi1s70yfRfuMYNv4rhNKzHuSPeFHweqHZfCjbVUM8VdfZYH7f4enfN40jSK8HJ69rngEBp+FW8FQCJIxA2cc5rIRIvLQ7phwdvdcHkHMOI+t24rzbjUuPfxw7b9B/fR1t0edkGPng/DxY8OQfuE5R1nlsJr+PxQsfw9YVP5CgbcckWvNqz5NFFknl5ygGManaUqR5mhJlLrSZsktvZZeiu4fwNM/nvQDzPwhPET92qi2ceSdqVx1oUiF+7jhw4Qy2fjUB7Ss2pB4fQio0gozbhqLdjbLTB8PjQdFrF0fJePAQEuN9Iip8XyLPDnhKlf+66JTwFCgyovT0qZl1r1JuYvSpUnj2ezLq7EfR3S9+Ryn3KK46RvH2eBDJb30LWFwEalUVmFCn8wH6eYDgyT8sq+/rQEsDFt7C2tyXsXRhXGwrOLKpZstZKGKDNKuuBCdv534k03RCk8C0VJW6BU+m/Fbq3q1jl97bXvHsXoDtw3hNq2PChXb4dpZDzbXHPdKS1JxhGn8YuPIo2v97GpUXvYh/YhCRY48gEehHmlqWLgcMlwe6x4OCxyVN5BTVSI/3Ixtgn+edpug3et6No8gDkaVvaC9tvxk485Sf8w6IWhIb4ZmaiyanmLopS2EViQ4gy8jU1Y9i0C5V9redI7j67Cex/fYbwNaGObRuFRgeHHo+gPBk3+casJ1FNfcLLF76ONYvH0Nz7qjpXUOQcYqE0yU09eK+KCXrqC5OBXRL25HKTF0ClOybdgua5ut0673908OTgFYAvR14tsLs73QAMZfq56QIyPRx4N3HsfuLY2KtETk1iMjkISSDjyDjZRP5KDS3Q8CZc3uQEf+eAWRD/aLM/qHD8wZR5gG4CjiVcVtKZtj7pSGeLUn7nkTqfkaeFAPh7Hs6aMdZ9zDOnpqE8csfAQZVk3b2deb+2TYt75LzDyA8G0CD6fsOsHwe69FvoHL2NOr8gAgsWVlnsYDV1nHQeVO0IuOjqlVp7jAwyxFP+gR1CZ49/zqMxj+MKPEO/409ndOOKasb3Eb7jA9azQj1OTlZxH1PLh9w8STwx0ex8u0JJB63IXqYQhgDSIc+imzgkAgIE5A5jxNZtw8Zj11GHHPBAeT9LO7cKIK809tuI/K8BTxzBCfn072DSPsHEQ8OIBEYkOuGi+1JVkTKqHQAWU4Z+Yal9WrWM4zXnP2IfuM51GbOArU1KKWPjsr5XQLpn+npDxA8zT8Lvx3ZD8FO3t0sGsbvUT73aexcOa2q6nTZnGWEyQ+yD62oD82YG424U3ovIfBkKs+ppF6Hp9Xw343jHYLtQ4DuBwHx9u6nN5FHxjGp01kL07uIUec48OYJVH90FNqn3YgdGUVCPImGkQ0eQi7Qh5y/X4orWY8NWbcHWY9deQ35zTalHoCnEvQwwWnB0zeIeGAASROemglPtiepCjuPgzKSSaWodxz9+POUB6uv/zewmANaG9KGxMp5g2pJ/Fw9QD8PFjyt7iYeZQt0DVifx2bs+7h28QwaLB7RAZHKORTCZQQSd6Aed4vNg1ThuQ/KIhLT956FZzdg2fkavQtORsQ3Tsc/OMrch6oCp8Az5sZuwoEqq+4U/zg3idZ/T2HlKwGkT48pWw2/G1n/GLKEZqBPFj3LM15WqZ3IeZUjJjUvuxt1Mlr9xyPP94GzA56JwCCSFALxqqiTkac1jsljwT2ItHcE854RvOEdQfRbXwBSV4DqMnZbm+JCxI8SB4ea7N18gH4eGHiyEMhvRjbSi1od/+It9n0uAItvYuHsx7F9ISDTI6IePu9GOzaGRmJUwTM2jhaV6CljN8t9TxaNejXytMDX29DrzlYAIclCUGcbEq/fCJ77kCQoDy4v6DhK36Ja0oU6M48rh4E3j2L3BxMofdKN1OQIMj4H8h43cp4xSWkp3Zb2H0LKfwgZjlj6bMhzuW3IOUeR93CK505T9OufR3B2D54EZtqnikO8rJriOYo5AN01CN1Fc7dhRD2juOAdxVvHg8AVWmvkgfo1cR3iSKUMCdEQ8+Ge57/oVwenjwhQwtMa6mTrUnML2A6jlnwRa+8dxe5FAjIIRN2oRwbRSBKePuxGDqNJ7c8Y25dYTCKgHsKzOwC8CeRvsG/5fn/2fwCeBKJ4V3nRmnPLUipaLBIqeNbDLlTZbRE/Cpw/hZ1fTKDyRRfyp8aQCVLwg/YabhQ9hChHGoeQZmWdxSOJQikEMoqi24Giy4mCx3ZQjk7gZ0HwHz/esPmdSk033efsSNVFi3P/Ol9L848i5ehDxjOANJWUPAPQWTiy9UF3jqDoGsOsz44LR0OIPP95QItL1MnPTRV1JWNM9Ud+vh7C818XnkzVGXBysJNjtfK3pvpLXQMqv8fGlU9h88IRtGd8Um2tRQdRSwyjFvdjN3IMTe5zxjg3zWo8P/AP4Xlv4Xmj6PFGt91G5Em/dQue1DAQeJp/QwLVHNdszLlR55YNJQv/9xSWXggi95QN2ckx5H1jKLpsMFxOaG6Xqq77xmQMMxX6KNLBjyAb/IioKGkuF3SnF0U3U/hbwe327ytYLUgdPZzSAH8DeN4wVb8enhzNdA6h4FTiJQlfHzLuPhhiDDeCwtgQ8g4brgQ8uPrME2i99yawXgYa19Bq7qDWbqHKjw9dhU1diX9Retzw13pg0nZr1pbwZORJeIrkiESfC8D6RTTTP8D6lY9j64oXrZhfPLyrUQfqUarrHEFLJo6cZr/nvYCnlW5343iTaO5DKOB0Dag3TL3vEJ5M0wlPjtjOM/LkdX75mdoBbBcTRaWgKhK9dxJbPz+C4nNepE6PIhsaQ8FnQ9E1Ct1hg8ao0u1GzmtDxj+oIk+B5/8VMRDCVXP5VIR6L+Bpjl/eDMy3BU/nAAqjh1D2jkALUqOzD0lXHzTfCEoBJ5L2UYQddlw8fgSZl14ArrEhfgPt+iZazRqazRZ2dutomPB8wALPB2k8U4Wa/AOzKEh40hteLtFts14Elt/BZuRLWL7MND2IZmISVZElC6FN47iwD83pUYlKEe02PLsBTOs1/gXASch3EZ4q3WfE6dkHJwcTKDTNybI5L9qUomND/MVjaP3xKCrfDCDxhAOxwyPIUh3eZ4dGeDpHobkcKLo9yHscyPqHkAkcQjbw/5AL/n8o+Kh/2X14suG9M22/GTh5++3Ak/uaFfsAKq5BaIERaVlKePqRcQ8h7hgWib0LThfCn30WjQvvAtv8nFD7iLYZbbTrTexs7Uq6LpKQDxg9H5zIk4G3qbpkRZ+NdgNNiiVTF7S1BuxmUNN+guW501iZPoxq9ARq80dUus55d7YtzdCWltEnG6+7mbYTfP8i0OvW79FVePL8KnhKxGlK87XmfGhMe9Cc9aJNm+HLx4G/ncb2jyaR/bQD4WOjiIZGkAs4oPmd0D026C4Lnm4UzLaknL8PucBHkAv8H+QFnk4U3V65/1aQ+4fuM1XoLVHlGz1X+jitXs7r0vROoLI4VPYO45pvDNrYR2UEMx0cRNI3hKhrAGGfA5cDXlw6eQLLv/olsLIILFXQ2tlGk8UDgpKxB6uvrCM0G2hxC+wB+nng4Cl/dHO/kyrXCp5VoL0DtJaB9b9jI/t1lC49hs2Zx9CcP40W25O4JxbjzLsd4Pxzz8PTGkvsxvE+Qb2r8FQarE328DLijFL8JYDmjBf1aabwNKUbB86eAn5zGivPh5B4bAThyWHEAiPI+h0o+p3QvHZobnoU8ehA0TMmrpN5Hy0qDiHv/6ik7XmPHQWPEwXvWNf2PG8Ey4O37ReDOkF5s8vG/9/eeXjHcV1n/K9zji0SwC52sb2ikCBBiqIky3bkkh45iY9P4sSJFcclYmzHjtxkOY5lRWLvDWUL2qIQIFFYQBJly+wv53tvBlhSJAGSiEQRAM/lm52dHWBn3vvm1u8m/cwlW5mONlOK7jRJ8cVMgN5UkPyB3fx3OkbpX/4Jcn2wrG60qiZyqIigzKSsyPdVx6mUqZuuDdvg+fw+O/S01P3VKAe341Cti6RVj1A9TVW6OUh59hdcvfgGN8++Tu3ya2DY5uOGLIJ8AqcvYlJhnm3NU6C5GQ3RPPDdRADdUBR98812pSJVL4mKTixaytNtp3ZJ2qjAVCloXfA/+1n6zj6mv5qmsDdArjNAMat2whFKqSjjKQFmhMmkbfI2mQwaGroJU4mjSLsIkFtta4uUIu1KN9p4UOjJj3084BSgimLuSrSJawkfYxGrfRbb27jQHuLwrgQf/PHLLHz4HtyYhZVlu0TqsFKBqqKuWkuOQ13VemqL+TiUdM8BymwxzVOI6YYFzY3Xg1RUrbbhh+3zNwN3LrFQPMTNs39G5cKr1g8mijL5OQtpan2K7gpMnmWz/VkGzwcFfZ5m36Oi7Taf06Qi9XngKa4CFzxVEKH83VwX1bMZFn/axdxfdlI6ECPf5afQ6aeYDTKYCjNsIueKsgtA25hM+tdESeYiIU55bOxBRtOW8Pjh5BxPD6oP0yo3sn9MBMeRF5gWa1JkJ1fiPgY7wpzuiPCzhI/ST74H4wVYvkO9XDG+zUrVBU83Z7peq4Ajq+0u1FdzWJ4DaFz/K2wh8HQTPeXZNuWZ9skpN430TjWpqpjWHndh5TpcO87tC99g+fRLcEHsStJYxDYvpnnba2gbPJ9QG92wOb5RQH0YeHqJ8B5jfNponjbKrpSzLM5laaEigGnn1ochZr4TZ+LVDEMdUfKqvun0MdgepJgKMZhQ2aWCRALQIJOpJq5Iki1cSbZaEz6pCiNVH/kZybrEIA9IJXpyDXMNcDcCkI86RlRz48kmJuI7mZIGGlO5ZojjXRF+/WIWCmfdnE71prXuzcVlKMts15qp1ykrgFRfNOlLpujE84utjz2f+iO2EHjKVK9TN+DpZsu7JryGqmldrCnhguvdUW71f4/5E19g5YJaFatXjhahyjbd4I7p4y0fmicyNa1vzTLMK39QBMfWv2a3FeGVtuMFiP4fzGITsPHOu1njEwLlg4JHq9fLu25PM+qhJgpBibZ1Lo2eWAA21zufoXI5hiMrQj5r9SO6qIKHPdRP7WL27Qjjb4Qp7U1STIYYVMVQZ6tJjh8SU5L8mJkUY6k4pud5qplJiRqlJdXWImxzP1NhE4Efzfgsq9L9gZ4nfD1uCIxbXaBWiwxbFaQgkSqEjKTt6AWOTG26aadhj9dnPNHfPZVsZjzygkmMH48HOZ1s4/2edqZ+/h8wN26AUf3ATNObhpxOuTzLTo1qTea6WnzLdNdRgtmt8bNlwLPR3WlTLRQkUmti22FT1RGy6A2fq9FMRVt3npm+f2Dm7OdZuiTTTjmBSpAPQl8b9IVdCbmjgklaxAJQVa0INDstrZ1hbFKzOdsLySzeXBRyIZfuTovdA99NGB8EWk+8b4MA/BHg8gCscXSBUonomyG63oZrVdde7O8CQ51b9yFqpD4QpTYQp6pWwqalsOgF2yzQKkh07gCVX/Uw9a12hl+LMNweZlQAqBbAGbUBbmNUjdKMDzPKWCpizHOB2YQRAWcb48kQChTZpmr6nMx22zlzNUL+BMBpzqHfk/QzHfMzE/UxHVMlkDg4fYYWbyjdwmC6hWKmhaG0jxGXEUkVQ6uN3OI+JmN+DAFIXOdoZjZqtU5pyxdibfyhPc2pv/lrmJqAuwumdbA6EAkWpWCsdQZTjMATLZytA5reo2HLgKfVLq2P2zaOU+dNmRzy16i+zPq7HTHWaVvTxZng5vQ7TPX+NbMX9lIx9exh6G2BXr8LogLSgCsuoBqtR+Dpcn/2qdGcmJgkAlBpn/KhhiDvh1zQEvBuJnhu6rk88FwnAGW+t6cFPmQ07S02CThNJZDAU2CoB1nctg3u1fkFnHa/kwtTy8WoiB0rH6OWC0DOZwH2fLthTVr6twNMfnUfw3sTppOkAPDppY0x04P9o62HPVBEJx4AABhHSURBVFDdyDiaajVapfg2BZzXwz4zTsUteA6nLGgW1P4ja7eHpfUqiGXKLX3o2KmolSsxgaiPmUgzN0I7uNK2g6FsnKPpBB984QuU3vktLJVN6ZBA04qyoivUTdNFpfdJ8XBTllzs3GrwuaXA0xrlusWaDtI8xaMlkHQDhTVLHqKKCXNMbZr60jlujnyXmfOf5/Z5AZ80Jy3UBIZARKafFq1JYQpZjcYsZjHP61iZ7tI+5Vdze8QbjVSmuwBUnThdlvpNBbxN0F7199zjAtgE8DQAu5ngqWvvArXROMXDqvNLC5UvVH2p4tTycVMxVstHqQ/oPoXgYhaO7qb+9h7mvtHJ8MtZip1ho2kq8LMZYog8nkDbNBF7E7VX5N7yb8rcFuemtE+PuFhs74Npn9E4pXlKRu4DzavqemkA08943M+oYUryM57wcTXWzEikmcuZKMf37CKn1hqFIViqGIViDTwVVJXuqaCQTPU18LzXqvP0sud/3DLgqRss88O2NNUTU0jZ4PsUYOqlAkh6kmpyKO+TUWpzv+FG318xd2oPTq/LpqTcz0svum06xCovX2gY8q1G6rlWnJwaxcVRP3bbUE4AKhGYyqTXfk+r84DqWRz1N64DnHp/I5qnB57mIeSa8E+97T4oVkFTAKqHmtoFp01Tv1ouQa0YpaZ7ZMz5JJzphv/ew8Kb7ZS+EiPXHSafUZvgIBNKQXpKkV9UbYCfyGRXlZALmt44llQ3S0nANGgbygSMX7aQ8VPM+BhSWw2Z6XGBorRUPzMRK1NRC5wjyVaK6Vb6sxrVYkOA28axRBuXvvwl7v7ud3BLZDnimLNqhgBUsCnwtLV5LngarcN6ObV8tjXP5/SBIW+Nnp0azW12wdKY69626/cUeDrG+X0XuArL51gp/YCrJ9UwbjcMyPzeD5cPmsZg9f5dlihZlUf5IPV8ACfvx8kFqOfCbsM4zwcqU17g6QGoNNPGANKzCZ4P5sy0mt3jv7fRKPpGjlNEXUDpBvOkhaqGvS9jEt8dU14rboI4lVwb1X75OtVOehcceZHKT3qYfiNJ4aWgqSRShY1yM9UF8+lFqUsSNVt7PPECPY2jzHd1thxMBylmghRUUpkJUDTap58RBYPiPq7E/FwTcIZ9XJNE7L6xRCvDqVbymVZ6s630Zfz0C0i7U/w+HWHqu/8CQ0OwuGI1T8dCpXRN6++U7SYotXs8J5iWj7XqnlPweMjX2kKap7I55bOxAaJGU93DU00GOcR1VFXmvCZJ7TrUhmH+PW72foOrx3pY6X2Rat9L1Hpfota/D6e/G2egAyen1sRRnHzIAKcBz3zI9ng3HTe1wAWWSpNpAFG9lnaak/b67El9YCMg9kkdk7IEHyL1MBqsChiSOH3tOH2d1Po7qA60W/AcCNjgkh5cZ/bBuy+x8M/7GP1inHx3wKQkjWastqiczc2SxwJON4LeCJretoCvmGkjlw2Tz4aMCEQHBaoqxRSRsevbvBrxIZl2/ZwTxlxvZTDpJ5/205/xc7E9yJmOEB92xTj/J1+i/uH7cPOGBc6KMb8MVErfFDhaxcPTPjUKNu3/2+D5EIR9HnYLNK2/5iHg6cKm9ezYpHlj2lcXoXYNFnupTvyU8WNf5OaFV1nsPUi5bx+V/r1UB7qp5Xbh5Nqp59PU1TwsF7Zme76Ner7N9W0quCET09NCpX3uNj5RmfbGxHdbG39c2+pVv74kcAaeTZHWWTdapkx0uUgiOP1Jw71a7d9Ftb+TyoAANI6jwJweThf3wAf7WTq0n6t/uYdiT5xCe5CRTNCY7GtRdC+a/v8/jidbV1OIvFQijWPi1nRF4JnLhujriDDQHqaQDRuTezgZoGS6ePpRMMgLDGlUYEiAKmAdTvgNeBZSfnJpP2cFnLtjvLM7wfzbP4LRQVi8axM5LfeHAc81YJRhLtCUYrG2V1trUPo8oMXGvsOW0Tz1fFS+mnlOeh7uBnNdk0E6Z811i5upYaqR5Di/DpUS3DzG7KV/ZObsV1i4dIByf5rqQIbagFiXOo2YahVDc6Y8TgWEIm46klKSJHot/2GKuhh9+jupD7SjXvEfF2Cu/h4DnDGcgUeJB67PKnh6ifAaE9T1XeTn7O+k2t9FtV9apwob5LdVOlM7nOyh/Is9zP59J6OvZih0RhlKK7quIJFXbqmKoaeVjYPug8DTA80xlU8mfBh/ZSZkNM9iJoT6CpWSQcbj4uX0G6CcjLWYssuxRAslMSQlW1A0flhkxzpHwseotNC4nzPtEf5nX4YP/+p1uHzGlmEuKeHdVo4oJdqDSevPlDYq5UPryIKnYgjb4LkxsP0UH+UhpjVHjHd7dZc2qqbGvUqNsgezAlflr1XvQHUGVopUp37PlbNf58bF/ZQHWqkOhHGkTZpyPxGI7IH+bujXtoJLbiApJyq7gPGJkpcfNEY9l0J9kRyBqEz+j1nrrD8OePYncNaTT0A71XdYa8Ghv1FaZ8ZonNI67cNN2r6S4uO21Pb9Hm59r4uxryXI744zmI4zlo5yJRmyye5PDZqNoLsxAH0weFrQ9MBzNNnKULqNwXSIkZRafASZjAdQMGg6ooh6C5PxJkrJJobTTRQzTeQzzeQyzRRSzQwnWygp11N5omE/p9uj/Pa1Hqbe+xVcG4O7t2DFpu4pcCqS43vAU8vEpCdJLbXg6akk3nGfYoB47D99C2me910bgaKZCJoEVuTxVMnZsqKMbgqbAVlVT6jXe+0qVIaZuvivzF94lXJfK9X+MPIJ2gT6TuiXGe5G1E11kavxmJzOIBgzPoSTj9j0mbz65qRwcolnFzyV7rMBMeC62QC6DmBL0/TyPKV5Ov0ZagoSGY0zS21AD6iY2wkzC6f3Uf9VDzPfzFI8GKQ/o75Eca5k4kwbtiT5Ov2Mb4JYzVXgub7/1IKnTPc1WdM8reku01yaZikRZDwRYDLeylTMb/yaYka6ErOllqXkTkYEnumdFNJNq+A5KO0z7qck9vhIK8d3pfnDG1+FW9Nw97qpYUe16i79w0c0SgOe3rqxZpsFT5tEr+O30s/WAU9z422g3SZV6Fm5lrMm80PTwUwYtyeLzBajeYoxpn4HanKmT5l+7zcv/Tm3T7dSuSQzPA0FaZkZG/VVy1qJUmcMsIqRKQ4FReMjOAMhKpJcmEohSq0QN0nc6/sePRN6M8dHmex6z/tdH7/muRHAlo+TvPI2g8Zsd/o6qPZlqYjgWO018jLnldOZgnN74f39LHy3ndHXwwx0q269jfGs2mpEmIqJKcma7eNpP+vJRMbPI0XkxYqyJwPryoQp71SlkhXzmUSAcfkyXZlQ24yon4lQC+OhJibDzUzHWrgab2Eq1sRkbAcTiReYSDcx2eEjF/4MxcQOiqkm8vEmCkmf4eosJAL0hlo4//or3Dl7BOavwMptcFRmWaXqyOfvrgU5uhrXjsFMAah2St0QJ5kNssrxtZV+thZ4GjDU7dWGqiSWLBGyMdQtpJpiI4GnStx1mDlWILsIzqJl0l4aY6X4JsvnOlk5n6FyIYkjqrNeJWsr4V18n7Y0kF5VJEVsNYsB0oQBUqcQo1aMUBkKUxuMUi94lHciH3mEfCLReLklUh+71HNJ1hPyURgUeLZapqv+buoDXdTUp0jXOx+zvmZVEh3pofrTbqa/Hqd4oI2BjmaG1Ftd+ZjRIFMRtdcQhZz2+TZBbO25UoTWk4cB7FgisPpZ9Ru6Fm1l1q0wuhb3cc2tT5+I72As9llKrgyFPsOUvlvSUuSNdUbIpQOci7VwLhVgYF+W8e9/25rrBjht1ZBgU72JPK+mQNTgpAegBjzXdlrwVB6LPrkNns/nw8M+KC1CmueqB5wq01TSr6tkNlglsuqtc1zgKeIDVSTJpr8J84eh8E0WTr3C3OEsy1qc+QwUQtCv0s0WY6LbaiRVu6hHjuraO4yJX8+nTE/4ciFIOd+GYxa5QOoR8tAe5U+ab7mRz3kpSI2Bmafd9s65zqjvu46YAFyhDafPj9Or79Nt6OVqfWKHj9oHmurcT3XDb3q48e0MI18KmtSkQrsP9VsvJX2My3cYDzNpWgWrnFJN0Z5SDKO7gFMAuI4Y7TRo2JrE2OSJ6f3uflZBoelQM7PqOxRtYSrRwkSymVJqJ6OpHZRSOxhP7mAysZMrkR3MSouN+ihFlBAf5lJHjPeTrXzQk2L8X/8W+k/B8i2XSk76YxXr818DT7MEPOD01pDZaVaMG4bV8YLRbfDcAuCp56oS4AWcC6vgae6992T1JohJlhd4LrtVSbJnqlCehKn3WLrwD1w7/DILZ/ZQG8hQz7dQ7/8c9P8RFFqs1qMyRwHn5b3Qqzr3Lkzydi5GuRCgkg/imNYe6yTIy6fXF/8ERL9XuZObJRv7HiZ6vg59nYmg6/r1+qkJPJX6NdBJrTdBTS6VizG4mIQP91I+tIeJP42R6/FTaG9juL2VUraZMcOOFGBaPYoUdW8g9NhI7fkjj1GFUXIDYqqR7u/THrzns+o5NB3cwWxwB9PRJsYSTQwlXiCf+hyFzAuMZHYynm7iaqKF67FWZoM+pkMBSsEgF8IBjmajvNud4Py3/pyly3+AyrwhMbaJeaofUvV6zeY5uzbXKhw2Aqe3NqRbmGi7YHcbPJ9P4LQPSVfr1AsZI9I81cxKICpwNDPBWukegGrCKC3DsC+VqXtECLLtK7fg9jBc/YDF3JtMn/wC0yey3LzQRkW17cU244czBBVqLHa5Ey7thUvdhrG83ttuTFIGozAkk13+UVUaPUqUZP9JiXJTN0O8v3+zau917eQiURqSzq2gnYoQ5HdO206Yp3bBOz1c//t2GyRq91FMhxjNijWphZLAMxtkMhNiPCMyY0ti/KhR/dotYcd6Y4BSaiMSpJSyMpoM8CCRz1N16rOGUUlpSE3kEy/Ql/wc/ZkdFNNNDCebGI01MxH2MxYSaCcoJlMcTcT4dXuCI298leXLR2F5CpzbJmezWq9RccRoK73Tmt8ywVcx0qyD+9aHi6o2VqDPbIOnBZHn/H8vYV5J81akibqTo/EJayaN7Pga9XqFWr1m6941q8orNjq5MgE3TzE/8CYjRz9P6UiGuTNpyqbVgyXcNb1xDKPSPugVgHZZUhEtcJnrBY+mzS0zNHXZD9p2A1FeQOpTO7ppQ0odepg8DvuSYVESGLvXTH2KTK+iXXB2H7y3l8Xvd1F6PcrAroDx/YmbU+k+St8ZSbUwlm1F/Jsi2hjNBAwdnSjpHi62vnwktTnjaCqAxJwv2WpyOpXX2SimgijhN9yb8ssOp30YJqUOP/nOVgrtrRTSfopJ9VyKMxCLcDoS4Ug8wfs9ezn7zb+FYi/cmsKp3UCdEwSRVlewW3q1qok6VRxPYWgEUG/bLBnvc4JbvbF1frZOwMjcWN1ceWY+KlYtbcjRuEf71ISwn7IECQ1xpPJtEIDePsfy5M+Y6/s6kycOMnW0gxsnsyyf7aB+Xlqn2OhdWjppoerUeFnmvGqx5RPV9oMA8759YnH6NIv5nm4mgiHyeATD0kZYpuRL1rWUW0Rau6joLkn0O3rg2EtUf9rD7N9lGDwQodgZZTgbYzydZFwNzpRong1Q6hDpcQsjWT+lrPaF1pE2RjObKUqZuk9SAYYbZERlmAmlG7UwmJD27Lcs953q8BmgL9PK5VQr5+KtHA40cbo9ze/TSQ6//DKlQ/8Oo8Nw5yb15Vss1ZdcU3t15rtAKh1SjRErOCYZXguhQbHwgHMVJ63uaRUS91j7ief+/y0EnjLVlZ4k+LPPyHvngfu+JoxIPU110Zrjx4NdGTYSW/+u93WsWhfPwlIeZj5gsfhD5k7/BVfe38/1I7u5cyzD0okE1dNROBeFCzG4JO0oCZc9MNTCV6rToyTt8lV+EqP3dz7laB4QGwTPVaDV8Q+R3nab+K4HkyFYCcLlsAXP83vhdy9y6zvdlL4cI7e7jcH2GCNigk8mGU8lGMvEGM2EGMqqf89OMw6b3M82RtIPFxF0DKc2IvcCYCMY3rttSTtUgjmkZHgjfoaSa6Ia9sFMkLzIPZJ+CoYhKWC2L0WbOBtt5nTcz5F0iN8kAhx57UUKb/4j19//HQwVbAK8OrdVq1TUu8sjFTNEOI4lPjYWliwyu1asi0vW1wMAdBUepYxo/WyD5+oleX42dOc1GeTn1MRomAvuvLDVuUrXcEVRdc0Hd07oMzJMKqywwjKL1Ey4SXF6sTCZfI7aMizNw3wfjL7L8qVvs3Dyj1k41sXCkTC3D+9g8cjnqBzfSf2UD063wakozqkotTNRqmcfLZWzUcpnIp+AhCmfCW2itFE+E9wcOZ2gfGoXK6e6KJ8LU77wWapnW6idaKP2foaFtzoY/bMMl/cEuJwMkI+HyYdCDAbDDEWijCTiFOIBemOfpS/9GXKpHeTiLeRjvkdKLuYjF21ZV/LRZh5PmshHmsg9QPpizfSlA5xP+LgYbaYv3MJAxEdfWzPnW3dwJurnXFeS8188QO5bbzD2i0NUBy/C4hyIo6GqbBGLccaVr0pLlwxenWQdp0rNKeOYRm4ueBplYo30+J7FswoQOuk2eK5ejudvQzdXgSFpng3gufpFvfd1TNnOKu2SuABrp0iFCmXKOAZmdbQIaMxJDQ39EpTnYHkUlntxxn7OYu6fuXXxDeZOf5GZ4y8ze/wg8ycOMn/8FeaOvcrM0YPMnjjIzMkD68q1Ey/y8ct+rp3YLNnHtRObKMdfYfbYV7h2+MvMHHuFuZM9zB8/wMz/vsTkrw8y8OaLHPvabv5wIMXhfZ0c37ubY11dnOjs4lT3Hs7u28fxPV0c3p3k2L4kJ/ZnObG3g5N7Ox8pJ/Z0sBE5uaedJ5UT3Vka5ejedg7v38Xv93bw3u4sH3R3cHR/Nyde6uHUawe5+Bdfo/BP32T6l/8J44Nwdx4qdzCN2Zwy1bLmtVtZ6c5rM29X14AHgt7Er+HUKtRrLpmON8+9cfVz2qHPatw6P1vIbF/vBnvvaxK4E0G7GuaDfdngUDc0ItbFbj/jkiao/7simc51cK5BbQxWCrBwHmf2KCtT77E4/i53Su9we+RX3B59m7vjP+PuxI+35TGvwWLpbRaH32Fp8F2Wh95hZfiXLA/+koXe/2Lq6CGGf/t98v/1PXI/+TfyP/o+xUM/ZPDQvzP01luuHDLjoNn/A4be+gHDb/1wE0Xn2xzR31348X/Q/5Mf0ffjH9H/nz9m8Jc/Z+bIhzjFHMzNwOIdKC9BVdVCAksv3f0jE/meub0Ged6kbxzX3n34VsP5H37Qc/XOFgLPzbxv8plaI14Zbna7MbnDtYUMA41qhWUuaULfhsoNWBHJyDSsqCxuAsolKA9Dpbgtj3sNVqThT9qy2aVpkCyqVnsabl2B+XGYlUzC3DTMXYXZazA7AzOSWZiZc2Xefa39155BmYW5eZi7bkZnbo7K/Bz12wuwsmx8mcYOd5/4jfB3D7Q1vrGZy2KLnWsbPJ/ohjdGGC1oekGo1dOZCao6zyqGbEFagKNE+7tQX4D6Dahfh/oc1JWsfAOcW9vy2NfgJjg3LG1gdR6qIq/WaxG53ILqgsuKdReqS1CRqPn4CsiMlaxU1sTs0/vPoAggFxdhueFv1/fQHJOP3qlRr1aoVRXOtIpl43jv3LzXqlp9b3tjw1dgGzw3fKnuPdCCpaKM+rc2Uc1RjTtqbqG8mdzSQkUyoq6dt6EusNRCF+Wd2nYal+z2+DjXQX5mFnFYcOU2dRPKU/WYCiAUJNQ1dxv+rTb900NNQUGJS2RgtgVEetA9g1Irw/ISrKxApWwDQIqeN4JnrUpNfsqGOeltr85gb4fG7Z8nvgLb4PmEl65x/nnb5lTei8bR86Wb0KYqlrSQxZsopiZpRoqEijd0Gzwf+xoo3cYUFS5TY8WIwwpWvCIIk1jWEBH2fNqKnrjRQO9+GdjR+2tBk2dmW24ggWVF6UYCTU8E+K72qYIOt8rc+0re+MD5+YTzf/tjsA2emzkLvFnaOGodemL2u+FO48hXrF5A6kYzveO2x7Vrts61EMSt1GssmxwIEVk7DaLXNVbqVcp19QhYg0HvtI23Sts6Rs8wJeo8a2JsHJNCJ63ZdQcZMC3jVMtG46w5thLu/u/1EeDUBdBB2z9PfAW2wfOJL13DB++fqQ2vDS56ioFRDuo4tRp1LQK9aZZq3aaJejyi2yPG27GB6+ABnZtg5jK01llx07w9AHyQUn8PmLq/S8c1nutZ2pZOaUDTM9XN5PLmka2as7kf0j3Xnj+rGNkwL72EkoZZvL35mFfg/wCaDSpkpKet3gAAAABJRU5ErkJggg==;" parent="1" vertex="1">
          <mxGeometry x="573.5799999999999" y="30.000000000000004" width="52.85" height="48.27" as="geometry" />
        </mxCell>
        <mxCell id="nXCKUCmh7iTcp1doCHGK-1" style="edgeStyle=orthogonalEdgeStyle;rounded=0;orthogonalLoop=1;jettySize=auto;html=1;entryX=0.717;entryY=0.035;entryDx=0;entryDy=0;entryPerimeter=0;" edge="1" parent="1" source="marmxEQQUY65Z1BmpgRf-6" target="marmxEQQUY65Z1BmpgRf-8">
          <mxGeometry relative="1" as="geometry" />
        </mxCell>
        <mxCell id="nXCKUCmh7iTcp1doCHGK-2" style="edgeStyle=orthogonalEdgeStyle;rounded=0;orthogonalLoop=1;jettySize=auto;html=1;entryX=0.427;entryY=-0.022;entryDx=0;entryDy=0;entryPerimeter=0;" edge="1" parent="1" source="marmxEQQUY65Z1BmpgRf-6" target="marmxEQQUY65Z1BmpgRf-7">
          <mxGeometry relative="1" as="geometry">
            <Array as="points">
              <mxPoint x="435" y="198" />
              <mxPoint x="281" y="198" />
            </Array>
          </mxGeometry>
        </mxCell>
        <mxCell id="nXCKUCmh7iTcp1doCHGK-3" style="edgeStyle=orthogonalEdgeStyle;rounded=0;orthogonalLoop=1;jettySize=auto;html=1;entryX=0.44;entryY=0.022;entryDx=0;entryDy=0;entryPerimeter=0;" edge="1" parent="1" source="marmxEQQUY65Z1BmpgRf-6" target="marmxEQQUY65Z1BmpgRf-9">
          <mxGeometry relative="1" as="geometry">
            <Array as="points">
              <mxPoint x="435" y="198" />
              <mxPoint x="172" y="198" />
            </Array>
          </mxGeometry>
        </mxCell>
        <mxCell id="nXCKUCmh7iTcp1doCHGK-5" style="edgeStyle=orthogonalEdgeStyle;rounded=0;orthogonalLoop=1;jettySize=auto;html=1;" edge="1" parent="1" source="marmxEQQUY65Z1BmpgRf-6" target="nXCKUCmh7iTcp1doCHGK-4">
          <mxGeometry relative="1" as="geometry">
            <Array as="points">
              <mxPoint x="435" y="198.27" />
              <mxPoint x="515" y="198.27" />
            </Array>
          </mxGeometry>
        </mxCell>
        <mxCell id="marmxEQQUY65Z1BmpgRf-6" value="GCP Control Plane" style="html=1;verticalLabelPosition=bottom;align=center;labelBackgroundColor=#ffffff;verticalAlign=top;strokeWidth=2;strokeColor=#0080F0;shadow=0;dashed=0;shape=mxgraph.ios7.icons.folder;" parent="1" vertex="1">
          <mxGeometry x="410" y="148.27" width="50" height="30" as="geometry" />
        </mxCell>
        <mxCell id="marmxEQQUY65Z1BmpgRf-7" value="Network" style="html=1;verticalLabelPosition=bottom;align=center;labelBackgroundColor=#ffffff;verticalAlign=top;strokeWidth=2;strokeColor=#0080F0;shadow=0;dashed=0;shape=mxgraph.ios7.icons.folder;" parent="1" vertex="1">
          <mxGeometry x="260" y="218.27" width="50" height="30" as="geometry" />
        </mxCell>
        <mxCell id="marmxEQQUY65Z1BmpgRf-8" value="Security" style="html=1;verticalLabelPosition=bottom;align=center;labelBackgroundColor=#ffffff;verticalAlign=top;strokeWidth=2;strokeColor=#0080F0;shadow=0;dashed=0;shape=mxgraph.ios7.icons.folder;" parent="1" vertex="1">
          <mxGeometry x="370" y="218.27" width="50" height="30" as="geometry" />
        </mxCell>
        <mxCell id="marmxEQQUY65Z1BmpgRf-9" value="Monitoring" style="html=1;verticalLabelPosition=bottom;align=center;labelBackgroundColor=#ffffff;verticalAlign=top;strokeWidth=2;strokeColor=#0080F0;shadow=0;dashed=0;shape=mxgraph.ios7.icons.folder;" parent="1" vertex="1">
          <mxGeometry x="150" y="218.27" width="50" height="30" as="geometry" />
        </mxCell>
        <mxCell id="nXCKUCmh7iTcp1doCHGK-4" value="Backup" style="html=1;verticalLabelPosition=bottom;align=center;labelBackgroundColor=#ffffff;verticalAlign=top;strokeWidth=2;strokeColor=#0080F0;shadow=0;dashed=0;shape=mxgraph.ios7.icons.folder;" vertex="1" parent="1">
          <mxGeometry x="490" y="218.27" width="50" height="30" as="geometry" />
        </mxCell>
        <mxCell id="nXCKUCmh7iTcp1doCHGK-11" style="edgeStyle=orthogonalEdgeStyle;rounded=0;orthogonalLoop=1;jettySize=auto;html=1;entryX=0.6;entryY=0;entryDx=0;entryDy=0;entryPerimeter=0;" edge="1" parent="1" source="nXCKUCmh7iTcp1doCHGK-6" target="nXCKUCmh7iTcp1doCHGK-8">
          <mxGeometry relative="1" as="geometry">
            <Array as="points">
              <mxPoint x="735" y="198" />
              <mxPoint x="670" y="198" />
            </Array>
          </mxGeometry>
        </mxCell>
        <mxCell id="nXCKUCmh7iTcp1doCHGK-12" style="edgeStyle=orthogonalEdgeStyle;rounded=0;orthogonalLoop=1;jettySize=auto;html=1;entryX=0.32;entryY=-0.022;entryDx=0;entryDy=0;entryPerimeter=0;" edge="1" parent="1" source="nXCKUCmh7iTcp1doCHGK-6" target="nXCKUCmh7iTcp1doCHGK-9">
          <mxGeometry relative="1" as="geometry">
            <Array as="points">
              <mxPoint x="735" y="200" />
              <mxPoint x="786" y="200" />
            </Array>
          </mxGeometry>
        </mxCell>
        <mxCell id="nXCKUCmh7iTcp1doCHGK-14" style="edgeStyle=orthogonalEdgeStyle;rounded=0;orthogonalLoop=1;jettySize=auto;html=1;" edge="1" parent="1" source="nXCKUCmh7iTcp1doCHGK-6" target="nXCKUCmh7iTcp1doCHGK-10">
          <mxGeometry relative="1" as="geometry">
            <Array as="points">
              <mxPoint x="735" y="200" />
              <mxPoint x="910" y="200" />
            </Array>
          </mxGeometry>
        </mxCell>
        <mxCell id="nXCKUCmh7iTcp1doCHGK-6" value="Applications" style="html=1;verticalLabelPosition=bottom;align=center;labelBackgroundColor=#ffffff;verticalAlign=top;strokeWidth=2;strokeColor=#0080F0;shadow=0;dashed=0;shape=mxgraph.ios7.icons.folder;" vertex="1" parent="1">
          <mxGeometry x="710" y="148.27" width="50" height="30" as="geometry" />
        </mxCell>
        <mxCell id="nXCKUCmh7iTcp1doCHGK-8" value="Development" style="html=1;verticalLabelPosition=bottom;align=center;labelBackgroundColor=#ffffff;verticalAlign=top;strokeWidth=2;strokeColor=#0080F0;shadow=0;dashed=0;shape=mxgraph.ios7.icons.folder;" vertex="1" parent="1">
          <mxGeometry x="640" y="218.27" width="50" height="30" as="geometry" />
        </mxCell>
        <mxCell id="nXCKUCmh7iTcp1doCHGK-9" value="UAT/QA" style="html=1;verticalLabelPosition=bottom;align=center;labelBackgroundColor=#ffffff;verticalAlign=top;strokeWidth=2;strokeColor=#0080F0;shadow=0;dashed=0;shape=mxgraph.ios7.icons.folder;" vertex="1" parent="1">
          <mxGeometry x="770" y="218.27" width="50" height="30" as="geometry" />
        </mxCell>
        <mxCell id="nXCKUCmh7iTcp1doCHGK-10" value="Prod" style="html=1;verticalLabelPosition=bottom;align=center;labelBackgroundColor=#ffffff;verticalAlign=top;strokeWidth=2;strokeColor=#0080F0;shadow=0;dashed=0;shape=mxgraph.ios7.icons.folder;" vertex="1" parent="1">
          <mxGeometry x="890" y="218.27" width="50" height="30" as="geometry" />
        </mxCell>
      </root>
    </mxGraphModel>
  </diagram>
</mxfile>
